<svg width="37" height="19" viewBox="0 0 37 19" fill="none" xmlns="http://www.w3.org/2000/svg">
<path fill-rule="evenodd" clip-rule="evenodd" d="M0 2.775C0 1.2424 1.24252 0 2.775 0H34.225C35.7575 0 37 1.2424 37 2.775V15.725C37 17.2575 35.7575 18.5 34.225 18.5H2.775C1.24252 18.5 0 17.2575 0 15.725V2.775ZM5.55 3.7H9.25V7.4H5.55V3.7ZM7.4 11.1V14.8H11.1V11.1H7.4ZM22.2 14.8H14.8V11.1H22.2V14.8ZM16.65 3.7H12.95V7.4H16.65V3.7ZM24.05 3.7H20.35V7.4H24.05V3.7ZM31.45 3.7H27.75V7.4H31.45V3.7ZM29.6 14.8V11.1H25.9V14.8H29.6Z" fill="white"/>
</svg>
