<svg width="10" height="17" viewBox="0 0 10 17" fill="none" xmlns="http://www.w3.org/2000/svg">
<path d="M9.67917 1.8102L2.68372 8.5L9.67916 15.1898C9.88555 15.3896 10.0009 15.6593 9.99999 15.9402C9.9991 16.221 9.88205 16.4901 9.67441 16.6886C9.46676 16.8872 9.18539 16.9991 8.89173 17C8.59807 17.0008 8.31599 16.8905 8.10709 16.6932L0.325577 9.25169C0.117112 9.05233 -1.1889e-06 8.78194 -1.16426e-06 8.5C-1.13961e-06 8.21806 0.117112 7.94767 0.325577 7.74831L8.10709 0.306816C8.316 0.109451 8.59808 -0.000846985 8.89173 5.62516e-06C9.18539 0.000856328 9.46676 0.112793 9.67441 0.311367C9.88206 0.509939 9.9991 0.779018 10 1.05984C10.0009 1.34067 9.88555 1.61042 9.67917 1.8102Z" fill="white"/>
</svg>
