<svg width="10" height="17" viewBox="0 0 10 17" fill="none" xmlns="http://www.w3.org/2000/svg">
<path d="M0.320836 15.1898L7.31628 8.5L0.320836 1.8102C0.114453 1.61042 -0.000886277 1.34067 5.12875e-06 1.05984C0.000896534 0.779019 0.117946 0.50994 0.325593 0.311366C0.53324 0.112792 0.814614 0.000857359 1.10827 4.90465e-06C1.40193 -0.00084755 1.68401 0.109452 1.89291 0.306816L9.67442 7.74831C9.88289 7.94767 10 8.21806 10 8.5C10 8.78194 9.88289 9.05233 9.67442 9.25169L1.89291 16.6932C1.68401 16.8905 1.40193 17.0008 1.10827 17C0.814614 16.9991 0.53324 16.8872 0.325593 16.6886C0.117946 16.4901 0.000896534 16.221 5.12875e-06 15.9402C-0.000886277 15.6593 0.114453 15.3896 0.320836 15.1898Z" fill="white"/>
</svg>
