<svg width="16" height="16" viewBox="0 0 16 16" fill="none" xmlns="http://www.w3.org/2000/svg">
<g clip-path="url(#clip0_1_302)">
<path d="M15.1457 6.64303H14.5371V6.61197H7.73839V9.63363H12.0073C11.6836 10.5496 11.0742 11.3372 10.2689 11.8806C9.46362 12.4239 8.50507 12.6941 7.53456 12.6514C6.56406 12.6087 5.63296 12.2553 4.87852 11.6433C4.12408 11.0313 3.58622 10.1932 3.34424 9.25233C3.10226 8.31151 3.16896 7.31783 3.5345 6.41779C3.90005 5.51774 4.54509 4.75896 5.37455 4.25329C6.20401 3.74762 7.17399 3.52182 8.1415 3.60919C9.109 3.69656 10.0228 4.09246 10.7483 4.73854L12.8853 2.60156C11.6152 1.42039 9.97707 0.71276 8.24647 0.597725C6.51587 0.48269 4.79847 0.967277 3.38325 1.96995C1.96802 2.97261 0.941365 4.43216 0.476028 6.10299C0.010692 7.77381 0.135081 9.55393 0.828263 11.1438C1.52145 12.7337 2.74111 14.0363 4.28203 14.8324C5.82294 15.6285 7.59105 15.8695 9.28883 15.5149C10.9866 15.1603 12.5104 14.2317 13.6039 12.8854C14.6973 11.5391 15.2937 9.85722 15.2925 8.1228C15.292 7.62593 15.2428 7.1303 15.1457 6.64303Z" fill="#FFC107"/>
<path d="M1.05542 4.60671L3.53738 6.42726C3.80812 5.75348 4.23709 5.15478 4.78804 4.68178C5.33898 4.20877 5.99571 3.87536 6.70271 3.70972C7.4097 3.54409 8.14618 3.5511 8.8499 3.73016C9.55361 3.90923 10.2039 4.25508 10.7457 4.73849L12.8852 2.6015C12.0373 1.80782 11.0174 1.22078 9.90521 0.886192C8.793 0.551602 7.61853 0.478507 6.47342 0.672608C5.32831 0.86671 4.24353 1.32276 3.30371 2.00518C2.36389 2.68759 1.59445 3.57792 1.05542 4.60671Z" fill="#FF3D00"/>
<path d="M7.73838 15.6769C9.61191 15.6772 11.418 14.9779 12.803 13.7162L10.4654 11.7378C9.89936 12.1668 9.24019 12.4564 8.54134 12.5831C7.84248 12.7098 7.12361 12.67 6.44298 12.467C5.76236 12.2641 5.13913 11.9036 4.62383 11.4148C4.10852 10.926 3.71563 10.3227 3.477 9.65373L1.0177 11.5515C1.64876 12.7919 2.61044 13.8336 3.79648 14.5616C4.98251 15.2897 6.34672 15.6756 7.73838 15.6769Z" fill="#4CAF50"/>
<path d="M15.1457 6.64299H14.5371V6.61193H7.7384V9.63359H12.0073C11.7094 10.4707 11.1728 11.2023 10.4638 11.7378L12.8014 13.7162C13.5965 13.0195 14.231 12.1587 14.6611 11.193C15.0912 10.2273 15.3066 9.1798 15.2926 8.12276C15.292 7.62589 15.2429 7.13026 15.1457 6.64299Z" fill="#1976D2"/>
</g>
<defs>
<clipPath id="clip0_1_302">
<rect width="15.1083" height="15.1083" fill="white" transform="translate(0.184204 0.568596)"/>
</clipPath>
</defs>
</svg>
