<svg width="29" height="29" viewBox="0 0 29 29" fill="none" xmlns="http://www.w3.org/2000/svg">
<path fill-rule="evenodd" clip-rule="evenodd" d="M14.5 0.452545C6.52122 0.452545 0 6.74902 0 14.4525C0 22.1561 6.52122 28.4525 14.5 28.4525C22.4788 28.4525 29 22.1561 29 14.4525C29.0001 6.7489 22.4789 0.452545 14.5 0.452545ZM21.0641 18.2948C21.7778 18.9838 21.7778 20.1011 21.0641 20.7902C20.3504 21.4792 19.1932 21.4792 18.4796 20.7902L14.5001 16.9478L10.5207 20.7902C9.807 21.4792 8.6498 21.4792 7.93613 20.7902C7.22246 20.1011 7.22246 18.9838 7.93613 18.2948L11.9156 14.4525L7.93613 10.6103C7.22246 9.92125 7.22246 8.80396 7.93613 8.1149C8.6498 7.42584 9.807 7.42584 10.5207 8.1149L14.5001 11.9573L18.4796 8.1149C19.1932 7.42584 20.3504 7.42584 21.0641 8.1149C21.7778 8.80396 21.7778 9.92125 21.0641 10.6103L17.0847 14.4525L21.0641 18.2948Z" fill="#BE0A0A"/>
</svg>
