<svg width="29" height="29" viewBox="0 0 29 29" fill="none" xmlns="http://www.w3.org/2000/svg">
<path fill-rule="evenodd" clip-rule="evenodd" d="M15.7044 18.3862C15 19.0906 13.8577 19.0906 13.1532 18.3862L9.33515 14.568C8.63068 13.8635 8.63068 12.7212 9.33515 12.0168C10.0396 11.3123 11.1819 11.3123 11.8863 12.0168L14.4289 14.5593L24.7911 4.19719C22.1983 1.60726 18.622 0 14.687 0C10.7491 0 7.1704 1.60967 4.57711 4.20296C1.98369 6.79626 0.374023 10.3749 0.374023 14.3129C0.374023 18.2507 1.98369 21.8295 4.57699 24.4227C7.1704 27.016 10.749 28.6257 14.687 28.6257C18.6249 28.6257 22.2036 27.016 24.7969 24.4227C27.3903 21.8295 29 18.2508 29 14.3127C29 11.6745 28.2766 9.19819 27.0199 7.07061L15.7044 18.3862Z" fill="#4CAF50"/>
</svg>
