<svg width="129" height="35" viewBox="0 0 129 35" fill="none" xmlns="http://www.w3.org/2000/svg">
<path d="M0.619019 10.7347H1.48152V23.8979H9.38773V24.636H0.619019V10.7347Z" fill="black"/>
<path d="M10.394 12.7441V10.7347H11.1333V12.7441H10.394ZM10.394 24.6565V14.6509H11.1333V24.6565H10.394Z" fill="black"/>
<path d="M21.7707 14.6304V24.1234C21.7707 24.677 21.7091 25.2306 21.5859 25.7431C21.4627 26.2557 21.2368 26.7273 20.9082 27.1374C20.6002 27.5474 20.1484 27.855 19.594 28.101C19.0395 28.3471 18.3207 28.4701 17.4788 28.4701C16.6368 28.4701 16.452 28.4086 15.9797 28.3061C15.5074 28.2035 15.0967 28.019 14.7475 27.773C14.3984 27.5269 14.1109 27.2194 13.9056 26.8093C13.7002 26.4198 13.577 25.9277 13.5359 25.3331H14.2752C14.3163 25.7841 14.419 26.1532 14.6038 26.4608C14.7886 26.7683 15.0145 27.0349 15.3225 27.2399C15.61 27.4449 15.9386 27.5884 16.3083 27.6705C16.6779 27.7525 17.0681 27.814 17.4788 27.814C18.177 27.814 18.752 27.7115 19.2038 27.5064C19.6556 27.3014 20.0252 27.0348 20.3127 26.7068C20.5797 26.3787 20.785 25.9892 20.8877 25.5791C20.9904 25.1485 21.052 24.7385 21.052 24.3079V22.0115H21.0109C20.6618 22.7497 20.1895 23.3238 19.5734 23.7133C18.9779 24.1029 18.2386 24.2874 17.3761 24.2874C16.5136 24.2874 16.0002 24.1644 15.4458 23.8978C14.9118 23.6518 14.46 23.3033 14.0904 22.8522C13.7413 22.4011 13.4743 21.8885 13.2895 21.2939C13.1047 20.6993 13.0226 20.0432 13.0226 19.3461C13.0226 18.649 13.1252 18.0544 13.3101 17.4598C13.4949 16.8652 13.7824 16.3321 14.1315 15.9016C14.5011 15.4505 14.9529 15.1019 15.4868 14.8354C16.0208 14.5689 16.6574 14.4458 17.3556 14.4458C18.0538 14.4458 18.8752 14.6509 19.5529 15.0404C20.2306 15.4505 20.7029 16.0246 20.9904 16.7627H21.0314V14.6714H21.7502L21.7707 14.6304ZM17.3966 15.0404C16.7806 15.0404 16.2466 15.1634 15.8154 15.4095C15.3636 15.6555 14.994 15.9836 14.7065 16.3936C14.419 16.8037 14.1931 17.2548 14.0493 17.7674C13.9056 18.2799 13.8234 18.813 13.8234 19.3256C13.8234 19.8382 13.9056 20.4738 14.0493 20.9864C14.1931 21.5195 14.419 21.9705 14.727 22.3601C15.035 22.7497 15.4047 23.0572 15.8565 23.2827C16.3083 23.5083 16.8216 23.6313 17.4172 23.6313C18.0127 23.6313 18.5672 23.5083 19.019 23.2827C19.4707 23.0572 19.8609 22.7292 20.169 22.3191C20.477 21.909 20.7029 21.458 20.8466 20.9454C20.9904 20.4328 21.0725 19.8997 21.0725 19.3256C21.0725 18.7515 20.9904 18.2184 20.8466 17.7059C20.7029 17.1933 20.477 16.7217 20.169 16.3321C19.8609 15.9426 19.4913 15.6145 19.019 15.389C18.5672 15.1634 18.0332 15.0404 17.4172 15.0404H17.3966Z" fill="black"/>
<path d="M24.7279 10.7347V16.7832H24.7689C24.8922 16.4142 25.077 16.0656 25.3234 15.7785C25.5698 15.4915 25.8368 15.2455 26.1654 15.0199C26.4939 14.8149 26.8225 14.6509 27.2127 14.5484C27.5823 14.4458 27.9725 14.3843 28.3627 14.3843C28.9582 14.3843 29.4511 14.4458 29.8618 14.5894C30.2725 14.7329 30.6011 14.9174 30.868 15.1635C31.135 15.389 31.3403 15.6555 31.4841 15.9426C31.6278 16.2296 31.7305 16.5372 31.8127 16.8242C31.8743 17.1318 31.9153 17.4188 31.9359 17.6854C31.9359 17.9724 31.9359 18.2184 31.9359 18.4235V24.6155H31.1966V18.28C31.1966 18.0339 31.1966 17.7264 31.135 17.3368C31.0939 16.9677 30.9912 16.5987 30.7859 16.2501C30.6011 15.9016 30.3136 15.6145 29.9234 15.3685C29.5332 15.1224 28.9993 14.9994 28.3421 14.9994C27.685 14.9994 27.2537 15.1019 26.8225 15.307C26.3707 15.512 26.0011 15.7991 25.693 16.1681C25.385 16.5372 25.1386 16.9882 24.9743 17.5008C24.81 18.0134 24.7279 18.567 24.7279 19.1821V24.595H23.9886V10.7347H24.7279Z" fill="black"/>
<path d="M37.7885 15.2865H35.6117V22.2781C35.6117 22.6881 35.6528 22.9957 35.7555 23.2417C35.8376 23.4673 35.9814 23.6518 36.1662 23.7748C36.351 23.8978 36.5769 23.9799 36.8439 24.0004C37.1108 24.0209 37.4189 24.0414 37.768 24.0004V24.636C37.3983 24.6565 37.0287 24.6565 36.6591 24.636C36.31 24.595 35.9814 24.5129 35.7144 24.3489C35.4475 24.1849 35.2216 23.9388 35.0573 23.6108C34.893 23.2827 34.8314 22.8317 34.8519 22.2576V15.266H33.0037V14.6304H34.8519V11.5139H35.5912V14.6304H37.768V15.266L37.7885 15.2865Z" fill="black"/>
<path d="M60.6036 10.5502H61.8357L67.2777 23.5083H67.3188L72.6991 10.5502H73.9312V24.4514H73.0687V11.5959H73.0277L67.7295 24.4514H66.867L61.5072 11.5959H61.4661V24.4514H60.6036V10.5502Z" fill="black"/>
<path d="M82.8642 22.4626C82.741 22.7701 82.5767 23.0367 82.3508 23.3032C82.1249 23.5698 81.858 23.8158 81.5499 24.0208C81.2214 24.2259 80.8723 24.3899 80.4615 24.5129C80.0508 24.6359 79.6196 24.6975 79.1267 24.6975C78.0589 24.6975 77.2374 24.4719 76.6419 24.0003C76.0464 23.5493 75.7589 22.8317 75.7589 21.868C75.7589 20.9043 75.8821 20.8018 76.108 20.4328C76.3339 20.0637 76.6419 19.7767 76.991 19.5511C77.3401 19.3461 77.7508 19.1821 78.1821 19.1001C78.6133 19.018 79.0446 18.936 79.4348 18.895L80.5848 18.7925C81.1187 18.7515 81.5294 18.69 81.8374 18.608C82.1455 18.526 82.3714 18.4029 82.5356 18.2594C82.6999 18.1159 82.7821 17.9109 82.8231 17.6853C82.8642 17.4598 82.8847 17.1522 82.8847 16.8037C82.8847 16.4551 82.8231 16.2706 82.7205 16.0451C82.6178 15.8195 82.4535 15.594 82.2276 15.43C82.0017 15.2454 81.7142 15.1019 81.3651 14.9994C81.016 14.8969 80.5848 14.8354 80.0714 14.8354C79.1678 14.8354 78.449 15.0609 77.8946 15.4915C77.3401 15.9425 77.0321 16.5987 76.991 17.5008H76.2517C76.3133 16.3936 76.6624 15.5735 77.3196 15.0199C77.9767 14.4663 78.9008 14.1998 80.1124 14.1998C81.324 14.1998 82.2071 14.4458 82.7615 14.9174C83.316 15.389 83.583 16.0041 83.583 16.7832V22.6061C83.583 22.7496 83.583 22.8932 83.583 23.0367C83.583 23.1802 83.6035 23.3032 83.6446 23.4262C83.6856 23.5493 83.7472 23.6313 83.8499 23.7133C83.9321 23.7748 84.0758 23.8158 84.2401 23.8158C84.4044 23.8158 84.5481 23.8158 84.7946 23.7543V24.3694C84.5892 24.4309 84.4044 24.4514 84.199 24.4514C83.891 24.4514 83.6651 24.4104 83.4803 24.3284C83.2955 24.2464 83.1722 24.1439 83.0901 24.0208C83.008 23.8978 82.9463 23.7338 82.9053 23.5698C82.8642 23.3852 82.8642 23.2007 82.8642 22.9957V22.4626ZM82.9053 18.772C82.7205 18.9975 82.4535 19.1411 82.0839 19.2231C81.7142 19.3051 81.3035 19.3666 80.8517 19.4076L79.599 19.5306C79.2294 19.5716 78.8803 19.6331 78.5107 19.6946C78.141 19.7562 77.8124 19.8792 77.5249 20.0637C77.2374 20.2277 76.991 20.4533 76.8062 20.7608C76.6214 21.0479 76.5392 21.4374 76.5392 21.909C76.5392 22.6471 76.7651 23.2007 77.2374 23.5493C77.7098 23.8978 78.3464 24.0824 79.1678 24.0824C79.9892 24.0824 80.6874 23.9388 81.1803 23.6313C81.6731 23.3237 82.0428 22.9752 82.3097 22.5856C82.5767 22.1961 82.741 21.8065 82.8026 21.4374C82.8642 21.0684 82.9053 20.8223 82.9053 20.6788V18.813V18.772Z" fill="black"/>
<path d="M93.5633 17.5418C93.5222 17.0908 93.4196 16.7012 93.2142 16.3732C93.0294 16.0451 92.783 15.7581 92.4749 15.5325C92.1669 15.307 91.8178 15.143 91.4276 15.0199C91.0374 14.8969 90.6062 14.8354 90.1544 14.8354C89.7026 14.8354 88.9839 14.9584 88.491 15.225C88.0187 15.471 87.608 15.8196 87.2794 16.2296C86.9508 16.6602 86.7044 17.1318 86.5401 17.6649C86.3758 18.1979 86.2937 18.7515 86.2937 19.3256C86.2937 19.8997 86.3758 20.6173 86.5196 21.1914C86.6839 21.7655 86.9098 22.2576 87.2383 22.6882C87.5669 23.1187 87.9571 23.4468 88.4499 23.6723C88.9223 23.8979 89.4973 24.0209 90.1544 24.0209C90.8115 24.0209 91.058 23.9389 91.4481 23.7953C91.8383 23.6313 92.1874 23.4263 92.4955 23.1597C92.8035 22.8932 93.0499 22.5651 93.2553 22.1756C93.4606 21.786 93.5838 21.376 93.6454 20.9249H94.3847C94.3026 21.5195 94.1383 22.0526 93.8919 22.5241C93.6455 22.9957 93.3374 23.3853 92.9472 23.6928C92.5776 24.0209 92.1464 24.2464 91.6535 24.4309C91.1812 24.595 90.6678 24.677 90.1339 24.677C89.3124 24.677 88.6142 24.5335 88.0392 24.2464C87.4642 23.9594 86.9919 23.5698 86.6223 23.0777C86.2526 22.5856 85.9857 22.0116 85.8008 21.376C85.616 20.7404 85.5339 20.0637 85.5339 19.3666C85.5339 18.6695 85.6366 18.0134 85.8419 17.3778C86.0473 16.7627 86.3348 16.2091 86.7249 15.7376C87.1151 15.266 87.5874 14.8969 88.1624 14.6304C88.7374 14.3638 89.3946 14.2203 90.1339 14.2203C90.8731 14.2203 91.1812 14.2818 91.674 14.4253C92.1464 14.5689 92.5776 14.7739 92.9472 15.0404C93.3169 15.307 93.6249 15.6555 93.8508 16.0861C94.0767 16.5167 94.2204 17.0088 94.2821 17.5623H93.5428L93.5633 17.5418Z" fill="black"/>
<path d="M96.8901 10.5502V16.5987H96.9311C97.0544 16.2296 97.2392 15.8811 97.4856 15.594C97.732 15.307 97.999 15.061 98.3276 14.8354C98.6561 14.6304 98.9847 14.4664 99.3749 14.3638C99.7445 14.2613 100.135 14.1998 100.525 14.1998C101.12 14.1998 101.613 14.2613 102.024 14.4049C102.435 14.5484 102.763 14.7329 103.03 14.9789C103.297 15.2045 103.503 15.471 103.646 15.7581C103.79 16.0451 103.893 16.3527 103.975 16.6397C104.036 16.9473 104.078 17.2343 104.098 17.5008C104.098 17.7879 104.098 18.0339 104.098 18.239V24.431H103.359V18.0954C103.359 17.8494 103.359 17.5419 103.297 17.1523C103.256 16.7832 103.153 16.4142 102.948 16.0656C102.763 15.7171 102.476 15.43 102.086 15.184C101.695 14.9379 101.161 14.8149 100.504 14.8149C99.8472 14.8149 99.416 14.9174 98.9847 15.1225C98.5329 15.3275 98.1633 15.6145 97.8552 15.9836C97.5472 16.3527 97.3008 16.8037 97.1365 17.3163C96.9722 17.8289 96.8901 18.3825 96.8901 18.9976V24.4105H96.1508V10.5502H96.8901Z" fill="black"/>
<path d="M106.439 12.5596V10.5502H107.178V12.5596H106.439ZM106.439 24.4515V14.4459H107.178V24.4515H106.439Z" fill="black"/>
<path d="M109.54 14.4458H110.279V16.5987H110.32C110.444 16.2296 110.628 15.881 110.875 15.594C111.121 15.3069 111.388 15.0609 111.717 14.8354C112.045 14.6303 112.374 14.4663 112.764 14.3638C113.134 14.2613 113.524 14.1998 113.914 14.1998C114.51 14.1998 115.002 14.2613 115.413 14.4048C115.824 14.5483 116.152 14.7329 116.419 14.9789C116.686 15.2044 116.892 15.471 117.035 15.758C117.179 16.0451 117.282 16.3526 117.364 16.6397C117.426 16.9472 117.467 17.2343 117.487 17.5008C117.487 17.7878 117.487 18.0339 117.487 18.2389V24.4309H116.748V18.0954C116.748 17.8494 116.748 17.5418 116.686 17.1522C116.645 16.7832 116.543 16.4141 116.337 16.0656C116.152 15.717 115.865 15.43 115.475 15.1839C115.085 14.9379 114.551 14.8149 113.894 14.8149C113.236 14.8149 112.805 14.9174 112.374 15.1224C111.922 15.3274 111.552 15.6145 111.244 15.9836C110.936 16.3526 110.69 16.8037 110.526 17.3163C110.361 17.8288 110.279 18.3824 110.279 18.9975V24.4104H109.54V14.4048V14.4458Z" fill="black"/>
<path d="M119.931 19.5511V19.6742C119.931 20.2688 120.013 20.8223 120.157 21.3554C120.321 21.8885 120.547 22.3601 120.855 22.7497C121.163 23.1597 121.553 23.4673 122.005 23.7133C122.477 23.9388 123.011 24.0619 123.627 24.0619C124.634 24.0619 125.435 23.7953 126.01 23.2827C126.605 22.7497 126.995 22.032 127.221 21.0889H127.96C127.735 22.2576 127.262 23.1597 126.523 23.7748C125.784 24.3899 124.819 24.718 123.607 24.718C122.395 24.718 122.211 24.5744 121.656 24.3284C121.102 24.0619 120.65 23.6928 120.28 23.2417C119.911 22.7907 119.623 22.2371 119.459 21.6015C119.274 20.9659 119.192 20.2893 119.192 19.5716C119.192 18.854 119.294 18.1979 119.479 17.5623C119.664 16.9267 119.952 16.3526 120.321 15.8605C120.691 15.3685 121.163 14.9789 121.738 14.6919C122.313 14.4048 122.97 14.2613 123.73 14.2613C124.49 14.2613 125.044 14.3843 125.599 14.6509C126.133 14.9174 126.585 15.266 126.954 15.717C127.324 16.1681 127.591 16.6807 127.776 17.2753C127.96 17.8699 128.063 18.5055 128.063 19.1821C128.063 19.8587 128.063 19.3256 128.063 19.4076C128.063 19.4896 128.063 19.5511 128.063 19.6127H119.952L119.931 19.5511ZM127.324 18.9155C127.303 18.362 127.201 17.8494 127.057 17.3573C126.893 16.8652 126.667 16.4346 126.359 16.0656C126.051 15.6965 125.681 15.4095 125.25 15.1839C124.819 14.9584 124.305 14.8559 123.751 14.8559C123.196 14.8559 122.621 14.9789 122.169 15.2044C121.718 15.43 121.327 15.7375 121.019 16.1066C120.711 16.4756 120.465 16.9062 120.301 17.3983C120.136 17.8904 120.034 18.403 119.993 18.9155H127.344H127.324Z" fill="black"/>
<path d="M54.9563 13.4001C55.0795 10.2426 54.7098 8.56137 52.4098 5.99846C50.1098 3.43555 50.0072 2.08233 49.7197 1.2417C49.4322 0.401064 49.6991 1.20069 49.6991 1.20069C49.6991 1.20069 48.2 2.26686 47.625 5.15783C47.4197 6.20349 47.5634 7.22866 47.5634 7.22866L46.3313 5.28085C46.3313 5.28085 43.2715 8.84842 44.709 13.3796C44.75 13.5232 47.1116 14.3843 49.4732 14.3228C51.8348 14.2613 54.9563 13.6462 54.9768 13.3796L54.9563 13.4001Z" fill="black"/>
<path d="M55.4491 14.6918C53.9295 15.0404 51.2804 15.4299 49.3911 15.4915C47.2349 15.553 45.1197 15.0404 43.9697 14.6508C43.8876 14.7123 43.8054 14.7943 43.7233 14.8764C43.1483 15.5325 43.2304 16.5166 43.867 17.0702C44.401 17.5418 45.2224 17.9108 46.2081 18.1774L46.4135 19.059C46.126 18.8745 45.7563 18.9155 45.5099 19.182C45.2224 19.4691 45.2429 19.9407 45.5304 20.2072C45.8385 20.4943 46.2903 20.7403 46.8242 20.9248L47.1117 22.1755C46.9269 22.1755 46.742 22.2165 46.6188 22.3601C46.3724 22.6061 46.3929 22.9957 46.6188 23.2417C46.8242 23.4262 47.0911 23.5903 47.4402 23.7338L49.7813 34.1905L52.0197 23.6313C52.2661 23.5082 52.492 23.3852 52.6358 23.2212C52.8822 22.9752 52.8822 22.5856 52.6358 22.3396C52.5536 22.2575 52.4304 22.196 52.3277 22.1755L52.6152 20.8633C53.0875 20.6788 53.4777 20.4532 53.7447 20.1867C54.0322 19.8997 54.0322 19.4486 53.7447 19.1615C53.5393 18.9565 53.2518 18.895 53.0054 18.977L53.1902 18.1364C54.1349 17.8698 54.9152 17.5008 55.4286 17.0497C56.0652 16.4756 56.1268 15.4915 55.5518 14.8559C55.5107 14.8148 55.4697 14.7738 55.4081 14.7328L55.4491 14.6918Z" fill="black"/>
</svg>
