<svg width="27" height="27" viewBox="0 0 27 27" fill="none" xmlns="http://www.w3.org/2000/svg">
<circle cx="13.1353" cy="13.1353" r="13.1353" fill="black"/>
<path d="M17.0145 9.94269C17.1052 7.67615 16.838 6.46815 15.2006 4.62404C13.562 2.7787 13.4897 1.8165 13.2813 1.20879C13.2703 1.17668 13.2654 1.18409 13.2654 1.18409C13.2654 1.18409 12.1979 1.94989 11.7959 4.02375C11.6513 4.76856 11.7481 5.51213 11.7481 5.51213L10.8644 4.12009C10.8644 4.12009 8.6804 6.69048 9.71604 9.94269C9.74913 10.0464 11.4184 10.6677 13.1036 10.6183C14.6172 10.5751 17.0047 10.1366 17.0133 9.94269H17.0145Z" fill="white"/>
<path d="M17.37 10.8703C16.2927 11.1248 14.4113 11.4027 13.0583 11.4422C11.5312 11.4867 10.0139 11.1136 9.19761 10.8308C9.13756 10.8765 9.08118 10.9296 9.02971 10.9889C8.62771 11.4545 8.67551 12.1598 9.13633 12.5662C9.52118 12.9046 10.0997 13.1751 10.8081 13.3604L10.9502 13.9965C10.7468 13.8705 10.4771 13.9002 10.3056 14.0805C10.1082 14.2893 10.1156 14.6191 10.3215 14.8179C10.5372 15.0254 10.8571 15.2008 11.2468 15.3342L11.4454 16.2272C11.3179 16.2186 11.188 16.2618 11.0936 16.3619C10.9245 16.5397 10.9306 16.8238 11.1071 16.9943C11.2493 17.1314 11.4503 17.2487 11.693 17.3426L13.3647 24.8524L14.9604 17.2759C15.1406 17.1919 15.2901 17.0943 15.4016 16.9832C15.5757 16.8102 15.5781 16.5274 15.4065 16.3508C15.3428 16.2853 15.2644 16.2445 15.181 16.2272L15.3784 15.2885C15.7191 15.1576 15.9961 14.9945 16.1885 14.8031C16.3919 14.6005 16.3944 14.2707 16.1934 14.0657C16.05 13.9199 15.8429 13.8779 15.6615 13.9385L15.7889 13.332C16.463 13.143 17.0121 12.8762 17.3785 12.5452C17.8345 12.1327 17.8712 11.4261 17.4619 10.9666C17.4312 10.9333 17.3994 10.9024 17.3663 10.8728L17.37 10.8703Z" fill="white"/>
</svg>
