<svg width="144" height="110" viewBox="0 0 144 110" fill="none" xmlns="http://www.w3.org/2000/svg">
<path d="M7.37611 66.497C4.96337 67.3571 2.48168 68.1483 0 68.9395V60.1673H7.37611V66.4626V66.497ZM104.954 62.8849L104.782 62.7473C104.403 62.7473 104.3 62.8849 104.024 62.9193C103.748 63.4353 102.99 63.7105 102.3 64.0202V60.2017H102.473C102.473 60.2705 102.542 60.3049 102.576 60.3393C102.852 60.3393 102.955 60.3049 102.99 60.2017H108.091C107.229 60.8209 106.368 61.4401 105.54 62.0593L105.782 62.1625C105.299 62.3001 105.161 62.6097 104.954 62.8505V62.8849ZM106.023 61.3713C106.264 61.2337 106.023 61.0273 105.713 60.9585C105.472 61.0617 105.575 61.3713 106.023 61.3713ZM104.403 61.9905C103.783 61.9217 103.645 62.3001 103.334 62.4721L104.403 61.9905ZM29.9181 80.9454H30.5385V88.3072H27.1951V94.465C27.1951 100.485 22.2317 105.439 16.1999 105.439H9.23737C9.16844 105.164 8.92716 104.923 8.78929 105.267C8.78929 105.336 8.78929 105.404 8.78929 105.439H5.51485V98.0771H16.1999C18.199 98.0771 19.8535 96.4603 19.8535 94.4306V88.2728H0V70.2811C2.79189 69.8339 4.96337 69.0083 7.37611 68.1827V73.1364C7.20377 72.6892 7.03143 72.242 6.23867 72.1388C6.13527 72.3108 6.23867 72.6204 5.79059 72.6204C5.85953 73.2052 6.37654 73.5148 7.41058 73.5836V80.911H19.8535V67.9763L20.922 67.4947C20.5773 67.6323 20.2326 67.7355 19.8535 67.8731V63.8138H27.2296C26.0232 64.3642 24.9202 64.949 24.0241 65.637L27.2296 63.9514V67.4259C26.9883 67.2539 26.7126 67.1162 26.4713 67.0474V69.8683C26.7815 69.8683 27.0228 69.8683 27.2296 69.8683V71.1068C26.816 71.4852 26.1266 72.242 27.2296 72.3452V80.8422H29.7802L25.127 83.5943C23.6449 84.4199 22.1628 85.2799 20.6118 86.2776L25.127 83.5943C26.747 82.6999 28.3325 81.8055 29.9181 80.8422V80.9454ZM22.8866 71.8292C23.6794 72.07 24.0585 71.9324 24.7134 71.9668L22.8866 71.8292ZM21.7492 73.6524C20.7152 73.2052 24.4721 74.8565 21.7492 73.6524V73.6524ZM20.8186 83.6287C22.9556 83.8007 22.6454 82.8375 22.1973 82.6655C22.3351 83.3191 20.4394 82.8719 20.8186 83.6287ZM21.0943 85.5208C22.7832 85.0047 22.9211 84.1103 21.7492 84.4543C21.5424 84.5231 21.9215 85.0735 21.7492 85.1767C19.9224 86.0368 20.7152 85.624 21.0943 85.5208ZM6.58335 69.1803L6.79016 69.2835C6.89356 69.2147 6.79016 69.2147 6.58335 69.1803L5.79059 68.8019C4.51528 69.2491 5.9974 69.1459 6.58335 69.1803ZM4.41188 70.4875C5.65272 70.6595 5.30804 69.9715 5.79059 69.7651C4.54975 69.5931 4.89443 70.2811 4.41188 70.4875ZM3.72252 75.4413C2.41275 74.7877 3.06763 76.2325 3.72252 75.4413V75.4413ZM1.65445 73.4116C0.482549 74.478 3.30891 74.7877 1.65445 73.4116V73.4116ZM2.58509 76.8173C3.03317 77.3333 5.61825 76.4045 4.41188 76.0949C4.61869 76.7829 2.72296 76.3357 2.58509 76.8173ZM3.03317 87.0344C4.27401 87.0344 3.9638 87.4472 4.85996 87.0344C5.20464 86.1056 2.68849 86.1056 3.03317 87.0344ZM7.13484 85.5896C5.68719 85.4864 5.27357 85.8992 4.85996 86.312C6.44548 86.5184 6.85909 86.0712 7.13484 85.5896ZM10.3403 83.6287C9.13397 83.6975 11.4778 82.6999 9.47865 82.9063C9.40971 82.8031 9.34078 82.7343 9.23737 82.6655C8.68589 82.5967 7.72079 82.3559 7.41058 82.7343C7.41058 82.7343 7.41058 82.8031 7.37611 82.8375L9.51311 83.2159C9.40971 83.5599 8.031 83.2159 8.51355 83.9039C9.20291 83.8695 10.2025 84.0071 10.3403 83.6631V83.6287ZM17.165 87.7568C17.0616 87.8944 17.3373 88.2728 17.6131 88.2384C18.0267 88.204 17.8543 86.8968 17.165 87.7568ZM19.1641 101.38L15.9931 102.652C15.1314 102.893 14.2697 103.1 13.6493 103.512C13.6493 103.512 13.6493 103.581 13.6493 103.616L15.9931 102.652C17.1994 102.343 18.4403 102.033 19.1641 101.38ZM27.0917 84.4543C27.264 83.9727 26.6781 83.0783 26.4368 83.7319C26.2645 84.2135 26.8504 85.1079 27.0917 84.4543ZM22.5075 100.313H21.6113C21.5424 100.554 19.6811 100.967 20.7152 101.036C21.3011 100.795 22.3696 100.829 22.473 100.313H22.5075ZM24.2653 100.072C23.3692 100.072 23.7139 99.4187 22.5075 99.5907C22.0594 100.176 23.9896 100.623 24.2653 100.072ZM25.4028 87.0344C24.679 87.0344 23.8173 87.0344 24.0241 87.516C24.8168 87.516 25.196 87.344 25.4028 87.0344ZM27.6777 87.9976C27.6432 87.3784 26.8504 87.1376 26.2989 86.7936C26.1955 87.4816 26.23 88.1352 27.6777 87.9976ZM44.9805 71.3476H44.4979C40.4997 71.3476 37.0184 73.446 35.0882 76.6109C37.0529 75.7165 39.1899 74.8909 40.0171 73.4116C40.8788 73.3084 41.1546 72.8956 42.292 72.93L42.809 73.3084C43.395 72.6204 43.8086 71.7948 44.9805 71.3476ZM126.6 98.1115H130.254V105.473H128.634C128.462 105.129 128.186 104.82 127.807 104.476C127.703 104.751 127.669 105.095 127.669 105.473H126.6C124.567 105.473 122.636 105.026 120.879 104.235C120.879 104.2 120.81 104.2 120.741 104.166C120.672 104.166 120.637 104.097 120.568 104.097C120.879 104.097 120.948 103.925 120.982 103.753H120.741C120.982 103.684 121.051 103.616 121.051 103.547L120.741 103.788L120.81 103.65C120.603 103.65 120.672 103.512 120.499 103.478L120.431 103.616C120.362 103.512 120.224 103.444 120.12 103.375H120.362C120.396 103.272 120.086 102.928 119.914 103.168C120.362 103.203 119.672 103.306 119.776 103.409C119.982 103.409 119.982 103.512 120.224 103.478L120.155 103.34L120.465 103.581H120.224C119.81 103.581 119.741 103.444 119.569 103.478C115.502 101.07 112.779 96.6323 112.779 91.6097V90.0961H109.711V105.783C109.47 106.093 109.435 106.677 109.711 107.297V107.365V109.051H103.3C103.231 109.051 103.197 109.051 103.128 109.051H102.369V105.68H102.645C102.783 105.542 102.576 105.508 102.369 105.508V96.8387C102.438 96.9075 102.576 96.9419 102.473 97.1139C102.99 97.1483 103.231 96.6667 102.921 96.5291C102.817 96.6323 102.611 96.6667 102.335 96.7011V94.9122C102.473 94.809 102.576 94.7058 102.68 94.6026C102.68 94.6026 102.749 94.6026 102.783 94.637C102.852 94.6026 103.059 94.3962 102.852 94.3274C103.162 94.3274 103.162 94.4306 103.3 94.4994C103.3 94.4994 103.334 94.465 103.369 94.4306L103.645 94.4994L103.92 94.3962C103.817 94.3962 103.714 94.465 103.645 94.4994C103.576 94.4994 103.472 94.465 103.369 94.4306C104.024 93.949 104.058 93.3986 104.851 93.089C104.644 92.8482 104.679 92.6762 104.989 92.5042L105.058 92.3665H105.299C105.23 92.0569 105.644 92.4353 106.057 92.3321C106.057 92.2289 106.057 92.0913 105.92 92.0913C106.747 91.8505 107.16 91.2313 106.988 90.9217C107.126 90.9217 107.16 90.9905 107.126 91.0937C107.436 90.8529 107.712 90.5777 108.022 90.3369L108.16 90.4057L109.918 89.2361H109.573C109.677 89.0641 109.918 88.9264 110.366 88.9264C110.366 88.9264 111.745 85.1079 113.502 85.3487C114.192 85.5208 114.433 85.2111 114.123 84.9359C114.95 84.7639 115.295 83.8695 115.812 83.4567H115.674V83.3879C115.674 83.2847 115.467 83.3191 115.536 83.4567C115.329 83.4567 115.364 83.2847 115.226 83.2159C114.985 83.3535 114.778 83.5255 114.605 83.6975C114.605 83.6287 114.537 83.5255 114.502 83.4911C114.33 83.6975 114.502 83.6975 114.192 83.9039C114.226 83.9039 114.295 83.9383 114.33 83.9727C114.192 84.1103 114.088 84.2479 113.951 84.3511V84.1791H113.675C113.675 84.3167 113.778 84.3855 113.916 84.4199C113.64 84.6607 113.365 84.8671 112.917 85.0047V85.1767L112.848 85.0391L111.228 86.3808C111.434 86.2432 111.607 86.1056 111.814 86.1744C111.641 86.312 111.469 86.4496 111.297 86.5872C111.228 86.5872 111.124 86.5872 111.021 86.5872V86.5184H110.986L110.711 86.7592V86.828C110.676 86.828 110.642 86.828 110.573 86.828L109.814 87.4472L106.368 89.7865L107.126 90.0617C106.54 90.5433 105.885 90.9905 105.196 91.4377C105.058 91.7129 104.748 92.0225 104.369 92.2977C104.334 92.2977 104.3 92.2289 104.196 92.1945C104.024 92.2289 103.128 92.1945 103.162 92.6074C103.403 92.6762 103.679 92.6762 103.886 92.6418C103.369 92.9858 102.783 93.3298 102.404 93.5706C102.3 93.6394 102.232 93.7082 102.197 93.777V80.567C102.3 80.6014 102.3 80.739 102.369 80.8078C102.611 80.8078 102.817 80.7734 102.921 80.6358C102.749 80.4982 102.404 80.2574 102.197 80.5326V64.7082C102.645 64.5018 103.093 64.2954 103.438 64.0546C103.645 64.0546 103.645 64.1578 103.886 64.1234C103.989 63.9858 103.955 63.7794 104.196 63.7106C104.231 63.8482 104.541 63.7794 104.644 63.7106L104.575 63.5729L104.954 63.6761C104.851 63.6417 104.713 63.5729 104.575 63.5729L104.817 63.4697C104.644 63.0913 105.23 63.1601 105.127 62.8161H104.851C104.851 62.8505 105.678 62.1625 105.678 62.1625L105.609 62.3001C105.851 62.3001 105.713 62.5409 105.92 62.5409C106.816 61.6465 108.091 60.9585 109.16 60.1673H109.539V63.4697H109.16C109.16 63.4697 109.228 63.5041 109.263 63.5385C109.332 63.5385 109.435 63.5385 109.539 63.5385V82.8031H120.396C120.603 83.4567 121.223 83.8351 121.43 83.4911C121.74 82.9751 122.051 82.4247 122.326 81.8399C122.326 81.8055 122.326 81.6334 122.292 81.4614C122.085 81.3582 121.844 81.255 121.637 81.1518V76.6109L124.222 75.4069C124.325 75.5101 124.429 75.5789 124.498 75.5789C124.739 75.5445 124.842 75.1317 124.705 74.6501C124.636 74.4436 124.567 74.2372 124.463 74.134C124.532 74.134 124.636 74.134 124.705 74.0996C124.842 73.6524 124.394 73.4116 123.774 73.618C123.774 73.8588 123.877 73.9964 124.084 74.0996C123.981 74.2716 123.946 74.6845 124.015 75.0629C124.015 75.2005 124.119 75.3381 124.188 75.4413C123.257 75.7853 122.292 76.1293 121.602 76.5765V73.1708C121.706 73.0676 121.775 72.93 121.844 72.8268C121.74 72.8268 121.671 72.8268 121.602 72.8268V71.3132H128.979V77.7461L128.013 78.1245C127.703 78.1933 127.427 78.2966 127.221 78.3998C127.221 78.3998 127.221 78.3998 127.221 78.4342L128.013 78.1245C128.358 78.0213 128.703 77.9525 128.979 77.7805V79.191C128.91 79.191 128.875 79.191 128.875 79.2942C128.875 79.2942 128.944 79.2942 128.979 79.2942V90.0961H123.533C123.429 89.8553 123.188 89.6833 123.085 89.7521C122.947 89.8553 122.843 89.9585 122.705 90.0961H119.879V91.6097C119.879 91.9881 119.914 92.3321 119.982 92.6762V92.7449C119.845 92.8482 119.672 92.917 119.5 92.9858C119.5 92.8826 119.534 92.7794 119.569 92.7105C119.431 92.2289 119.224 91.9881 119.086 92.0569C118.914 92.1257 118.845 92.5386 118.948 92.7794C119.017 92.917 119.086 93.0202 119.19 93.089C118.776 93.2266 118.362 93.3642 118.259 93.6738L118.466 93.777L118.569 93.9146C118.776 93.9146 118.811 93.777 119.017 93.7426L118.948 93.5362L119.293 93.777C119.19 93.6738 119.052 93.605 118.948 93.5362H119.328C119.328 93.5706 119.948 92.7449 119.948 92.7449C119.948 92.7449 119.948 92.7449 119.982 92.7105C120.155 93.7426 120.568 94.6714 121.154 95.4626H121.085H121.189C122.361 97.0451 124.256 98.0771 126.393 98.0771L126.6 98.1115ZM128.772 73.3084C128.91 73.3084 128.841 72.8612 128.599 73.1364C128.565 73.1708 128.668 73.3084 128.772 73.3084ZM125.773 79.0878C125.739 79.191 125.876 79.3974 125.911 79.2598C125.945 79.1566 125.808 78.9502 125.773 79.0878ZM125.98 76.1981C125.945 76.2325 125.601 76.5077 125.98 76.5421C125.773 76.3701 126.393 76.2325 125.98 76.1981ZM125.773 75.3037V75.9573C126.462 76.0261 126.118 75.4069 125.773 75.3037ZM127.048 85.0047H126.428V85.1767H127.048V85.0047ZM127.979 73.5492L126.256 74.4436C125.842 74.6156 125.463 74.7877 125.187 74.9941L126.256 74.4436C126.91 74.1684 127.565 73.962 127.979 73.5492ZM125.29 71.4508L126.014 71.5884C125.98 71.6916 125.532 71.5884 125.67 71.8292C125.911 71.8292 126.256 71.8292 126.29 71.7604C125.876 71.7604 126.669 71.4508 126.014 71.5196C126.014 71.5196 125.98 71.4508 125.945 71.4508C125.773 71.4508 125.428 71.3476 125.325 71.4508H125.29ZM123.808 72.8956C124.222 72.8956 124.119 73.0332 124.429 72.8956C124.567 72.586 123.705 72.586 123.808 72.8956ZM125.222 72.414C124.739 72.3796 124.601 72.5172 124.463 72.6548C124.98 72.7236 125.153 72.586 125.222 72.414ZM124.567 79.4662C124.946 79.363 124.98 79.1566 124.705 79.2254C124.67 79.2254 124.739 79.363 124.705 79.3974C124.291 79.6038 124.463 79.5006 124.567 79.4662ZM122.223 79.9478C122.154 80.1198 121.878 80.4638 122.326 80.4294C122.326 80.1542 122.499 80.0854 122.223 79.9478ZM123.843 79.0534C123.843 79.0878 123.912 79.0878 123.981 79.0878L124.05 79.019C124.015 79.019 123.946 79.019 123.843 79.019V79.0534ZM122.843 79.6726C122.981 80.223 123.222 80.4638 123.464 80.3262C123.567 80.2574 123.636 80.1198 123.671 79.9134C123.981 79.9134 124.119 79.7758 124.153 79.6038C123.843 79.6038 123.774 79.7414 123.671 79.8446C123.671 79.7758 123.671 79.6726 123.671 79.6038C123.533 79.1566 123.257 78.847 123.05 78.9158C122.878 78.9846 122.809 79.2942 122.912 79.6382L122.843 79.6726ZM120.81 85.5896C121.016 85.5896 121.12 85.6927 121.43 85.6583C121.465 85.4175 120.844 85.3487 120.81 85.5896ZM102.714 83.0439C102.714 82.9407 102.68 82.8375 102.404 82.8719C102.404 82.9751 102.404 83.1127 102.542 83.1127C102.542 83.0783 102.542 83.0095 102.68 83.0439H102.714ZM102.955 87.2752C102.921 87.2064 102.852 87.1376 102.817 87.0688C102.817 87.1376 102.714 87.172 102.714 87.2408C102.714 87.3096 102.783 87.4128 102.817 87.516C102.852 87.4472 102.921 87.3784 102.955 87.3096V87.2752ZM103.714 64.3298C103.541 64.8114 104.369 64.3298 103.714 64.3298V64.3298ZM103.714 65.3274C103.92 65.3274 104.024 65.4306 104.334 65.3962C104.575 65.1554 103.679 65.1554 103.714 65.3274ZM104.748 83.0439C104.575 83.5255 105.403 83.0439 104.748 83.0439V83.0439ZM105.575 88.9953C105.506 88.9953 105.471 88.9264 105.403 88.9264C105.403 88.9952 105.403 89.0985 105.403 89.1673C105.403 89.1673 105.471 89.2361 105.471 89.2017C105.471 89.1329 105.506 89.0641 105.506 88.9953H105.575ZM108.953 62.3689C109.297 62.4377 109.573 62.0593 109.263 62.0249C109.263 62.1969 108.849 62.1281 108.953 62.3689ZM106.333 65.3962C106.299 65.5682 106.368 65.7058 106.643 65.7402C106.885 65.6026 106.816 65.3618 106.333 65.3962ZM107.884 62.4377C107.953 62.5409 107.712 62.8505 108.057 62.8505C108.263 62.7473 108.126 62.5409 107.884 62.4377ZM108.505 67.1162C108.918 66.9442 108.918 66.6346 109.022 66.3938L108.505 67.1162ZM109.366 73.6524H108.918C108.987 73.8588 108.643 73.8244 108.78 74.0652C109.194 74.0652 109.297 73.8588 109.401 73.6524H109.366ZM109.539 72.6548C109.263 72.414 108.711 72.8956 109.091 72.9988C108.953 72.7236 109.608 72.8956 109.539 72.6548ZM111.607 84.9359L111.09 84.8671C111.228 84.9359 111.365 85.0047 111.607 84.9359ZM113.089 84.1447C113.02 84.1447 112.985 84.1447 112.917 84.1791L113.089 84.1103V84.1447ZM113.916 83.2847C113.916 83.2847 113.882 83.3535 113.847 83.3879L113.916 83.2847ZM102.955 108.879C102.783 108.81 102.611 108.741 102.507 108.707L102.955 108.879ZM107.367 96.2195C108.022 96.3571 107.54 95.7034 107.367 96.0474C107.54 96.0474 107.471 96.1507 107.367 96.2195ZM107.229 97.2859C107.367 97.2859 107.402 97.3547 107.54 97.3547C107.54 97.2859 107.677 97.2515 107.677 97.1827C107.54 97.1827 107.505 97.1139 107.367 97.1139C107.367 97.1827 107.264 97.2171 107.229 97.2859ZM106.816 98.1115C107.023 98.1115 107.16 98.1115 107.195 97.9395C106.988 97.9395 106.85 97.9395 106.816 98.1115ZM106.299 95.2218C106.954 95.2906 107.264 94.6714 106.747 94.637C106.609 94.8434 106.126 94.8434 106.299 95.2218ZM105.437 96.6323H105.506L105.471 96.5291V96.6323H105.437ZM103.679 96.5979C103.748 96.5979 103.783 96.5291 103.817 96.4603C104.265 96.4603 104.644 96.4603 104.575 96.2195C104.369 96.2195 104.369 96.1162 104.127 96.1506C104.231 96.3226 103.955 96.3227 103.852 96.4259C103.92 96.2539 103.92 95.9786 103.852 95.669C103.852 95.6002 103.817 95.5314 103.783 95.4626C103.886 95.4626 103.989 95.4626 104.127 95.5314C104.058 95.2906 103.886 95.1186 103.817 94.8778L103.645 94.7402C103.817 94.809 103.955 94.8434 104.058 94.9122C104.196 94.9122 104.3 94.9122 104.437 94.9122C104.575 94.8778 104.679 94.8434 104.782 94.809C104.954 94.6714 104.886 94.5338 104.92 94.3962L105.437 94.2586C105.299 94.2586 105.127 94.2586 105.023 94.2586C104.954 94.293 104.954 94.3274 104.92 94.3618L103.645 94.7058H103.334C103.197 94.9466 102.3 94.809 102.404 95.1874C103.024 95.0842 102.852 95.3938 102.852 95.6002C102.852 95.6002 102.886 95.6002 102.921 95.6002C103.024 96.2195 103.369 96.6667 103.61 96.6323L103.679 96.5979ZM104.989 98.0083C104.989 98.0427 104.989 98.1115 104.851 98.0771V98.2491C105.23 98.3867 105.299 97.9739 104.989 98.0083ZM104.127 100.932C104.024 100.726 103.989 100.52 103.507 100.52C103.472 100.623 103.266 100.657 103.197 100.76C103.817 100.726 103.059 100.967 103.645 101.001C103.645 100.898 103.886 100.898 104.093 100.932H104.127ZM104.679 99.2123C104.196 99.1435 104.472 99.4875 104.231 99.5219C104.61 99.5219 104.61 99.3499 104.679 99.2123ZM104.748 99.9347H105.058V99.7627H104.748V99.9347ZM105.506 101.999C105.23 101.999 105.127 102.068 105.058 102.171C105.334 102.171 105.472 102.102 105.506 101.999ZM106.057 102.962C106.057 102.824 105.954 102.756 105.747 102.721C105.747 102.859 105.851 102.928 106.057 102.962ZM106.747 108.157C106.471 108.157 106.264 108.157 106.126 108.088C106.126 108.294 106.368 108.329 106.574 108.432C106.574 108.329 106.643 108.26 106.747 108.191V108.157ZM106.781 100.382C106.333 100.623 106.437 101.173 106.437 101.586L106.781 100.382ZM107.229 102.308C106.988 102.308 107.126 102.068 106.919 102.068C106.781 102.24 107.16 102.515 107.229 102.308ZM107.229 107.4L107.057 107.709C107.023 107.744 106.988 107.778 106.988 107.813L107.057 107.709C107.16 107.606 107.298 107.537 107.229 107.4ZM107.746 98.1115C107.471 98.2147 107.229 98.3179 106.954 98.4211C106.954 98.3867 106.885 98.3179 106.747 98.2835C106.747 98.4211 106.609 98.4899 106.299 98.4555C106.299 98.5243 106.299 98.6275 106.299 98.6963C105.989 98.7995 105.713 98.9371 105.403 99.0403L106.299 98.6963C106.299 98.7307 106.333 98.7651 106.437 98.7995C106.506 98.6963 106.919 98.5931 106.954 98.4555L107.746 98.1459V98.1115ZM107.85 96.5979L108.194 96.3915C108.057 96.4259 107.953 96.5291 107.85 96.5979L107.574 96.7355C107.677 96.7011 107.746 96.6323 107.85 96.5979ZM108.298 98.4555C107.884 98.0771 108.746 98.1115 108.298 98.4555V98.4555ZM108.918 106.505L109.16 106.333C109.022 106.333 108.987 106.437 108.918 106.505ZM109.401 107.778H109.228C109.228 107.847 109.16 107.881 109.125 107.95C109.263 107.95 109.332 107.985 109.401 108.019V107.778ZM109.642 99.2811H109.332V99.4531H109.642V99.2811ZM113.089 87.8256C113.089 87.86 113.227 87.9288 113.227 87.8256C112.882 87.7568 112.813 87.5504 112.468 87.4816C112.4 87.7912 112.262 87.86 112.779 87.9632C112.779 87.86 112.951 87.8256 113.089 87.7912V87.8256ZM113.089 88.5824C113.054 88.6168 112.71 88.892 113.089 88.9264C113.123 88.892 113.468 88.6168 113.089 88.5824ZM115.26 86.656C114.778 86.9312 115.846 86.8968 115.26 86.656V86.656ZM116.26 95.8754C116.26 95.7378 116.191 95.6002 116.157 95.4626C116.088 95.5314 116.019 95.6002 116.019 95.6002C116.019 95.7378 116.122 95.841 116.157 95.9786C116.191 95.9442 116.26 95.9098 116.26 95.841V95.8754ZM117.57 88.4104C117.397 88.4104 117.122 88.4104 117.122 88.4792C117.328 88.4792 117.397 88.6168 117.57 88.6512V88.4104ZM119.121 102.652C119.017 102.652 118.879 102.618 118.742 102.618H119.121V102.652ZM120.465 96.6323L119.982 96.7011C120.189 96.7011 120.362 96.7011 120.465 96.6323ZM120.637 102.618C120.603 102.24 120.431 101.964 120.258 101.93C120.12 101.896 120.017 102.136 120.051 102.412C120.086 102.652 120.293 102.928 120.431 102.893C120.534 102.893 120.568 102.687 120.637 102.618ZM121.292 102.721C120.603 102.652 120.672 102.996 120.534 103.203H121.154C121.292 102.928 121.154 102.996 121.292 102.721ZM122.223 103.306C121.809 103.306 121.568 103.306 121.602 103.547C121.878 103.684 122.223 103.547 122.223 103.306ZM126.152 101.586C126.083 101.517 125.945 101.311 125.808 101.242C125.601 101.173 125.532 101.483 125.601 101.827C125.67 102.171 125.876 102.446 126.049 102.412C126.221 102.343 126.29 102.068 126.187 101.586H126.152ZM127.048 101.208C127.083 101.345 127.186 101.483 127.255 101.517C127.393 101.586 127.462 101.38 127.393 101.036C127.324 100.967 127.221 100.76 127.117 100.76C126.979 100.76 126.945 100.967 127.014 101.208H127.048ZM143.765 63.5729L143.662 63.6418H143.765C143.765 63.6418 143.765 63.6073 143.765 63.5729ZM97.1303 65.0178C97.1303 67.6667 94.9244 69.8683 92.2703 69.8683C89.6163 69.8683 88.8235 68.8019 88.0308 67.2539C88.0997 67.2539 88.2031 67.2539 88.2376 67.1851C88.1342 67.1851 88.0653 67.1851 87.9963 67.1851C87.6861 66.5314 87.5138 65.8434 87.5138 65.0866C87.5138 64.3298 87.824 63.1601 88.341 62.4033L89.0993 62.1281C88.858 62.1969 88.6167 62.3001 88.3755 62.3689C89.2372 61.1305 90.6848 60.3049 92.3048 60.3049C93.9248 60.3049 93.0976 60.3737 93.4767 60.4425C92.2014 60.9241 90.8227 61.3369 89.5129 61.7841L89.7542 61.8873L89.6852 62.0249C91.581 61.9217 92.615 61.2337 94.3384 60.8209C94.3384 60.8209 94.3384 60.7865 94.3729 60.7521C95.9929 61.5089 97.1303 63.1601 97.1303 65.0522V65.0178ZM94.7865 64.777C94.9933 64.8114 95.1656 64.8802 95.3724 64.949C95.3724 64.8458 95.4414 64.777 95.5103 64.7082C95.5448 64.6394 95.5103 64.5362 95.3724 64.433C95.269 64.5706 95.269 64.6394 95.269 64.7082C95.0277 64.7082 94.7865 64.6738 94.7865 64.777ZM92.9941 66.0842L93.718 66.2218C93.6835 66.325 93.2354 66.2218 93.3733 66.4626C93.6146 66.4626 93.9593 66.4626 93.9937 66.3938C93.5801 66.3938 94.3729 66.0842 93.718 66.153C93.718 66.153 93.6835 66.0842 93.649 66.0842C93.4767 66.0842 93.132 65.981 93.0286 66.0842H92.9941ZM93.0286 63.0225C92.9252 62.8505 92.9252 62.5753 92.5805 62.5409C92.5805 62.6097 92.5805 62.7129 92.4427 62.7129C92.4427 62.9193 92.6839 63.0225 93.0631 63.0569L93.0286 63.0225ZM92.7529 61.5089C92.9942 61.4057 92.9252 61.1649 92.4082 61.3713C91.8223 61.5777 92.8908 61.4401 92.7529 61.5089ZM91.9601 61.9561C92.3737 62.0249 92.2703 61.7841 92.4082 61.7153C91.9946 61.6465 92.098 61.8873 91.9601 61.9561ZM91.7188 63.6073C91.2708 63.4009 91.512 63.8826 91.7188 63.6073V63.6073ZM89.8231 64.8458C88.9959 64.8458 88.8235 64.4674 88.1687 64.3642C88.1687 64.5706 88.1687 64.7426 88.0308 64.8458C88.4444 64.8458 88.5478 64.9146 88.7891 65.1554C88.9959 65.1554 89.444 64.9834 89.8231 64.8458ZM91.0295 62.9193C90.6503 63.2977 91.581 63.4009 91.0295 62.9193V62.9193ZM91.3397 64.089C91.4776 64.261 92.3737 63.9514 91.9601 63.8482C92.0291 64.089 91.3742 63.917 91.3397 64.089ZM91.4776 67.5635C91.8912 67.5635 91.7878 67.7011 92.098 67.5635C92.2359 67.2538 91.3742 67.2538 91.4776 67.5635ZM91.6499 68.2859C91.581 68.6987 92.0291 68.9395 92.5805 68.7675C92.7184 68.3203 92.2703 68.0795 91.6499 68.2859ZM92.8907 67.0474C92.4082 67.013 92.2703 67.1506 92.1325 67.2882C92.6495 67.357 92.8218 67.2194 92.8907 67.0474ZM95.6826 68.2171L93.9593 69.1115C93.5456 69.2835 93.1665 69.4555 92.8907 69.6619L93.9593 69.1115C94.6141 68.8363 95.269 68.6299 95.6826 68.2171ZM96.5099 99.0747H96.8545L96.7856 98.9371C96.6822 98.9371 96.5443 99.0059 96.5099 99.0747ZM132.873 71.3476H143.938V72.3108C143.731 72.4828 143.662 72.93 143.662 73.3772C143.11 73.3428 143.386 73.8588 143.593 73.6524C143.283 73.6524 143.489 73.5836 143.662 73.5148C143.662 73.8932 143.765 74.2716 143.869 74.5124C143.869 74.5468 143.903 74.5812 143.938 74.6156V94.8778C143.662 94.8434 143.455 95.0154 143.317 95.3594C143.076 95.9786 143.145 96.2883 143.593 96.9075C143.765 97.1139 143.869 97.2171 143.972 97.1483V102.584C143.765 102.446 143.593 102.412 143.386 102.446C142.904 102.549 142.421 102.584 141.87 102.24C141.801 102.205 141.697 102.343 141.697 102.446C141.697 102.549 141.697 102.756 141.766 102.928C141.801 103.065 141.904 103.237 141.973 103.34C142.387 103.822 142.766 104.304 143.179 104.785C143.421 104.613 143.593 104.372 143.834 104.269C143.869 104.269 143.938 104.235 143.972 104.235V105.508H136.665V100.313C136.803 100.21 136.975 100.107 137.147 100.038C137.458 99.9004 137.733 99.7283 137.94 99.3499C138.078 99.1435 138.216 98.9715 138.423 98.9027C138.664 98.7995 138.905 98.6963 139.112 98.5931C139.388 98.4899 139.595 98.2491 139.767 97.9051C139.836 97.7675 139.767 97.4235 139.629 97.3203C139.56 97.2515 139.457 97.1827 139.388 97.1827C139.112 97.1827 138.836 97.1827 138.561 97.2515C138.492 97.2515 138.423 97.4235 138.388 97.5267C138.354 97.6299 138.319 97.7675 138.285 98.0083C138.181 97.7331 138.147 97.6643 138.113 97.5611C138.078 97.4235 138.044 97.2859 138.009 97.1827C137.906 96.9075 137.699 96.8387 137.63 97.0451C137.595 97.1827 137.561 97.3547 137.527 97.5267C137.527 98.3179 137.216 98.6963 136.768 98.7651C136.734 98.7651 136.699 98.7651 136.665 98.7651V87.4472L136.872 87.344L136.975 87.4816C138.078 86.8968 139.147 86.2776 140.077 85.5896H139.801L140.146 85.3831C140.318 85.2799 140.525 85.1767 140.663 85.0391L140.146 85.3831C140.008 85.452 139.87 85.5208 139.801 85.624L139.629 85.5208C138.423 85.7272 138.285 86.484 137.147 86.5184V87.1032C136.872 87.1032 136.768 87.172 136.699 87.2752L136.906 87.3784C136.837 87.4128 136.768 87.4472 136.699 87.4816V82.8031V78.675H132.908V75.3725C132.977 75.4757 133.046 75.5445 133.08 75.5445C133.149 75.5445 133.218 75.4069 133.356 75.2349C133.184 75.0629 133.08 74.8909 133.046 74.9253C132.977 74.9597 132.942 75.0629 132.908 75.1317V71.3476H132.873ZM136.872 88.9953C136.975 89.0297 137.078 89.0641 137.182 89.0641L136.872 88.9953ZM137.354 91.8161C137.458 91.5065 136.906 91.5065 136.906 91.7473C137.113 91.7473 137.251 91.7473 137.354 91.8161ZM137.733 94.809C137.699 94.5338 137.527 94.293 137.389 94.293C137.251 94.293 137.147 94.5338 137.182 94.7746C137.216 95.0154 137.389 95.2562 137.527 95.2906C137.664 95.2906 137.768 95.0842 137.733 94.809ZM138.216 91.4721L137.664 91.5409C137.871 91.5409 138.044 91.5409 138.216 91.4721ZM138.974 88.6168H138.526C137.837 89.1673 138.905 89.2017 138.974 88.6168ZM139.078 91.0937C139.009 90.9217 138.492 90.9905 138.526 91.1625C138.767 91.0937 139.078 91.4377 139.078 91.0937ZM137.354 104.82C137.32 104.785 137.251 104.716 137.216 104.716C137.216 104.716 137.182 104.854 137.147 104.957C137.216 104.992 137.285 105.06 137.32 105.06C137.32 105.06 137.32 104.923 137.354 104.854V104.82ZM138.457 103.306C138.423 103.203 138.285 103.168 138.181 103.1C138.181 103.272 138.147 103.34 138.147 103.444C138.147 103.581 138.285 103.684 138.388 103.616C138.492 103.581 138.526 103.444 138.457 103.272V103.306ZM140.353 104.235C140.25 103.925 140.043 103.719 139.87 103.822C139.732 103.891 139.698 104.2 139.801 104.441C139.905 104.716 140.043 104.888 140.181 104.888C140.353 104.888 140.422 104.544 140.353 104.235ZM140.594 97.0107C140.594 96.9763 140.525 96.9075 140.525 96.8731C140.456 96.8731 140.422 96.8731 140.387 96.8731C140.387 96.9419 140.318 97.0107 140.353 97.0107C140.353 97.0795 140.422 97.1827 140.491 97.2171C140.525 97.2171 140.594 97.2171 140.629 97.1483C140.629 97.1483 140.629 97.0451 140.629 97.0107H140.594ZM143.627 82.8375L143.869 82.4935C143.765 82.5967 143.662 82.6999 143.627 82.8375ZM139.25 80.1886C139.181 80.2918 139.147 80.395 139.147 80.567C139.491 80.6358 139.491 80.1886 139.25 80.1886ZM140.698 81.255C140.525 81.255 140.491 81.1518 140.353 81.1862V81.427C140.491 81.427 140.594 81.5302 140.629 81.427C140.56 81.427 140.525 81.427 140.525 81.3582C140.594 81.3582 140.698 81.3582 140.698 81.2894V81.255ZM141.559 80.051H140.767C141.042 80.051 141.318 80.1198 141.559 80.051ZM141.18 96.8043V96.8731C141.284 96.8043 141.421 96.7355 141.525 96.6667C141.525 96.6667 141.525 96.6323 141.49 96.5979C141.387 96.6667 141.249 96.7355 141.146 96.8043H141.18ZM141.594 99.5563C141.594 99.3155 141.421 99.1435 141.318 99.1779C141.18 99.1779 141.146 99.3843 141.215 99.6251C141.284 99.9004 141.421 99.9692 141.525 99.9004C141.594 99.866 141.628 99.6939 141.594 99.5563ZM142.662 95.841C142.662 95.841 142.593 95.7722 142.559 95.7722C142.559 95.8066 142.524 95.8754 142.49 95.9442C142.524 95.9786 142.593 96.013 142.662 96.0818C142.662 95.9786 142.662 95.9098 142.662 95.841ZM143.007 82.6311C142.869 82.5623 142.559 82.6999 142.559 82.6999C142.421 82.8375 143.145 82.6999 143.007 82.6311ZM143.007 71.382C142.593 71.6916 143.558 71.726 143.007 71.382V71.382ZM142.697 73.5836C142.697 73.5836 142.766 73.6524 142.8 73.6524L143.145 73.8932C143.214 73.7556 142.938 73.7212 142.8 73.6524L142.697 73.5836ZM140.835 72.4828C141.249 72.3108 141.249 72.0012 141.352 71.7604L140.835 72.4828ZM140.663 75.7853C140.835 75.7853 141.042 75.7853 140.973 75.9573C141.559 75.7853 141.559 75.8197 142.214 75.9573C142.455 75.6133 143.041 75.4069 142.662 74.9597H142.421C142.593 74.9597 142.662 74.8909 142.731 74.8221L142.421 74.9941L142.49 74.8565C142.145 74.8909 141.663 74.7533 141.249 74.6156C141.008 75.0629 140.973 75.2693 140.629 75.7853H140.663ZM140.422 76.9549C140.525 77.4365 140.732 77.7117 141.008 77.7117C141.249 77.7117 141.318 77.3333 141.146 76.7829C141.042 76.3701 140.835 76.1293 140.629 76.1637C140.422 76.1981 140.353 76.5077 140.422 76.9205V76.9549ZM140.422 78.847C139.836 78.7438 140.215 79.0878 140.422 78.847V78.847ZM139.905 74.3404C140.181 74.0652 140.215 74.5812 139.905 74.3404V74.3404ZM138.836 79.707C139.353 79.707 139.836 79.8102 140.318 79.7414L140.112 79.9822C140.043 80.051 139.974 80.0854 139.974 80.1542L140.112 79.9822C140.215 79.9134 140.318 79.8102 140.387 79.7414C140.387 79.7414 140.422 79.7414 140.456 79.7414L140.594 80.0854C140.594 80.0166 140.629 79.9478 140.594 79.8446C140.56 79.8446 140.491 79.7758 140.456 79.7414L140.801 79.6726C140.698 79.6726 140.56 79.6726 140.456 79.6726C140.456 79.6726 140.456 79.707 140.456 79.7414H140.387C140.456 79.6726 140.491 79.6038 140.491 79.5006H140.629C140.973 79.5006 140.698 79.191 140.767 79.0534C140.56 79.0534 140.422 79.019 140.318 78.9846C140.25 79.1566 140.008 79.3974 140.318 79.5694H140.456C140.456 79.535 140.284 79.7414 140.284 79.7414H138.767L138.836 79.707ZM137.354 78.3654H137.871C137.768 78.3654 137.699 78.3309 137.527 78.2965C137.458 78.2965 137.423 78.331 137.354 78.3654ZM137.044 81.6678C137.113 81.6334 137.113 81.5646 137.113 81.4958L137.044 81.6678ZM136.182 77.9181C136.079 77.9181 136.044 77.9181 136.182 77.9869C136.286 78.0213 136.941 77.6773 136.182 77.9181ZM135.148 75.8197L136.01 75.4757C136.113 75.4413 136.251 75.4069 136.355 75.3381L136.01 75.4757C135.7 75.5789 135.321 75.6477 135.148 75.8197ZM134.597 74.4436C134.976 74.5812 135.045 74.1684 134.735 74.2028C134.735 74.2372 134.735 74.306 134.597 74.2716V74.4436ZM133.39 72.4828C133.39 72.3452 133.77 72.414 133.701 72.242C133.39 72.1732 133.115 72.5172 133.39 72.4828ZM139.181 60.2361C139.974 60.2361 140.732 60.4425 141.387 60.7865L141.215 60.8553C140.904 61.1993 140.318 61.4057 139.422 61.4401C139.388 61.4401 139.353 61.5089 139.284 61.5433V61.4745L138.492 61.7153L136.803 61.9561L137.664 62.0593C137.595 62.1281 137.492 62.1969 137.354 62.2313C137.182 62.2313 137.216 62.0937 137.078 62.0593C136.837 62.1281 136.975 62.2657 137.147 62.3001C136.493 62.5065 135.562 62.6097 135.01 62.8849C134.976 62.8849 134.907 62.8505 134.873 62.8505C135.665 61.3369 137.251 60.3049 139.112 60.3049L139.181 60.2361ZM139.629 61.1993C139.974 61.2337 140.215 61.1993 140.284 60.9585C140.043 60.7865 139.664 60.9585 139.629 61.1993ZM141.801 61.1649L141.594 60.8897C142.387 61.3369 143.041 62.0249 143.455 62.8505C143.455 63.0225 143.145 63.0913 143.593 63.1601C143.662 63.2977 143.696 63.4009 143.731 63.5385C143.731 63.5385 143.662 63.5729 143.662 63.6073H143.421C141.456 64.8114 139.595 66.0842 137.837 67.4259L138.078 67.5291C137.596 67.6667 137.458 67.9763 137.251 68.2171L137.078 68.0795C136.699 68.0795 136.596 68.2171 136.32 68.2515C136.251 68.3891 136.148 68.4923 136.01 68.6299C135.01 67.7355 134.356 66.4282 134.356 64.9834C134.356 63.5385 134.424 63.9514 134.597 63.5041C135.183 63.4353 135.562 63.2633 135.769 62.9881C136.941 63.1601 137.837 62.5753 138.767 62.2657C139.905 61.9217 141.077 61.5777 141.766 61.1305L141.801 61.1649ZM136.044 64.261H136.665V64.089C136.63 64.0202 136.527 63.9858 136.355 64.0202C136.389 64.1922 136.148 64.1922 136.044 64.261ZM135.941 65.3618C136.01 65.3618 136.079 65.3274 136.113 65.293L135.941 65.3618ZM135.355 65.3274C135.355 65.3274 135.286 65.3274 135.252 65.3274C135.321 65.2242 135.252 65.0522 135.079 65.0866C135.079 65.1898 135.01 65.2242 134.976 65.293C134.907 65.293 134.838 65.293 134.735 65.293C134.735 65.4994 134.735 65.6714 134.873 65.7746C135.355 65.809 135.355 65.6026 135.321 65.3618L135.355 65.3274ZM136.734 67.3226C136.113 67.2538 135.976 67.6323 135.665 67.8043L136.734 67.3226ZM138.044 66.2906C137.802 66.3938 137.906 66.7034 138.354 66.7034C138.595 66.5658 138.354 66.3594 138.044 66.2906ZM140.008 63.4009C140.456 63.0913 140.525 63.6418 140.008 63.4009V63.4009ZM140.353 63.9858C140.25 63.9858 140.215 63.9858 140.353 64.0546C140.456 64.089 141.111 63.745 140.353 63.9858ZM141.318 63.1601C141.215 63.1601 141.215 63.0913 141.146 63.0913C141.18 63.2977 140.801 63.1601 140.801 63.3321C141.077 63.2633 140.939 63.5729 141.146 63.5729C141.146 63.4353 141.146 63.2977 141.318 63.3321V63.1601ZM141.973 62.9193C141.835 63.0913 141.49 63.3665 141.835 63.5729C142.49 63.6762 142.421 62.9537 141.973 62.9193ZM82.5504 71.3476H84.2393V77.9525C84.1704 77.9525 84.1359 77.9525 84.1359 77.8837H83.8602C83.8602 77.9181 83.6878 77.8149 83.6878 77.8149C83.2742 78.0901 82.8261 78.3653 82.3781 78.6406H78.4143L82.8261 75.3381C81.1372 76.4045 79.4828 77.5053 77.8283 78.6406H73.899C74.3471 78.3997 74.4505 78.1934 73.1752 78.503C74.5194 77.9181 75.8636 77.2989 77.1734 76.7141C77.3458 76.7141 77.5181 76.7141 77.7594 76.7141H77.2768C78.8624 75.9573 80.4134 75.2005 81.8955 74.4436L77.07 76.6797H76.5185C76.6909 76.6797 76.8288 76.7141 76.9322 76.7485L72.7616 78.675C72.7271 78.675 72.6926 78.675 72.6581 78.675H69.108V80.3262L67.5914 81.0142V80.8422C67.1088 80.7734 67.1088 80.9798 66.8331 81.0142C66.8676 81.1518 67.0744 80.9798 67.1433 81.083H67.419C67.419 81.0486 67.5914 81.1518 67.5914 81.1518C67.7637 81.1518 67.9705 81.1518 67.9016 80.9798H67.5914C68.1084 80.739 68.5909 80.5326 69.108 80.2918V89.4081L67.9361 90.0273C67.1433 90.3369 66.385 90.6809 65.799 91.1281L67.9361 90.0273C68.3152 89.8553 68.7288 89.7177 69.108 89.5457V91.6785C68.5909 91.8849 68.1084 92.1257 67.6258 92.3665C67.488 92.0913 67.2122 91.8505 66.9365 91.7817V92.7105C66.6952 92.8138 66.4539 92.9514 66.2127 93.0546L65.7646 93.1234C65.868 93.1234 66.0403 93.1234 66.2127 93.0546L66.1437 93.2266C66.1782 93.1922 66.2127 93.1234 66.2127 93.0546L66.9365 92.7105V93.0546C67.7292 93.1234 67.8326 92.7449 67.6603 92.4009L69.1424 91.7129V99.3499C68.1429 99.6595 67.1433 100.004 66.3161 100.416L69.1424 99.4187V105.508H67.4535C67.2467 105.405 67.1433 105.439 67.1088 105.508H61.8008V93.2266L64.4548 91.9881C63.5586 92.2977 62.6625 92.6418 61.8008 92.9858V75.4757C64.248 74.9597 66.0748 73.9964 68.7633 73.3772V71.9324C66.6263 72.8612 64.1791 73.618 61.8008 74.4092V71.382H76.3462C76.3462 71.5884 76.4151 71.8292 76.553 71.898C76.7943 71.9668 77.0011 72.1388 77.2079 72.242C77.3802 72.3108 77.6215 72.3796 77.7249 72.1388C77.8283 71.9324 77.7594 71.6572 77.6904 71.4164H82.3091V71.4852C82.3091 71.6228 82.4125 71.6916 82.5504 71.6572C82.5504 71.6228 82.5849 71.554 82.5504 71.4852C82.5504 71.4852 82.5504 71.4164 82.5504 71.382V71.3476ZM63.4208 72.9644C63.4208 72.9644 63.3174 72.9644 63.145 72.9988C63.0072 72.9988 63.0416 72.9988 63.145 72.9988C63.2484 72.9988 63.3863 72.9988 63.4208 72.9644ZM67.3156 103.822C67.0744 103.581 67.7982 103.272 67.1778 103.34C67.1778 103.616 66.902 103.684 67.3156 103.822ZM68.9356 98.7651C68.6943 98.7651 68.4531 98.8683 68.2118 98.9027L68.9356 98.7651ZM68.4186 96.7699C68.4186 96.8731 68.3152 96.8043 68.2463 96.7699C68.1084 97.1139 68.7978 96.8731 68.4186 96.7699ZM68.2463 95.5658C68.3497 95.497 68.9356 95.153 68.2463 95.153C68.3497 95.2906 67.7982 95.497 68.2463 95.5658ZM67.3846 94.1554C66.971 93.777 68.1773 93.5362 67.3846 93.5018C67.2812 93.605 66.6263 94.121 67.3846 94.1554ZM67.2467 99.5907C67.3156 99.3843 67.0744 98.9715 66.9365 99.2811C66.8676 99.4875 67.1088 99.9003 67.2467 99.5907ZM65.2476 76.8517C65.1786 76.9893 65.2476 77.1613 64.9374 77.1957C64.9718 77.6085 65.3854 77.8493 66.1782 77.8493C65.9369 77.4709 66.0059 76.9549 65.2476 76.8517ZM65.4544 74.7877L65.5922 74.8565C65.6612 74.8221 65.5922 74.7877 65.4544 74.7877L64.9029 74.5469C64.0412 74.8565 65.0408 74.7877 65.4544 74.7877ZM64.0067 75.7165C64.834 75.8197 64.5927 75.3725 64.9374 75.2349C64.1101 75.1317 64.3514 75.5789 64.0067 75.7165ZM63.5242 79.0534C62.628 78.6062 63.0761 79.5694 63.5242 79.0534V79.0534ZM62.1455 77.6773C61.3527 78.3998 63.2484 78.6062 62.1455 77.6773V77.6773ZM62.7659 79.9822C63.0761 80.3262 64.834 79.707 64.0067 79.5006C64.1446 79.9478 62.8693 79.6726 62.7659 79.9822ZM63.0761 86.8968C63.9033 86.8968 63.6965 87.172 64.3169 86.8968C64.5582 86.2776 62.8348 86.2776 63.0761 86.8968ZM65.2476 89.3737C65.5233 88.4792 64.6271 88.032 63.3863 88.376C63.2829 89.1673 64.1446 89.6489 65.2476 89.3737ZM64.3859 94.2586C64.2825 94.0178 64.6616 94.0178 64.5237 93.777H64.3859C64.5237 93.777 64.6271 93.6738 64.7306 93.5706L64.3859 93.8114H64.248C63.6965 93.7426 63.4552 93.8114 63.3174 94.0178L63.5931 94.0866L63.7999 94.1898C64.2825 94.121 64.1101 94.121 64.4203 94.2586H64.3859ZM64.2135 96.5635C64.6271 96.7011 64.6271 96.2195 64.3514 96.2195C64.3169 96.3227 64.1446 96.3915 64.2135 96.5635ZM64.8684 99.5907C64.765 99.5907 64.9374 99.866 64.8684 99.9004C64.0412 100.279 64.3859 100.107 64.5582 100.072C65.3165 99.8316 65.3854 99.4187 64.8684 99.5907ZM65.4544 95.497C65.2476 95.497 65.1442 95.3938 64.834 95.4282C64.7995 95.669 65.4199 95.7378 65.4544 95.497ZM65.6267 87.7568C65.4199 87.3096 65.7301 87.9632 65.6267 87.7568V87.7568ZM65.8335 85.9336C64.8684 85.8648 64.5582 86.14 64.2825 86.4152C65.351 86.5528 65.6267 86.2776 65.8335 85.9336ZM68.8667 81.083C68.4186 81.427 69.2803 81.4614 68.8667 81.083V81.083ZM68.2807 82.2183C68.2807 82.3215 68.2807 82.4247 68.3841 82.5279L68.2807 82.2183ZM66.0403 83.9727C66.0403 83.9727 66.0403 84.0071 66.0403 84.0415L67.488 84.2823C67.419 84.5231 66.4884 84.2823 66.7986 84.7639C67.2467 84.7639 67.9361 84.8327 68.0395 84.5919C67.2122 84.6263 68.8322 83.9727 67.4535 84.1103C67.419 84.0415 67.3501 83.9727 67.2812 83.9383C66.902 83.9039 66.2471 83.7319 66.0403 84.0071V83.9727ZM67.1778 75.3725H66.8676V75.5445H67.1778V75.3725ZM68.5565 74.7189L68.1773 74.9253C68.3497 74.8909 68.4186 74.8221 68.5565 74.7189ZM68.6943 73.446C68.5565 73.446 68.3497 73.446 68.3152 73.5148C68.4875 73.5148 68.3841 73.79 68.5909 73.7556C68.7633 73.5836 68.522 73.5836 68.6943 73.446ZM80.2755 72.3452C80.2755 72.3796 80.3789 72.4484 80.4134 72.414C80.4134 72.414 80.4134 72.3108 80.4479 72.242C80.4134 72.2076 80.3789 72.1388 80.3445 72.1388C80.2755 72.1388 80.2411 72.242 80.2755 72.3452ZM79.3104 71.9668C79.3449 72.1388 79.4483 72.2764 79.5517 72.3108C79.6551 72.3108 79.7585 72.1388 79.6896 71.9324C79.6551 71.726 79.5172 71.5884 79.4138 71.6228C79.3104 71.6228 79.276 71.7948 79.3104 71.9668ZM79.5517 73.0676C79.4828 73.0676 79.4828 73.2052 79.5517 73.274C79.5517 73.3084 79.6206 73.3428 79.6896 73.3772C79.6896 73.3084 79.6896 73.274 79.724 73.1708C79.6896 73.1364 79.6206 73.0332 79.5862 73.0676H79.5517ZM79.3104 73.4116C79.3794 73.446 79.4138 73.4804 79.4483 73.4804C79.5172 73.4804 79.5517 73.4116 79.5172 73.3428C79.5172 73.3084 79.4483 73.2396 79.4138 73.2396C79.3794 73.2396 79.3449 73.3084 79.3104 73.4116ZM77.8628 72.8956C77.8972 72.9988 78.0007 73.0332 78.0696 72.9988C78.1385 72.9644 78.173 72.8956 78.173 72.758C78.173 72.6548 78.1041 72.5516 78.0351 72.5516C77.9662 72.5516 77.9662 72.5516 77.9317 72.5516C77.9317 72.5516 77.8628 72.586 77.8628 72.6204C77.8283 72.6892 77.7938 72.758 77.8628 72.8612V72.8956ZM77.5181 73.8588C77.5181 73.9276 77.656 73.962 77.6904 73.962C77.7249 73.962 77.7938 73.962 77.8283 73.8932C77.8973 73.8244 77.9662 73.7212 77.8973 73.5836C77.8628 73.4804 77.7594 73.446 77.656 73.3772C77.587 73.446 77.5181 73.5148 77.5181 73.5836C77.5181 73.6524 77.5181 73.79 77.5181 73.8588ZM77.1045 74.6844C77.1045 74.8565 77.2424 74.9597 77.3458 74.9597C77.5181 74.9597 77.6215 74.7877 77.5526 74.5469C77.5526 74.3748 77.4147 74.2372 77.3113 74.2716C77.139 74.306 77.07 74.4781 77.1045 74.7189V74.6844ZM70.4177 75.9573C69.9352 76.2325 71.0037 76.1981 70.4177 75.9573V75.9573ZM73.2096 77.0237L71.9688 77.5397C71.5552 77.7117 71.176 77.8493 70.7969 78.0213L71.9688 77.5397C72.3824 77.3677 72.8305 77.1957 73.2096 77.0237ZM74.1403 72.9988C74.1403 72.93 74.0713 72.8612 74.0024 72.8956C74.0024 72.8956 73.9679 72.9644 73.9335 73.0332C74.0024 73.0676 74.0369 73.102 74.0713 73.102C74.1058 73.102 74.1403 73.0676 74.1403 72.9988ZM80.3445 74.2716C80.3445 74.2716 80.31 74.2028 80.2755 74.2028C80.2755 74.2028 80.2755 74.2028 80.2411 74.2716C80.2411 74.2716 80.31 74.306 80.31 74.3404C80.31 74.3404 80.31 74.3404 80.31 74.2716H80.3445ZM80.9994 73.4116C80.4823 73.5836 80.0687 73.8244 79.6551 74.0308L78.3798 74.6501L78.173 74.5469C78.0696 74.5469 77.8628 74.5469 77.8628 74.4781C77.6215 74.5813 77.6215 74.8565 77.4147 74.9597H77.656C77.07 75.1661 76.5875 75.4413 76.1049 75.7165L74.933 76.2669C75.3811 76.1293 75.7258 75.9229 76.1049 75.7165L77.656 74.9941H77.8973C78.3453 75.0285 78.4832 74.8565 78.6555 74.7189L78.3798 74.6501C78.8624 74.4781 79.276 74.2716 79.6551 74.0308L80.9994 73.4116ZM81.2406 74.4092C81.1717 74.306 81.1028 74.2716 81.0338 74.3404C81.0338 74.3404 81.0338 74.4092 81.0338 74.4436C81.0683 74.5468 81.1372 74.5469 81.2062 74.5469C81.2062 74.5469 81.2062 74.5469 81.2751 74.5469C81.2751 74.5125 81.2751 74.4436 81.2751 74.4092H81.2406ZM81.5164 73.102C81.5164 72.9644 81.4474 72.8612 81.344 72.8612C81.2751 72.8612 81.2062 72.9988 81.2406 73.102C81.2751 73.2052 81.3785 73.274 81.4474 73.4116C81.4474 73.274 81.5164 73.2052 81.5164 73.102ZM75.7602 77.8493C75.0709 77.5397 77.6215 78.675 75.7602 77.8493V77.8493ZM82.3091 74.0652C82.2402 73.8932 82.1713 73.8244 82.1023 73.8932C82.0334 73.962 82.0334 74.0652 82.1023 74.1684C82.1023 74.2372 82.2057 74.306 82.2402 74.2716C82.2747 74.2372 82.3091 74.134 82.3091 74.0996V74.0652ZM83.7223 73.9964C84.1359 73.962 83.8602 74.306 84.1704 74.3404V73.9276C83.9981 73.9276 83.7223 73.9276 83.7223 73.9964ZM83.3776 74.2028C83.3776 74.2028 83.3776 74.2716 83.4121 74.3404C83.481 74.3404 83.5844 74.306 83.6189 74.2372C83.7223 74.1684 83.7223 74.0308 83.6189 73.8932C83.55 73.8244 83.481 73.7212 83.4121 73.79C83.4121 73.8932 83.4121 74.0308 83.4121 74.1684L83.3776 74.2028ZM137.285 68.2515L138.113 67.5635L138.044 67.7011C138.285 67.7011 138.147 67.9419 138.354 67.9419C139.664 66.669 141.697 65.809 142.835 64.4674C143.11 64.3986 143.283 64.261 143.593 64.2266C143.524 64.0546 143.696 63.9514 143.834 63.8826C143.938 64.2266 143.972 64.605 143.972 65.0178C143.972 66.2218 143.524 67.3226 142.8 68.1483C142.8 68.1483 142.731 68.1483 142.662 68.1139C142.593 68.1483 142.421 68.3547 142.49 68.4579C142.318 68.5955 142.18 68.7331 141.973 68.8707H141.559C141.559 68.8707 141.628 68.9051 141.663 68.9395C141.732 68.9395 141.801 68.9395 141.904 68.9395C141.111 69.4899 140.146 69.8339 139.112 69.8339C138.078 69.8339 137.389 69.5931 136.699 69.1459C136.803 69.1459 136.975 69.1459 137.078 69.0771L137.01 68.9395L137.389 69.0427C137.285 69.0083 137.147 68.9395 137.01 68.9395L137.251 68.8363C137.078 68.4579 137.664 68.5267 137.561 68.1827H137.285V68.2515ZM142.145 65.6026C142.18 65.637 142.214 65.6714 142.283 65.7058L142.145 65.6026ZM141.284 67.7011C141.628 67.7699 141.904 67.3915 141.594 67.3571C141.594 67.5291 141.18 67.4603 141.284 67.7011ZM140.353 68.1827C140.56 68.0795 140.422 67.8731 140.181 67.7699C140.25 67.8731 140.008 68.1827 140.353 68.1827ZM57.32 81.8399C57.32 82.0119 57.32 82.1839 57.32 82.3559V94.465C57.32 100.554 52.3566 105.439 46.3247 105.439H44.4979C38.3971 105.439 33.5027 100.554 33.5027 94.465V82.3559C33.5027 81.255 33.6751 80.1886 33.9508 79.191C35.6052 78.4686 37.2942 77.7461 38.6384 76.8517C39.2244 76.8517 39.2588 77.1613 40.0171 77.0925C40.2584 76.6453 40.2584 76.0949 40.9478 75.8885C41.0512 76.2669 41.9473 76.0605 42.3265 75.8885L42.0852 75.4413L43.2226 75.7509C42.878 75.6133 42.5333 75.4757 42.0852 75.4413L42.7746 75.1661C42.2231 74.0652 44.0154 74.2028 43.6707 73.2052L42.8435 73.3428L45.1873 71.382H45.2562L45.0839 71.7604C45.8422 71.7604 45.3252 72.4484 45.9801 72.4828L45.3596 71.382H46.3937C50.3919 71.382 53.9421 73.5492 55.8723 76.7485C53.494 77.5053 51.0813 78.2278 49.0822 79.2254L55.9068 76.8173C56.5961 78.0213 57.0787 79.363 57.2855 80.7734C57.0787 80.7046 56.8374 80.6014 56.5272 80.567C56.5617 80.9454 56.5617 81.3238 56.217 81.5302C56.8374 81.5302 57.1132 81.599 57.3889 81.8399H57.32ZM51.0124 86.1056C50.5643 85.5896 51.943 85.0047 50.7022 85.1079C50.7022 85.6584 50.1507 85.796 51.0124 86.1056ZM51.3226 89.3737C50.2885 88.8577 50.3919 89.9929 51.3226 89.3737V89.3737ZM52.7702 76.3013L54.1834 76.0261C53.6664 76.0261 53.2528 76.1981 52.7702 76.3013ZM49.6681 75.9573C48.3583 75.9573 48.8409 74.9941 47.0141 75.2349C46.3247 76.1293 49.2545 76.8173 49.6681 75.9573ZM44.3601 77.4021C45.2562 77.0581 46.8418 77.0581 47.0141 76.3357H45.6698C45.532 76.6797 42.7746 77.2989 44.3256 77.4021H44.3601ZM39.0865 77.5397C38.6039 78.9502 41.0512 77.6429 39.0865 77.5397V77.5397ZM33.744 81.2894L37.2942 79.8446C39.121 79.363 40.9822 78.9158 42.0507 77.9181L37.2942 79.8446C35.9844 80.1886 34.7091 80.5326 33.7785 81.1174C33.7785 81.1518 33.7785 81.2206 33.7785 81.255L33.744 81.2894ZM39.0865 80.4638C39.7069 80.5326 39.9482 80.8078 40.9133 80.7046C41.6371 80.0166 38.9486 80.0166 39.0865 80.4638ZM35.3295 90.8873C35.3295 91.0249 35.2606 91.1625 34.8814 91.1281V91.6097C35.9844 91.9881 36.1912 90.8185 35.3295 90.8873ZM39.0176 94.6714C39.3622 94.5682 39.7069 94.4306 39.9827 94.293L39.0176 94.6714C38.0525 94.981 36.984 95.1874 36.4669 95.7034L39.0176 94.6714ZM39.5346 101.861C39.1899 101.964 39.1554 101.93 39.5346 102.102C39.8448 102.24 41.8095 101.208 39.5346 101.861ZM44.429 103.272C44.1533 103.203 43.8775 103.065 43.395 103.031C43.2571 103.1 43.0848 103.134 42.9469 103.203L44.429 103.272ZM49.9783 82.3559C49.9783 80.3606 48.3583 78.6406 46.3247 78.6406H44.4979C42.4988 78.6406 40.8444 80.3262 40.8444 82.3559V94.465C40.8444 96.4603 42.4643 98.1115 44.4979 98.1115H46.3247C48.3239 98.1115 49.9783 96.4947 49.9783 94.465V82.3559ZM51.0124 93.0202C50.9434 93.261 50.4953 93.2954 50.3919 93.5018C51.0468 93.6394 51.7707 93.089 51.0124 93.0202ZM51.0124 91.8505C52.8047 92.3665 53.2528 91.6441 51.0124 91.8505V91.8505ZM54.9417 97.8363C54.9417 97.4235 54.7693 97.0795 54.3557 96.8731C54.1145 97.2515 53.8387 97.8019 54.9417 97.8363ZM56.5617 86.1056C55.9413 86.14 55.9413 85.8992 55.631 85.7616C55.7 86.0024 55.5276 86.3808 55.9413 86.4152C55.9413 86.2088 56.4927 86.2776 56.5617 86.0712V86.1056ZM96.9579 98.8683C96.9924 98.8683 97.0269 98.8683 97.0958 98.8339V105.473H89.7886V103.237C90.0299 103.134 90.2712 103.031 90.6159 102.996C92.098 102.24 93.201 101.276 94.4763 100.451C94.8899 100.451 94.7865 100.588 95.0967 100.451C95.0967 100.348 94.8554 100.348 94.6486 100.382C95.5103 100.141 95.6826 99.5563 96.3375 99.2123L96.2686 99.0747C96.372 99.1435 96.4754 99.1779 96.5788 99.1779C96.6822 99.1779 96.7856 99.1091 96.889 99.0747C96.889 99.0059 96.8201 98.9027 96.7167 98.8339H96.9579V98.8683ZM90.8916 103.065L90.3746 103.788C90.7882 103.616 90.7882 103.306 90.8916 103.065ZM92.3393 104.992L92.2359 104.923C92.2359 104.923 92.3048 104.992 92.3393 104.992L92.6839 105.232C92.7529 105.095 92.4771 105.06 92.3393 104.992ZM92.5461 102.721C92.1325 103.031 93.0976 103.065 92.5461 102.721V102.721ZM93.3044 104.716C92.615 104.613 92.8907 105.232 93.1665 104.957C92.7184 104.923 93.4078 104.82 93.3044 104.716ZM84.2393 78.6406V78.3654C84.1015 78.4686 83.9636 78.5374 83.8257 78.6406H84.2393ZM89.375 71.3476H97.0958V72.7924C96.8546 72.7924 96.6822 72.8612 96.5788 72.9644C96.6822 73.0332 96.9235 73.0676 97.0958 73.0332V73.9276C96.958 73.9276 96.7511 73.8588 96.7511 73.9964C96.8201 73.9964 96.9924 73.9964 97.0958 73.9964V97.7331C97.0958 97.7331 97.0614 97.7331 97.0269 97.7675C97.0269 97.6643 97.0269 97.5955 97.0269 97.4923C96.958 96.8043 96.6822 96.3915 96.372 96.3915C95.9929 96.3915 95.8205 96.7699 95.9584 97.4923C95.9584 97.5611 95.9584 97.5955 95.9584 97.6643C96.0273 97.9395 96.0963 98.1803 96.1997 98.3867C95.7516 98.6963 95.269 99.0059 94.7865 99.3155C94.3039 99.6251 93.201 100.004 93.5456 100.382C93.2699 100.382 93.1665 100.451 93.2354 100.623C93.0631 100.623 93.0631 100.485 93.0976 100.382C92.7184 100.52 92.5805 100.829 92.4771 101.139C91.8567 101.448 90.8916 101.758 90.1678 102.205C89.9265 102.343 90.0299 102.515 89.8576 102.618C89.8576 102.618 89.8231 102.618 89.7886 102.618V99.5219C89.7886 99.5219 89.8576 99.5219 89.892 99.5219C90.0644 99.4187 89.961 99.2467 89.7886 99.1435V97.8363C90.7193 97.2171 91.7188 96.5979 92.3737 95.8066C92.6495 95.7378 92.8218 95.6002 93.132 95.5658C92.9597 95.1874 93.9593 95.1874 93.4422 94.9122H93.201C93.201 94.9466 93.5801 94.7402 93.5801 94.7402V94.9122C93.7869 94.9122 93.9593 94.9122 93.8903 94.7402H93.5801L93.7869 94.6026C93.718 94.637 93.649 94.6714 93.5801 94.7402L93.4422 94.5682C93.3388 94.5682 93.2699 94.5682 93.3044 94.637L93.6146 94.7058C93.5112 94.7402 93.3388 94.809 93.2354 94.9122H92.9941C91.8912 95.5658 90.8227 96.2882 89.7886 97.0107V94.7402C89.961 94.7402 89.961 94.5682 89.7886 94.6026V93.1234C90.4091 92.917 90.9605 92.7106 91.3397 92.4697L90.995 92.0569L90.7193 92.1601C90.5125 92.3665 90.2023 92.5386 89.7886 92.6418V92.3665C89.7886 92.3665 89.7887 92.3321 89.8231 92.2977C89.8231 92.2977 89.8231 92.2977 89.7886 92.2977V79.1566L90.3057 79.2942C90.1333 79.2254 89.9955 79.1566 89.7886 79.1222V78.9846L89.9955 78.9158C89.8576 78.6406 89.9265 78.4686 90.0989 78.331C90.1678 78.503 90.3057 78.6062 90.3401 78.675C90.5469 78.675 90.6159 78.3309 90.5125 78.1245C90.5125 78.1245 90.5125 78.0901 90.478 78.0557C90.6159 77.9525 90.6848 77.8149 90.6159 77.5741L90.0644 77.6429L91.7188 76.2669L91.5465 76.5765C92.0635 76.5765 91.7188 77.0237 92.1669 77.0581L91.7188 76.2669C90.7882 76.5421 90.478 77.1613 90.0644 77.6429L89.7197 77.4021C88.9614 77.4021 88.7546 77.6773 88.1687 77.7461C87.9618 78.1245 87.6516 78.4342 87.238 78.7094H86.0317V71.4164H89.3406C89.3061 71.4164 89.2716 71.4852 89.2372 71.4852L89.4095 71.4164L89.375 71.3476ZM87.4448 72.9988C87.4448 72.7924 87.3759 72.6204 87.1346 72.5172C87.0312 72.7236 86.8934 72.9644 87.4448 72.9988ZM88.8925 75.7853C87.6516 75.6821 87.3759 76.4045 86.721 76.7829L88.8925 75.7853ZM90.7882 89.9241C90.7193 89.7521 90.6159 89.6489 90.4435 89.4081C90.4435 89.6833 90.3746 89.8553 90.3746 90.0273C90.4091 90.2681 90.5469 90.3713 90.6503 90.3369C90.7537 90.3025 90.8227 90.1305 90.7537 89.9241H90.7882ZM89.892 95.325C89.7886 95.325 89.7542 95.325 89.892 95.3938C89.9954 95.4282 90.6503 95.0842 89.892 95.325ZM90.8571 94.465C90.7537 94.465 90.7537 94.3962 90.6848 94.3962C90.7193 94.6026 90.3401 94.465 90.3401 94.637C90.6159 94.5682 90.478 94.8778 90.6848 94.8778C90.6848 94.7402 90.6848 94.6026 90.8571 94.637V94.465ZM91.512 94.2586C91.3742 94.4306 91.0295 94.7058 91.3742 94.9122C92.0291 95.0154 91.9601 94.293 91.512 94.2586ZM92.098 79.3974C92.098 79.0878 91.8222 78.7782 91.6499 78.8126C91.512 78.847 91.4431 79.191 91.5465 79.4318C91.6499 79.707 91.7878 79.879 91.9946 79.8446C91.9946 79.7414 92.098 79.6038 92.0635 79.4318L92.098 79.3974ZM91.1329 97.9051C90.9605 97.8707 90.7537 97.7675 90.4435 97.7331C90.3401 97.7675 90.2367 97.8019 90.1333 97.8363H91.1329V97.9051ZM91.1329 98.6963C91.1329 98.8683 90.7193 98.7995 90.8227 99.0403C91.1674 99.1091 91.4431 98.7307 91.1329 98.6963ZM91.6844 100.21H91.1329C91.1329 100.21 91.2018 100.21 91.2363 100.279C91.3742 100.279 91.512 100.279 91.6499 100.21H91.6844ZM91.7878 97.0451L91.6499 96.9419C91.6844 96.9763 91.7188 97.0107 91.7878 97.0451ZM92.2014 99.4531C92.098 99.4875 91.8223 99.8316 92.2014 99.866C92.098 99.7283 92.6495 99.5219 92.2014 99.4531ZM95.0967 73.1708L95.8895 72.8612C96.3031 72.758 96.7167 72.6548 96.9579 72.414L95.8895 72.8612C95.5792 72.93 95.3035 73.0332 95.0967 73.1364C95.0967 73.1364 95.0967 73.1364 95.0967 73.1708ZM92.9941 94.0866C93.0631 94.3274 92.6495 94.3962 93.132 94.4994C93.4767 94.3274 93.4422 94.1898 92.9941 94.0866ZM93.718 74.4436V74.5469C93.7524 74.5469 93.8903 74.5469 93.8903 74.5469L93.718 74.4092V74.4436ZM93.4422 92.917C93.8559 92.9858 93.7524 92.745 93.8903 92.6762C93.4767 92.6074 93.5801 92.8482 93.4422 92.917ZM93.5801 73.8932C93.6146 73.79 93.4767 73.5836 93.4422 73.7212C93.4078 73.8244 93.5456 74.0308 93.5801 73.8932ZM92.8218 90.4745C93.3733 90.5777 93.5456 90.0961 93.2699 90.0617C93.2699 90.2681 92.615 90.1649 92.8218 90.4745ZM92.3737 74.0308C91.9601 74.2372 92.1325 74.134 92.2359 74.0996C92.615 73.9964 92.6495 73.79 92.3737 73.8588C92.3393 73.8588 92.4082 73.9964 92.3737 74.0308ZM91.2018 74.6156C91.581 74.6156 91.7878 74.5125 91.7878 74.306C91.3742 74.306 91.4086 74.5468 91.2018 74.6156ZM89.961 75.0973C89.961 74.8221 90.1333 74.7533 89.8576 74.6156C89.7887 74.7877 89.5129 75.1317 89.961 75.0973ZM108.332 88.9953C108.401 88.9953 108.436 89.0297 108.505 89.0297C108.574 88.9609 108.677 88.8921 108.746 88.8232C108.574 88.8232 108.401 88.9265 108.332 88.9953ZM111.09 51.5326L109.125 52.6678H111.09V51.5326ZM113.399 41.2467L103.059 47.4045C102.335 47.8173 101.577 48.2301 100.853 48.6773L97.2682 49.7782L97.6473 50.5694C97.1992 50.8446 96.7167 51.1542 96.2686 51.4294L97.6818 50.6038L98.5435 52.3926C98.1643 52.7023 97.7507 53.0119 97.3026 53.2183L100.163 57.5528H89.6163C89.6163 57.5528 89.2372 56.0391 94.2005 55.0071C94.0282 54.7663 93.8903 54.5599 93.7524 54.3879C91.581 54.7319 89.7197 54.5599 89.7197 54.5599L87.9619 50.8446L92.8563 49.0557L87.6861 50.2254C87.1002 48.5741 87.9274 46.8197 89.7886 45.9253L97.1303 42.4164V40.2147L99.6464 39.0451C98.7503 39.3547 97.8541 39.6987 97.1303 40.1115V39.0107L96.2341 39.9739C95.0278 41.2811 92.6839 41.4875 91.1329 40.4555L88.858 38.9075V42.7948H86.6521V40.6275C86.8244 40.6619 86.9967 40.6963 87.1691 40.7307C87.1691 40.2491 87.4793 39.9395 87.824 39.6643C87.7895 39.6643 87.7206 39.6643 87.6861 39.6643C87.824 39.3891 87.755 38.9763 87.0312 38.4259C86.8244 38.7355 86.6865 38.9763 86.6521 39.1827V37.1186H86.3074C85.4112 37.0154 84.6874 36.465 84.5495 35.777L83.8946 32.9561H82.5504V31.7521H86.7899V6.46738L88.8236 3.95611V5.29775C88.6857 5.29775 88.7201 5.29775 88.8236 5.29775V16.9597C88.7201 16.9941 88.5823 17.0973 88.6167 17.1661C88.6857 17.2349 88.7546 17.3037 88.8236 17.3725V31.8209H93.0631V32.1993C92.6839 32.3369 92.3048 32.5089 91.9601 32.6809L93.0631 32.3025V33.0249H90.2712L91.9257 33.8161C92.7529 33.8161 93.5456 33.7473 94.3039 33.6785C94.4763 33.3001 94.6831 32.8873 94.8899 32.4401C95.0277 32.1305 95.2001 31.7865 95.3724 31.4769L96.5788 31.0641C96.1997 31.2017 95.786 31.3049 95.3724 31.4425C96.8201 28.7936 98.7503 26.9015 99.6809 26.0415C99.8532 25.8695 100.026 25.7319 100.198 25.5943L100.232 25.5599C100.06 25.4567 99.8877 25.3535 99.7154 25.2503C99.5775 25.1471 99.4052 25.0439 99.2673 24.9407C98.4401 24.3559 97.7507 23.6679 97.1303 22.9454C98.1643 22.4982 99.1984 22.0166 100.163 21.5006C100.267 21.8446 100.853 21.879 101.335 21.9822L100.163 21.5006L100.646 21.191C100.715 21.1566 100.784 21.1222 100.853 21.0534L100.784 20.6406C100.784 20.7782 100.784 20.9158 100.853 21.0534L100.646 21.191C100.474 21.2942 100.232 21.363 100.163 21.5006L97.0958 22.911C97.0614 22.8422 96.9924 22.8078 96.9579 22.739C96.0963 21.6038 95.5103 20.3654 95.269 18.9893C95.3035 18.9893 95.338 18.9893 95.4069 18.9893C95.4069 18.9893 95.4758 18.9893 95.5103 18.9893L95.5792 18.9205C95.5792 18.8517 95.4414 18.7829 95.3035 18.8173C95.2346 18.4045 95.2001 17.9917 95.2001 17.5789V15.446C95.338 15.446 95.5103 15.446 95.6826 15.4116C95.9929 15.3428 96.2341 15.102 96.0963 14.9644C96.0618 14.93 95.8894 14.8956 95.7516 14.93C95.5103 14.9644 95.338 15.0332 95.2001 15.1364V13.898C95.2001 13.6228 95.2001 13.3476 95.2346 13.0724C95.2346 12.9004 95.269 12.7628 95.3035 12.6251C95.3035 12.5563 95.3035 12.4875 95.338 12.3843C99.4396 10.5611 103.679 8.73784 107.505 6.77699L97.0958 11.5587C96.9924 11.5587 96.889 11.4899 96.8201 11.4899C96.7856 11.4899 96.6822 11.5587 96.6477 11.5931C96.6477 11.6619 96.7167 11.6963 96.8201 11.6963L95.3724 12.3499C95.3724 12.2811 95.3724 12.2123 95.4069 12.1435C95.4069 12.0059 95.4758 11.8683 95.5103 11.7307C95.5103 11.7307 95.5103 11.7307 95.5103 11.6963C95.5448 11.5587 95.5792 11.4211 95.6482 11.2835C95.6482 11.2835 95.6482 11.2491 95.6482 11.2147C95.6826 11.0771 95.7516 10.9739 95.786 10.8363C95.786 10.8363 95.786 10.8019 95.786 10.7675C95.8205 10.6643 95.855 10.5955 95.8895 10.4923C95.8895 10.4579 95.9239 10.4235 95.9584 10.3891C95.9584 10.3891 95.9584 10.3547 95.9584 10.3203C96.0273 10.1827 96.0963 10.0795 96.1307 9.94187C96.1307 9.94187 96.1307 9.94187 96.1307 9.90747C96.1997 9.76987 96.2686 9.66667 96.3375 9.52906C96.5443 9.21945 96.7511 8.90985 96.9924 8.60024C97.1992 8.35943 97.406 8.11862 97.6128 7.87782C97.8196 7.67141 98.0265 7.46501 98.2333 7.2586C98.3711 7.121 98.5435 6.98339 98.7158 6.88019C100.232 5.67616 102.128 4.78173 104.265 4.33452C104.265 4.16251 104.196 3.95611 104.196 3.7497C104.196 1.68565 106.161 0 108.574 0C110.986 0 112.951 1.68565 112.951 3.7497C112.951 5.81376 112.882 4.47212 112.779 4.78173C115.502 5.71056 117.742 7.3962 119.052 9.52906C119.121 9.66667 119.19 9.76987 119.259 9.90747C119.259 9.90747 119.259 9.90747 119.259 9.94187C119.328 10.0451 119.396 10.1827 119.431 10.2859C121.223 9.73547 124.946 8.84104 128.427 9.49466L127.772 12.0403C127.772 12.0403 124.291 11.3179 120.879 11.6963C121.947 11.9371 123.257 12.3155 124.567 12.9004C124.498 13.0724 124.153 12.9692 124.119 13.1412H124.67C124.67 13.038 124.67 12.9348 124.601 12.9004C125.739 13.382 126.842 14.0356 127.772 14.8268L125.463 16.6501C125.463 16.6501 123.222 14.6204 120.258 13.4164C120.258 13.5884 120.258 13.726 120.258 13.898V17.6133C120.258 19.4021 119.672 21.0534 118.638 22.4982C118.466 22.567 118.087 22.567 118.259 22.8078C118.294 22.8078 118.362 22.8078 118.397 22.8078C117.88 23.4614 117.294 24.0807 116.605 24.5967L116.432 24.3903L116.157 24.4935C115.846 24.8375 115.26 25.0439 114.364 25.0783C114.33 25.0783 114.295 25.1471 114.226 25.1815V25.1127L113.434 25.3535L111.745 25.5943L112.606 25.6975C112.537 25.7663 112.434 25.8351 112.296 25.8695C112.124 25.8695 112.158 25.7319 112.02 25.6975C111.779 25.7663 111.917 25.9039 112.089 25.9383C111.434 26.1447 110.504 26.2479 109.952 26.5231C109.677 26.3855 109.573 26.5919 109.056 26.5231C109.022 26.6951 109.263 26.6951 109.366 26.7639C109.16 26.7983 108.987 26.9015 108.918 27.0047L109.16 27.1079L106.609 27.8304C107.574 27.7272 108.298 27.3488 109.16 27.1079L109.091 27.2455C109.918 27.2455 110.469 27.0047 110.745 26.6951C111.917 26.8671 112.813 26.2823 113.744 25.9727C114.33 25.8007 114.916 25.6287 115.433 25.4223C115.329 25.4911 115.26 25.5255 115.157 25.5943C115.64 25.9727 116.122 26.4199 116.605 27.0391C116.605 27.1079 116.605 27.1767 116.742 27.2455C116.915 27.4864 117.087 27.7272 117.225 28.0024C115.674 29 114.192 30.0664 112.779 31.1329L113.02 31.2361C112.537 31.3737 112.4 31.6833 112.193 31.9241L112.02 31.7865C111.641 31.7865 111.538 31.9241 111.262 31.9585C110.745 32.9217 108.643 33.0249 108.332 34.0913H108.574C108.574 34.0569 106.23 35.433 106.23 35.433C105.713 35.7082 105.23 36.0178 104.713 36.3618L106.23 35.433C107.023 34.9858 107.781 34.573 108.574 34.0569L108.643 34.1945C109.366 33.8161 110.194 33.5409 110.814 33.1281C111.021 33.1281 111.021 33.2313 111.262 33.1969C111.365 33.0593 111.331 32.8529 111.572 32.7841C111.607 32.9217 111.917 32.8529 112.02 32.7841L111.951 32.6465L112.331 32.7497C112.227 32.7153 112.089 32.6465 111.951 32.6465L112.193 32.5433C112.02 32.1649 112.606 32.2337 112.503 31.8897H112.227C112.227 31.9241 113.054 31.2361 113.054 31.2361L112.985 31.3737C113.227 31.3737 113.089 31.6145 113.296 31.6145C114.502 30.4448 116.329 29.6192 117.501 28.4496C117.983 29.4816 118.328 30.7544 118.328 32.3025V32.8185C114.054 34.1601 109.883 35.5706 106.264 37.3594L113.744 34.745C113.778 34.745 113.847 34.745 113.916 34.7794C113.985 34.745 114.054 34.6762 114.054 34.6418L118.328 33.1281V36.5682C115.536 37.8066 112.882 39.1483 112.158 41.4875L113.192 41.3155L113.399 41.2467ZM118.19 35.0546C117.777 35.3642 118.742 35.3986 118.19 35.0546V35.0546ZM116.019 36.121C116.432 35.949 116.432 35.6394 116.536 35.3986L116.019 36.121ZM115.054 37.9786C115.329 37.7034 115.364 38.2194 115.054 37.9786V37.9786ZM117.294 32.5433H116.742C116.742 32.5433 116.811 32.5433 116.846 32.6121C116.984 32.6121 117.122 32.6121 117.259 32.5433H117.294ZM117.845 32.1649C117.742 32.0273 118.294 31.8209 117.845 31.7521C117.742 31.7865 117.466 32.1305 117.845 32.1649ZM117.294 29.2408C117.328 29.2752 117.363 29.3096 117.432 29.344L117.294 29.2408ZM116.467 31.3393C116.811 31.4081 117.087 31.0297 116.777 30.9953C116.777 31.1673 116.363 31.0985 116.467 31.3393ZM115.536 31.8553C115.743 31.7521 115.605 31.5457 115.364 31.4425C115.433 31.5457 115.191 31.8553 115.536 31.8553ZM111.193 34.3321C111.4 34.3321 111.503 34.4353 111.814 34.4009C112.055 34.1601 111.159 34.1601 111.193 34.3321ZM111.193 33.3345C111.021 33.8161 111.848 33.3345 111.193 33.3345V33.3345ZM115.95 26.9359C116.225 26.8671 116.088 27.1767 116.294 27.1767C116.294 27.0391 116.294 26.9015 116.467 26.9359V26.7639C116.363 26.7639 116.363 26.6951 116.294 26.6951C116.329 26.9015 115.95 26.7639 115.95 26.9359ZM115.536 27.6584C115.433 27.6584 115.398 27.6584 115.536 27.7272C115.64 27.7616 116.294 27.4176 115.536 27.6584ZM115.191 27.0391C115.64 26.7295 115.708 27.2799 115.191 27.0391V27.0391ZM113.502 30.376C113.744 30.2384 113.502 30.032 113.192 29.9632C112.951 30.0664 113.054 30.376 113.502 30.376ZM111.193 27.8992H111.814V27.7272C111.779 27.6584 111.676 27.624 111.503 27.6584C111.538 27.8304 111.297 27.8304 111.193 27.8992ZM111.124 29C111.193 29 111.262 28.9656 111.297 28.9312L111.124 29ZM110.814 31.4769L111.883 30.9953C111.262 30.9265 111.124 31.3049 110.814 31.4769ZM110.09 29.3784C110.573 29.4128 110.573 29.2064 110.538 28.9656C110.538 28.9656 110.469 28.9656 110.435 28.9656C110.504 28.8624 110.435 28.6904 110.263 28.7248C110.263 28.828 110.194 28.8624 110.159 28.9312C110.09 28.9312 110.021 28.9312 109.918 28.9312C109.918 29.1376 109.918 29.3096 110.056 29.4128L110.09 29.3784ZM108.401 29.0344C108.608 29.0344 108.746 29.0688 108.849 29.1032C108.918 28.9312 109.194 28.8968 109.16 28.6904C108.953 28.6904 108.849 28.5872 108.539 28.6216C108.401 28.7248 108.332 28.828 108.367 29.0344H108.401ZM107.505 29.9632C107.85 29.9632 108.091 29.9632 108.126 29.7912C107.781 29.7912 107.54 29.7912 107.505 29.9632ZM125.876 15.618H126.635C126.773 15.274 125.876 15.3772 125.876 15.618ZM125.945 14.93L125.67 15.102C125.773 15.0676 125.842 15.0332 125.945 14.93V15.0332C125.945 15.1364 126.118 15.102 126.256 15.102C126.325 14.6892 126.049 14.4828 126.359 14.3108C125.842 14.2764 125.67 14.6548 125.808 14.9644H125.945V14.93ZM124.773 14.1732C124.946 14.1388 125.325 14.2764 125.222 14.0012C124.98 14.0012 124.842 14.0356 124.773 14.1732ZM98.1643 9.66667C98.4056 9.56346 98.6124 9.46026 98.8192 9.35706L98.1643 9.63227V9.59786C98.0265 9.46026 97.7162 9.49466 97.5439 9.66667C97.475 9.73547 97.406 9.76987 97.3371 9.83867C97.1303 9.87307 96.958 9.90747 96.7167 9.97627C96.7167 10.0795 96.7167 10.1827 96.7167 10.2859C96.6133 10.3203 96.5099 10.3891 96.4409 10.4235L96.7511 10.2859C96.8546 10.4235 97.3026 10.4235 97.4405 10.2859C97.6473 10.1139 97.8886 9.97627 98.1988 9.87307C98.1988 9.80427 98.1988 9.76987 98.1988 9.73547L98.1643 9.66667ZM102.68 6.19217C102.749 6.50178 102.921 6.67378 103.128 6.63938C103.3 6.63938 103.403 6.43298 103.369 6.22657C103.3 5.91696 103.093 5.71056 102.852 5.74496C102.68 5.74496 102.611 5.95136 102.645 6.19217H102.68ZM106.609 5.74496C106.092 5.91696 105.678 6.15777 105.265 6.36417L103.989 6.98339L103.783 6.88019C103.679 6.88019 103.472 6.88019 103.472 6.81139C103.231 6.91459 103.231 7.1898 103.024 7.293H103.266C103.266 7.3274 103.266 7.3274 103.266 7.3274H103.197C102.645 7.49941 102.232 7.77461 101.783 8.01542L100.612 8.56584C101.06 8.42823 101.404 8.22183 101.783 8.01542L103.162 7.3618C103.128 7.3962 103.059 7.46501 103.024 7.53381C102.955 7.67141 103.024 7.98102 103.197 8.04982C103.369 8.15302 103.507 8.11862 103.61 7.94662C103.645 7.87782 103.61 7.77461 103.645 7.74021C103.576 7.49941 103.403 7.3274 103.266 7.293H103.507C103.955 7.293 104.093 7.121 104.265 6.94899L103.989 6.88019C104.472 6.70818 104.886 6.50178 105.265 6.26097L106.609 5.64176V5.74496ZM109.814 6.63938V6.22657C109.642 6.22657 109.366 6.22657 109.366 6.29537C109.78 6.26097 109.504 6.60498 109.814 6.63938ZM110.125 12.4187C109.401 12.1779 109.746 12.6939 110.125 12.4187V12.4187ZM115.467 24.5967C115.226 24.4247 114.847 24.5967 114.812 24.8375C115.157 24.8719 115.398 24.8375 115.467 24.5967ZM118.362 11.7995C118.397 11.7995 118.431 11.8339 118.466 11.8339C118.466 11.8339 118.466 11.7651 118.466 11.7307C118.466 11.7307 118.397 11.6619 118.397 11.6963C118.397 11.6963 118.397 11.7651 118.362 11.7995ZM117.018 7.3618C117.018 7.3962 117.087 7.465 117.122 7.49941C117.122 7.465 117.156 7.4306 117.122 7.3962C117.122 7.3618 117.053 7.3274 117.018 7.293V7.3618ZM115.915 9.21945C115.915 9.21945 115.984 9.32266 116.053 9.32266C116.157 9.32266 116.26 9.15065 116.191 8.97865C116.191 8.94425 116.122 8.90984 116.122 8.87544C115.984 8.87544 115.915 8.97865 115.95 9.18505L115.915 9.21945ZM115.881 10.2515C115.881 10.2859 115.95 10.3203 116.019 10.3891C116.019 10.2515 116.019 10.1827 116.019 10.1139C116.019 10.1139 115.95 10.0451 115.915 10.0795C115.881 10.0795 115.846 10.1827 115.915 10.2515H115.881ZM115.984 11.2147H115.915C115.915 11.2491 115.915 11.2835 115.915 11.3179C115.915 11.3179 115.95 11.3179 115.984 11.3179C115.984 11.2835 115.984 11.2491 115.984 11.1803V11.2147ZM115.122 11.9371C115.191 11.9715 115.26 12.0403 115.295 12.0403C115.433 12.0403 115.536 11.9371 115.605 11.7651C115.605 11.7307 115.605 11.6275 115.605 11.5931C115.605 11.5587 115.536 11.4899 115.502 11.4899C115.433 11.4899 115.364 11.4899 115.295 11.4899C115.226 11.5243 115.157 11.5931 115.122 11.6275C115.088 11.6619 115.122 11.7995 115.122 11.8683V11.9371ZM113.813 6.77699C113.882 6.77699 113.951 6.81139 113.985 6.77699C114.123 6.63938 114.226 6.46738 114.364 6.29537V6.19217L114.295 6.15777C114.192 6.29537 114.054 6.39858 113.916 6.46738C113.916 6.46738 113.882 6.53618 113.847 6.57058C113.847 6.63938 113.847 6.67378 113.847 6.77699H113.813ZM113.365 12.0747C113.882 12.1435 113.985 11.7651 113.502 11.7307C113.537 11.9027 113.33 11.9027 113.365 12.0747ZM112.848 12.6595C112.917 13.0036 113.261 13.2444 113.468 13.1068C113.537 13.0724 113.571 12.866 113.537 12.7283C113.434 12.2811 113.296 12.0403 112.882 11.7651C112.744 12.0059 112.779 12.3499 112.848 12.6939V12.6595ZM112.537 10.2171C112.537 10.2859 112.606 10.3547 112.675 10.3547C112.744 10.3547 112.813 10.2859 112.779 10.1139C112.744 10.1139 112.675 10.0107 112.641 9.97627C112.572 9.97627 112.537 10.0795 112.572 10.1827L112.537 10.2171ZM110.711 20.2622C110.711 20.2622 114.468 20.2622 116.122 19.8493C121.258 18.5765 118.466 15.446 118.466 15.446L110.711 20.2622ZM111.676 10.5611C111.676 10.7331 111.814 10.8363 111.917 10.8363C112.02 10.8363 112.055 10.6643 112.02 10.4235C111.986 10.3891 111.883 10.2859 111.814 10.2859C111.71 10.2859 111.641 10.4235 111.676 10.5611ZM110.883 12.1435V12.2123C110.159 12.6595 111.641 12.0747 110.883 12.1435ZM110.642 4.85053C110.469 4.95374 110.331 5.09134 110.159 5.26334C110.159 5.26334 110.159 5.36655 110.159 5.40095C110.159 5.46975 110.228 5.53855 110.263 5.57295C110.366 5.57295 110.469 5.57295 110.538 5.57295C110.642 5.57295 110.711 5.53855 110.814 5.50415C110.917 5.46975 110.952 5.26334 110.917 5.09134C110.883 4.95374 110.711 4.81613 110.642 4.88493V4.85053ZM109.194 1.61684C109.297 1.92645 109.642 2.09846 109.78 1.92645C109.987 1.68565 110.159 1.41044 110.366 1.13523C110.366 1.13523 110.366 1.03203 110.366 0.963227C110.09 0.860024 109.849 0.791222 109.608 0.688019C109.435 0.653618 109.297 0.619217 109.194 0.825623C109.091 1.06643 109.091 1.34164 109.194 1.61684ZM108.574 10.6987C108.505 10.6987 108.436 10.8019 108.436 10.9395C108.436 11.0771 108.574 11.1803 108.643 11.1459C108.711 11.1459 108.746 11.0427 108.746 11.0083C108.746 10.8363 108.643 10.6987 108.539 10.6987H108.574ZM108.16 6.39858C108.229 6.53618 108.332 6.60498 108.436 6.53618C108.47 6.50178 108.505 6.39858 108.505 6.36417C108.436 6.12337 108.332 6.02016 108.229 6.05457C108.126 6.08897 108.091 6.29537 108.126 6.39858H108.16ZM95.855 14.2764C95.7516 14.2764 95.6482 14.2764 95.5792 14.3452C95.5448 14.3452 95.5448 14.414 95.5103 14.4484C95.5792 14.5516 95.7516 14.5516 95.8895 14.5172C95.9239 14.5172 95.9929 14.4484 95.9929 14.4484C96.0273 14.3452 95.9929 14.2764 95.8205 14.2764H95.855ZM98.7503 24.2183C98.7503 24.2183 98.7158 24.2183 98.6813 24.1839C98.6813 24.1839 98.6124 24.2183 98.6124 24.2527C98.6469 24.2527 98.6813 24.2527 98.7158 24.2183H98.7503ZM100.232 22.7734C99.8188 22.6358 99.543 22.9798 99.9222 23.0142C99.8877 22.8422 100.129 22.8422 100.232 22.7734ZM84.7563 32.1993C84.7563 32.1993 84.7563 32.1993 84.7219 32.1993C84.7219 32.1993 84.7219 32.1993 84.7563 32.1993C84.7563 32.1993 84.7563 32.1993 84.7908 32.1993H84.7563ZM85.17 34.0225C85.1355 34.0225 85.0321 33.9881 84.9287 33.9537C84.8942 34.0225 84.8253 34.0913 84.8253 34.1257C84.8253 34.1257 84.9632 34.1601 85.0321 34.1257C85.1355 34.1257 85.2044 34.0225 85.1355 33.9881L85.17 34.0225ZM87.4448 25.8351C87.4448 25.8351 87.3759 25.8007 87.3414 25.7663C87.3414 25.7663 87.2725 25.8007 87.238 25.8351C87.238 25.8351 87.2725 25.8695 87.307 25.8695C87.307 25.8695 87.3759 25.8695 87.4104 25.8351H87.4448ZM87.5482 6.19217C87.5482 6.15777 87.4793 6.12337 87.4104 6.19217C87.4104 6.19217 87.3759 6.22657 87.307 6.26097C87.3759 6.26097 87.4104 6.26097 87.4448 6.26097C87.5138 6.26097 87.5482 6.26097 87.5482 6.19217ZM88.0997 13.7948C88.0997 13.8636 88.2376 13.898 88.341 13.8636C88.4444 13.8636 88.5133 13.7604 88.4789 13.6916C88.4789 13.6572 88.3755 13.6228 88.2376 13.6916C88.1342 13.6916 88.0653 13.7948 88.0653 13.8292L88.0997 13.7948ZM87.9619 6.12337C87.9274 6.12337 87.8584 6.12337 87.824 6.12337C87.824 6.12337 87.7895 6.19217 87.824 6.19217C87.824 6.19217 87.8929 6.19217 87.9274 6.19217C87.9274 6.19217 87.9618 6.15777 87.9963 6.12337H87.9619ZM88.0997 24.7343C88.1342 24.7343 88.1687 24.7343 88.2031 24.7343C88.2031 24.7343 88.1342 24.7343 88.0997 24.7343C88.0997 24.7343 88.0997 24.7687 88.0653 24.8031L88.0997 24.7343ZM88.1687 31.0641C88.2721 31.0641 88.3755 31.0985 88.4444 31.0641C88.5478 31.0641 88.5823 30.9953 88.5823 30.9264C88.5823 30.892 88.5133 30.8576 88.4099 30.892C88.341 30.892 88.3065 30.9608 88.2031 31.0297L88.1687 31.0641ZM88.7201 33.7817C88.6512 33.7817 88.5823 33.7817 88.4789 33.7129C88.4099 33.7817 88.3755 33.8161 88.341 33.8849C88.341 33.9193 88.4444 33.9537 88.5478 33.8849C88.6167 33.8849 88.6512 33.8161 88.7201 33.7473V33.7817ZM90.1678 34.7106C90.1678 34.6073 90.0299 34.5729 89.8576 34.6073C89.6508 34.6418 89.5129 34.745 89.5129 34.8482C89.5129 34.9514 89.7197 34.9858 89.892 34.9514C90.0644 34.9514 90.2023 34.8138 90.2023 34.7106H90.1678ZM91.7533 36.0866C91.7533 35.9834 91.6154 35.949 91.3742 35.9834C91.1329 36.0178 90.9261 36.1554 90.995 36.2586C91.064 36.3962 91.1674 36.4994 91.2708 36.637H91.6499C91.6499 36.465 91.7188 36.293 91.7533 36.121V36.0866ZM92.9597 36.121C92.7184 35.8802 93.4422 35.5706 92.8218 35.6394C92.8218 35.9146 92.5461 35.9834 92.9597 36.121ZM93.0976 37.7722C92.5805 37.5314 92.615 38.0818 93.0976 37.7722V37.7722ZM92.9597 39.5955C92.9252 39.6987 92.7184 39.7331 92.6495 39.8363C92.9597 39.9051 93.3388 39.6299 92.9597 39.5955ZM92.9597 39.0107C93.8559 39.2859 94.0971 38.9075 92.9597 39.0107V39.0107ZM93.8214 34.2289C93.8214 34.1257 93.649 34.0569 93.4422 34.0569C93.2699 34.0569 93.0976 34.1945 93.0976 34.2977C93.0976 34.4009 93.3044 34.4697 93.5112 34.4353C93.6835 34.4353 93.8214 34.2977 93.8214 34.2289ZM91.1329 53.4591C90.9605 53.6655 91.4086 54.2159 91.8222 54.1815C92.4427 54.1127 92.1669 52.1518 91.1329 53.4591ZM108.574 36.121C108.574 35.9834 108.953 36.0522 108.884 35.8802C108.574 35.8114 108.298 36.1554 108.574 36.121ZM107.333 36.8778C107.333 36.6714 107.057 36.6026 106.885 36.465C106.885 36.7058 106.885 36.9122 107.333 36.8778ZM106.092 36.7058C106.368 36.7058 106.471 36.637 106.54 36.5338C106.299 36.5338 105.989 36.5338 106.092 36.7058ZM105.471 35.0546C105.506 35.261 104.886 35.1234 105.023 35.3986C105.747 35.4674 105.644 35.1234 105.471 35.0546ZM105.161 29.1376C104.954 29.2408 104.92 29.5504 105.299 29.5504C105.23 29.4472 105.472 29.1376 105.161 29.1376ZM105.334 32.0273C104.989 31.8553 106.264 32.4401 105.334 32.0273V32.0273ZM106.333 31.4425H105.713C105.989 31.4769 106.092 31.4425 106.333 31.4425ZM106.023 28.1744C106.23 28.0712 106.23 27.8648 105.885 27.8648C105.678 27.968 105.678 28.1744 106.023 28.1744ZM107.023 11.5931H107.333C107.333 11.5243 107.471 11.4899 107.471 11.4211C107.264 11.4211 107.126 11.3867 107.023 11.3523V11.5931ZM106.23 7.77461C106.23 7.84342 106.264 7.87782 106.299 7.94662C106.299 7.94662 106.368 7.91222 106.368 7.87782C106.368 7.80902 106.333 7.74021 106.299 7.67141C106.264 7.70581 106.23 7.74021 106.23 7.74021V7.77461ZM103.093 11.5243C103.162 11.4555 103.197 11.4211 103.231 11.3523L103.093 11.5243ZM103.093 17.2693L103.817 17.3381C103.817 17.3381 103.817 17.3381 103.783 17.3037C103.645 17.3037 103.369 17.3037 103.128 17.3037L103.093 17.2693ZM99.3018 11.8339C99.3018 11.7651 99.9566 11.6619 99.4396 11.5931C99.5086 11.6963 98.8537 11.7995 99.3018 11.8339ZM98.9571 12.5563C98.9571 12.3843 98.5435 12.5219 98.509 12.5563C98.3711 12.7972 99.095 12.7972 98.9571 12.5563ZM96.1652 14.6548C96.1997 14.7236 96.3375 14.758 96.4409 14.7236C96.5099 14.7236 96.5443 14.6548 96.5099 14.6204C96.4409 14.586 96.3375 14.5516 96.2341 14.6204C96.1997 14.6204 96.1652 14.6892 96.1652 14.6892V14.6548ZM96.3031 20.4686C96.3031 20.4686 96.2341 20.4686 96.1997 20.4686C96.1997 20.4686 96.1997 20.503 96.1997 20.5374C96.1997 20.5374 96.2686 20.5374 96.3031 20.5374V20.4686ZM96.4754 17.4069C96.4754 17.3381 96.372 17.3381 96.3031 17.3381C96.2686 17.3381 96.2341 17.4069 96.2341 17.4069C96.2341 17.4413 96.3375 17.4757 96.4065 17.4413C96.4409 17.4413 96.4754 17.4069 96.5099 17.3725L96.4754 17.4069ZM97.5784 15.962C97.5784 15.8244 97.2682 15.7556 96.9579 15.8244C96.6822 15.8588 96.4065 16.0308 96.4065 16.134C96.4065 16.306 96.6822 16.4437 96.9235 16.4093C97.1992 16.3749 97.5439 16.134 97.5439 15.962H97.5784ZM98.509 20.0558C98.3367 20.0558 98.3367 19.9869 98.1988 19.9869C98.1988 20.0558 98.0609 20.0902 98.0609 20.159C98.1988 20.159 98.2333 20.2278 98.3711 20.2278C98.3711 20.159 98.509 20.1246 98.5435 20.0558H98.509ZM99.8188 20.7782L99.7498 21.191C99.7498 21.191 99.8188 21.1566 99.8532 21.1222C99.8877 21.0534 99.8877 20.8814 99.8188 20.7782ZM99.9911 19.5397C99.6809 19.4021 99.543 19.6773 99.612 19.7805L99.9911 19.5397ZM101.542 19.9526C103.231 20.3654 107.126 20.3654 107.126 20.3654L99.1294 15.5492C99.1294 15.5492 96.2686 18.6797 101.542 19.9526ZM105.334 26.4887C105.127 26.4887 105.196 26.3511 105.023 26.3167C105.023 26.4199 104.817 26.4199 104.886 26.5575H105.196C105.299 26.5575 105.368 26.5575 105.334 26.4887ZM103.92 26.4887C103.748 26.6263 103.369 26.8327 103.92 26.9015C103.817 26.7639 104.369 26.5575 103.92 26.4887ZM102.921 20.6062C103.093 20.5374 103.197 20.5374 103.266 20.4686C103.266 20.3998 103.266 20.331 103.266 20.2622L102.886 20.6062H102.921ZM101.542 20.847C101.404 20.847 101.301 20.9158 101.163 20.9502L101.542 20.847ZM101.542 21.0878C101.646 21.0878 101.749 21.0534 101.852 21.019L101.542 21.0878ZM101.094 26.0759C101.197 26.0415 101.439 25.6975 101.094 25.6631C100.991 25.6975 100.749 26.0415 101.094 26.0759ZM100.37 24.9407C100.508 24.9407 100.646 24.8375 100.68 24.7687L100.37 24.9407ZM99.7154 27.3832C99.7843 27.2111 99.9911 27.0735 99.5775 26.9703C99.3707 27.0735 99.5086 27.2799 99.7154 27.3832ZM98.7847 30.1352C98.1988 30.3416 97.6128 30.5136 97.0269 30.72L97.2682 30.8232L97.1992 30.9609C99.095 30.8576 100.129 30.1696 101.852 29.7568C102.025 29.7568 102.232 29.7568 102.438 29.7568H101.887C102.025 29.5504 102.128 29.344 102.3 29.2064L102.059 29.1376L102.542 28.9656L102.473 29.1032H102.611C102.852 29.5504 103.61 29 104.575 28.6216C105.127 28.4152 105.644 28.3464 105.609 28.14C104.3 27.968 103.266 28.5872 102.3 28.8624L102.542 28.9656C102.369 28.9656 102.197 29.0688 102.059 29.1376L101.852 29.0344C101.37 29.2408 100.887 29.4128 100.37 29.5848H99.7154C99.8877 29.5848 100.026 29.6192 100.163 29.6536C99.9222 29.7224 99.6809 29.8256 99.4396 29.8944C99.3707 29.8256 99.2673 29.7912 99.1639 29.8256C98.9916 29.8256 98.8192 29.9632 98.8192 30.0664L98.7847 30.1352ZM103.783 36.7746C103.748 36.809 103.852 36.9466 103.955 36.9466C104.093 36.9466 104.024 36.4994 103.783 36.7746ZM102.749 33.6785C102.507 33.6785 102.266 33.6441 102.266 33.7473C102.473 33.7817 102.645 33.8505 102.852 33.9193C102.852 33.8161 102.921 33.7473 102.99 33.6785C103.024 33.6097 102.99 33.5065 102.852 33.4033C102.749 33.5409 102.749 33.6097 102.749 33.6785ZM101.163 35.2266C101.129 35.3298 100.68 35.2266 100.818 35.4674C101.06 35.4674 101.404 35.4674 101.439 35.3986C101.025 35.3986 101.818 35.089 101.163 35.1578C101.163 35.1578 101.129 35.089 101.094 35.089C100.922 35.089 100.577 34.9858 100.474 35.089L101.197 35.2266H101.163ZM100.232 30.5136C100.474 30.4104 100.405 30.1696 99.8877 30.376C99.3018 30.5824 100.37 30.4448 100.232 30.5136ZM99.4396 30.9264C99.8532 30.9953 99.7498 30.7544 99.8877 30.6856C99.4741 30.6168 99.5775 30.8576 99.4396 30.9264ZM99.9222 31.6833C99.9222 31.8897 100.163 31.9929 100.543 32.0273C100.439 31.8553 100.439 31.5801 100.095 31.5457C100.095 31.6145 100.095 31.7177 99.9566 31.7177L99.9222 31.6833ZM99.2328 32.6121C98.7847 32.4057 99.026 32.8873 99.2328 32.6121V32.6121ZM98.509 31.9241C98.1299 32.3025 99.0605 32.4057 98.509 31.9241V31.9241ZM95.7516 36.121C95.4414 36.121 95.4414 36.0178 95.3035 35.949C95.3035 36.0866 95.2346 36.2586 95.4414 36.293C95.4414 36.1898 95.7171 36.2242 95.7516 36.121ZM97.3371 33.8505C96.5099 33.8505 96.3375 33.4721 95.6826 33.3689C95.6826 33.5753 95.6826 33.7473 95.5448 33.8505C95.9584 33.8505 96.0618 33.9193 96.3031 34.1601C96.5099 34.1601 96.9579 33.9881 97.3371 33.8505ZM99.4052 32.9561C99.2673 33.0249 98.8881 32.9561 98.8537 33.0937C98.9571 33.1969 99.3707 33.0937 99.5086 32.9905C99.5775 32.9217 99.612 32.8873 99.4741 32.8529C99.4741 32.9217 99.4741 32.9217 99.4052 32.9561C98.9226 32.7497 97.0269 31.8897 97.992 32.3369C98.7847 32.6809 99.2328 32.8873 99.4052 32.9561ZM98.9916 36.5338C99.4052 36.5338 99.3018 36.6714 99.612 36.5338C99.7498 36.2242 98.8882 36.2242 98.9916 36.5338ZM97.475 44.0676C97.475 43.7924 97.6473 43.7236 97.3716 43.586C97.3026 43.758 97.0269 44.102 97.475 44.0676ZM98.6813 45.8221C98.8881 46.7853 96.0273 46.0973 96.6133 47.2669C99.8532 47.5421 99.3362 46.0973 98.6813 45.8221ZM99.2673 43.2764C98.8537 43.2764 98.8881 43.5172 98.6813 43.586C99.0605 43.586 99.2673 43.4828 99.2673 43.2764ZM99.8877 42.8636C99.8532 42.8636 99.9222 43.0012 99.8877 43.0356C99.4741 43.242 99.6464 43.1388 99.7498 43.1044C100.129 43.0012 100.163 42.7948 99.8877 42.8636ZM99.1294 37.2906C99.0605 37.7034 99.5086 37.9442 100.06 37.7722C100.198 37.325 99.7498 37.0842 99.1294 37.2906ZM100.37 36.0522C99.8877 36.0178 99.7498 36.1554 99.612 36.293C100.129 36.3618 100.301 36.2242 100.37 36.0522ZM100.922 42.726C100.887 42.8292 101.025 43.0356 101.06 42.898C101.094 42.7948 100.956 42.5884 100.922 42.726ZM101.163 39.8363C101.129 39.8707 100.784 40.1459 101.163 40.1803C100.956 40.0083 101.577 39.8707 101.163 39.8363ZM100.922 38.9763V39.6299C101.611 39.6987 101.266 39.0795 100.922 38.9763ZM101.439 38.0818C102.094 37.8066 102.749 37.6002 103.162 37.1874L101.439 38.0818C101.025 38.2538 100.646 38.4259 100.37 38.6323L101.439 38.0818ZM103.369 41.8315C103.783 41.7283 104.196 41.6251 104.437 41.3843L103.369 41.8315C103.059 41.9003 102.783 42.0036 102.576 42.1068C102.576 42.1068 102.576 42.1068 102.576 42.1412L103.369 41.8315ZM104.679 42.898C104.541 42.9324 104.231 42.7948 104.231 42.9668C104.369 42.9324 104.679 43.07 104.679 42.898ZM104.989 41.2811C105.196 41.2123 105.54 41.2123 105.575 41.0403H105.265C105.265 41.1091 104.61 41.2467 104.954 41.2811H104.989ZM105.851 42.9668C105.678 43.0012 105.334 42.8636 105.299 43.0356C105.471 43.0012 105.816 43.1388 105.851 42.9668ZM106.195 40.9715C105.885 40.9715 105.989 40.7651 105.609 40.7995C105.437 41.0059 106.126 41.1435 106.195 40.9715ZM107.781 40.2491C107.712 40.2491 107.643 40.2835 107.54 40.3179L107.781 40.2491ZM108.091 40.3523C108.057 40.3523 108.022 40.3523 107.988 40.3523C107.988 40.3867 107.953 40.4211 107.919 40.4555C107.953 40.4555 108.022 40.4555 108.057 40.4555C108.057 40.4555 108.091 40.4211 108.126 40.3867L108.091 40.3523ZM109.918 37.841C109.918 37.8754 109.918 37.9442 109.78 37.9098V38.0818C110.159 38.2194 110.228 37.8066 109.918 37.841ZM111.365 41.5563C111.262 41.5563 111.228 41.5563 111.365 41.6251C111.469 41.6595 112.124 41.3155 111.365 41.5563ZM112.4 38.5635L111.055 38.7699C110.986 38.9075 110.952 39.0451 111.159 39.1139C111.159 39.1139 111.159 39.1139 111.193 39.1139C110.883 39.2171 110.504 39.2859 110.331 39.4579L111.193 39.1139C111.193 39.1139 111.193 39.1139 111.228 39.1139C111.469 39.1827 111.745 39.1827 112.055 39.1139C112.4 39.0107 112.606 38.7011 112.434 38.5635H112.4ZM101.025 48.6429L103.059 47.4389C106.54 45.4781 109.918 43.6204 113.399 41.2811L113.744 41.8315C115.26 41.0403 116.915 40.3523 118.535 39.6299V41.4875V42.382L129.978 49.847C129.909 49.847 129.84 49.9158 129.806 49.9502L127.876 50.9478L127.807 50.8446C126.876 50.7758 126.738 51.3262 127.221 51.567C127.427 51.3262 127.91 51.2574 128.117 51.0166H127.876C128.53 50.6382 129.185 50.3286 129.806 49.9846L129.978 49.8814L130.909 50.5006C130.909 50.5006 130.909 50.5006 130.909 50.535C130.736 50.8102 130.15 51.6014 128.772 52.5302C128.462 52.7366 128.082 52.9775 127.669 53.1839C127.91 53.3559 128.186 53.5623 128.496 53.7687C128.393 53.7687 128.358 53.6311 128.255 53.6311C128.186 53.8031 128.186 54.0439 128.082 54.1815C128.427 54.2159 128.289 53.8719 128.53 53.8031C128.772 53.9751 129.047 54.1471 129.323 54.3535C129.254 54.4223 129.116 54.4911 129.323 54.5599C129.323 54.5255 129.392 54.4911 129.427 54.4223C129.668 54.5943 129.944 54.7663 130.219 54.9727C137.492 54.9727 138.871 57.5184 138.871 57.5184H129.702L124.842 54.4223C124.256 54.6287 123.636 54.8007 122.947 55.0071C122.154 54.5599 121.396 54.1127 120.672 53.6999C122.602 53.1151 124.601 52.427 126.083 51.5326L120.603 53.6311C117.914 52.083 115.777 50.879 114.123 49.9502C114.537 49.7094 114.95 49.4342 115.295 49.159H115.019L115.364 48.9525C115.536 48.8493 115.743 48.7461 115.881 48.6085L115.364 48.9525C115.226 49.0214 115.088 49.0901 115.019 49.1934L114.847 49.0901C114.399 49.159 114.123 49.331 113.847 49.4686C113.847 49.4686 113.847 49.4342 113.847 49.3998C113.606 49.331 113.365 49.331 113.123 49.3998C112.4 48.9869 111.745 48.6085 111.193 48.2989V51.4638C110.538 51.8422 109.883 52.2206 109.228 52.599V47.1637C108.378 46.6821 107.953 46.4413 107.953 46.4413L106.678 46.8541V52.599H106.057C105.678 52.3926 105.299 52.1862 104.954 51.9454C104.954 52.1862 104.92 52.3926 104.92 52.599H104.713V47.4389L101.129 48.5397L101.025 48.6429ZM134.459 55.8671C134.873 56.0047 134.873 55.5231 134.597 55.5231C134.562 55.6263 134.39 55.6951 134.459 55.8671ZM127.772 55.6607C127.772 55.4543 128.117 55.5919 128.048 55.3511C127.979 55.2135 127.807 55.1447 127.6 55.1103C127.6 55.4543 127.772 55.5575 127.772 55.6607ZM126.566 52.1518C126.566 52.2894 126.083 52.2206 126.118 52.3926C126.29 52.4614 126.531 52.4958 126.876 52.4614C126.91 52.2894 126.842 52.1518 126.566 52.1518ZM126.152 48.8837C126.566 48.8837 127.117 48.6429 127.221 48.4021C127.221 48.4021 127.221 48.3333 127.221 48.2989C127.186 48.0925 126.635 48.0237 126.256 48.1957C126.083 48.2645 125.945 48.3677 125.842 48.4709C125.635 48.6429 125.842 48.8493 126.152 48.8493V48.8837ZM124.842 50.2942C124.911 50.2942 124.946 50.363 125.015 50.3286C125.084 50.3286 125.118 50.2598 125.222 50.191C125.118 50.191 125.049 50.1566 125.015 50.191C124.946 50.191 124.911 50.2598 124.877 50.2942H124.842ZM123.188 51.1542C123.188 51.223 123.257 51.2574 123.395 51.223C123.464 51.223 123.533 51.1542 123.533 51.1198C123.533 51.051 123.464 51.0166 123.291 51.051C123.291 51.051 123.188 51.1198 123.188 51.1542ZM120.775 45.6845C121.189 45.6845 121.809 45.3748 121.396 45.2028C121.327 45.4436 120.879 45.4781 120.775 45.6845ZM114.261 48.2301C114.226 48.2301 114.192 48.1957 114.157 48.1613C114.123 48.1613 114.088 48.2301 114.054 48.2301C114.054 48.2301 114.088 48.2645 114.123 48.2645C114.157 48.2645 114.226 48.2301 114.261 48.1957V48.2301ZM114.433 43.8268C114.364 43.93 114.33 44.0332 114.33 44.2052C114.674 44.274 114.674 43.8268 114.433 43.8268ZM115.191 46.8541C115.191 46.8541 115.122 46.8541 115.088 46.8541C115.088 46.8541 115.088 46.9229 115.054 46.9229C115.088 46.9229 115.157 46.9229 115.191 46.9229V46.8885V46.8541ZM115.881 44.9276C115.708 44.9276 115.674 44.8244 115.536 44.8588V45.0996C115.674 45.0996 115.777 45.2028 115.812 45.0996C115.743 45.0996 115.708 45.0996 115.708 45.0308C115.777 45.0308 115.881 45.0308 115.881 44.962V44.9276ZM118.431 48.2301C118.742 48.1613 118.983 48.0237 118.983 47.8861C118.983 47.7829 118.742 47.7485 118.5 47.7829C118.259 47.8173 118.087 47.9549 118.087 48.0925C118.087 48.1957 118.259 48.2645 118.431 48.2645V48.2301ZM119.017 46.9573H118.948H118.983H119.017ZM119.81 51.3262C119.672 51.3262 119.5 51.3262 119.362 51.3262C119.017 51.3606 118.776 51.4982 118.776 51.6702C118.776 51.8766 118.983 51.9454 119.328 51.911H119.396C119.638 51.8766 119.845 51.8078 119.948 51.6358C120.017 51.5326 119.982 51.4294 119.81 51.3606V51.3262ZM120.155 50.0878C120.189 50.019 120.051 49.9846 119.879 50.019C119.845 50.019 119.776 50.0878 119.741 50.1222C119.707 50.191 119.845 50.2254 119.982 50.191C120.051 50.191 120.12 50.1222 120.155 50.0878ZM119.328 46.6477C119.569 46.6133 119.707 46.5101 119.81 46.4069L120.258 46.1661C120.051 46.1661 119.914 46.3037 119.81 46.4069L119.328 46.6477ZM119.052 46.1317C118.948 46.2349 118.845 46.3381 118.811 46.4757L119.052 46.1317ZM117.949 44.274C117.983 44.3428 118.087 44.3772 118.19 44.4116C118.362 44.4804 118.673 44.4116 118.776 44.2396C118.879 44.102 118.879 43.9644 118.707 43.8612C118.638 43.8612 118.535 43.8612 118.466 43.8612C118.121 43.93 117.88 44.1364 117.983 44.274H117.949ZM118.156 46.2693C118.018 46.2005 117.708 46.3381 117.708 46.3381C117.57 46.4757 118.294 46.3381 118.156 46.2693ZM116.742 44.102C116.398 44.1708 116.157 44.3772 116.191 44.5492C116.191 44.6868 116.398 44.7556 116.674 44.7212C117.018 44.6524 117.191 44.5148 117.191 44.3084C117.191 44.1364 116.984 44.0676 116.742 44.102ZM116.708 43.7236H115.915C116.191 43.7236 116.467 43.7924 116.708 43.7236ZM115.605 42.5196C115.019 42.4164 115.398 42.7604 115.605 42.5196V42.5196ZM113.985 43.3796C114.502 43.3796 114.985 43.4828 115.467 43.414L115.26 43.6548C115.191 43.7236 115.122 43.758 115.122 43.8268L115.26 43.6548C115.364 43.586 115.467 43.4828 115.536 43.414C115.536 43.414 115.571 43.414 115.605 43.414L115.743 43.758C115.743 43.6892 115.777 43.6204 115.743 43.5172C115.708 43.5172 115.64 43.4484 115.605 43.414L115.95 43.3452C115.846 43.3452 115.708 43.3452 115.605 43.3452C115.605 43.3452 115.605 43.3796 115.605 43.414H115.536C115.605 43.3452 115.64 43.2764 115.64 43.1732H115.777C116.122 43.1732 115.846 42.8636 115.915 42.726C115.708 42.726 115.571 42.6916 115.467 42.6572C115.398 42.8292 115.157 43.07 115.467 43.242H115.605C115.605 43.2076 115.433 43.414 115.433 43.414H113.916L113.985 43.3796ZM111.365 48.1613C111.193 48.1613 110.917 48.1613 110.917 48.2301C111.124 48.2301 111.193 48.3677 111.365 48.4021V48.1613ZM112.503 42.0036H113.02C112.917 42.0036 112.848 41.9692 112.675 41.9347C112.606 41.9347 112.572 41.9692 112.503 42.0036ZM112.193 45.306C112.262 45.2716 112.262 45.2028 112.262 45.134L112.193 45.306ZM111.365 46.8541C111.848 46.8541 111.676 46.5789 111.814 46.4413C111.331 46.4069 111.331 46.6133 111.365 46.8541ZM110.848 43.4484C111.021 43.414 111.366 43.5516 111.4 43.3796C111.228 43.414 110.883 43.2764 110.848 43.4484ZM110.814 44.6524C110.917 44.6524 110.986 44.5492 111.124 44.4804L110.814 44.6524ZM110.263 47.0949C110.504 46.7165 111.021 46.9917 110.263 47.0949V47.0949ZM109.952 44.0332L110.125 43.8956C110.021 43.9644 109.987 43.9988 109.952 44.0332ZM109.642 51.5326C109.504 52.0142 110.366 51.6014 109.642 51.5326V51.5326Z" fill="#01E6F5"/>
</svg>
