<svg width="62" height="54" viewBox="0 0 62 54" fill="none" xmlns="http://www.w3.org/2000/svg">
<path d="M27.0713 52.6516C27.026 52.7864 26.8903 52.8912 26.4982 52.8313C26.6037 52.7265 26.7093 52.6216 27.0713 52.6516ZM26.4831 53.041C26.5887 52.8014 25.9402 52.8014 26.0156 53.041C26.3323 53.041 26.2569 53.1459 26.4831 53.041ZM26.3775 48.8171C26.6942 48.862 26.6188 48.6823 26.7244 48.6374C26.4077 48.5924 26.4831 48.7722 26.3775 48.8171ZM27.7047 51.9776C27.7047 51.9776 27.6745 51.9326 27.6595 51.9326C27.5237 51.9326 27.2673 51.8577 27.1919 51.9326H27.1618L27.7047 52.0375C27.6745 52.1124 27.3427 52.0375 27.4483 52.2172C27.6293 52.2172 27.9008 52.2172 27.9158 52.1723C27.5991 52.1723 28.2024 51.9326 27.7047 51.9925V51.9776ZM26.1362 53.5952C26.091 53.9098 26.4228 54.0895 26.8451 53.9547C26.9506 53.6102 26.6038 53.4305 26.1362 53.5952ZM26.7395 49.3863C26.7395 49.5361 26.9205 49.6259 27.207 49.6409L27.1768 49.611C27.1014 49.4762 27.1014 49.2665 26.83 49.2515C26.83 49.2964 26.83 49.3863 26.7244 49.3863H26.7395ZM25.6687 49.5361C25.3821 49.8207 26.091 49.8955 25.6687 49.5361V49.5361ZM23.3914 50.989C23.7081 50.989 23.7835 51.0339 23.9645 51.2286C24.1153 51.2286 24.4622 51.0938 24.7487 50.989C24.1153 50.989 23.9947 50.7044 23.497 50.6295C23.497 50.7793 23.497 50.9141 23.3914 50.989ZM25.8949 50.4198C26.0005 50.5546 26.6792 50.3149 26.3624 50.2401C26.4077 50.4198 25.91 50.285 25.8949 50.4198ZM26.1815 50.0603C25.8346 49.9105 26.0307 50.27 26.1815 50.0603V50.0603ZM26.7093 48.3677C26.2569 48.5175 27.0713 48.4127 26.9657 48.4726C27.1467 48.3977 27.1014 48.218 26.7093 48.3677ZM40.9764 38.5269C41.0217 38.5569 41.0518 38.5718 41.1121 38.5868C41.0669 38.5569 41.0217 38.5269 40.9764 38.5119V38.5269ZM33.134 38.7965L30.4043 39.6203L30.6908 40.2195C30.344 40.4292 29.982 40.6538 29.6502 40.8635L30.721 40.2344L31.3695 41.5825C31.0829 41.8222 30.7662 42.0468 30.4344 42.2116L32.6062 45.4769H24.5979C24.5979 45.4769 24.3114 44.3385 28.0817 43.5597C27.946 43.3799 27.8404 43.2152 27.7349 43.0953C26.091 43.35 24.6733 43.2301 24.6733 43.2301L23.3311 40.4292L27.0562 39.0811L23.135 39.9648C22.9239 39.3657 22.954 38.7516 23.2104 38.1974C22.5317 37.6582 22.8485 36.7445 24.0097 37.1788C24.2209 36.9991 24.4622 36.8493 24.7487 36.7145L30.3289 34.0633V32.4007L32.2442 31.517C31.5656 31.7566 30.8869 32.0113 30.3289 32.3258V31.502L29.6502 32.236C28.7302 33.2245 26.9506 33.3743 25.7743 32.5954L24.0399 31.4271V34.3629H22.3659V32.7302C22.5016 32.7602 22.6222 32.7752 22.758 32.8051C22.758 32.4457 22.9993 32.206 23.2557 31.9963H23.1501C23.2557 31.7866 23.1953 31.472 22.6524 31.0676C22.5016 31.3073 22.396 31.487 22.3659 31.6368V30.0791H22.1095C21.4308 30.0042 20.8728 29.5848 20.7672 29.0605L20.2695 26.9336H19.244V26.0199H22.4714V6.95232L24.0097 5.06503V14.8759C23.9343 14.9059 23.8288 14.9808 23.8589 15.0257C23.9042 15.0706 23.9645 15.1306 24.0097 15.1755V26.0798H27.2372V26.3644C26.9506 26.4692 26.6641 26.6041 26.3926 26.7239L27.2372 26.4393V26.9785H25.1107L26.3624 27.5777C26.9959 27.5777 27.5991 27.5327 28.1722 27.4728C28.308 27.1882 28.4588 26.8737 28.6247 26.5441C28.7302 26.3045 28.866 26.0498 28.9866 25.8102L29.9066 25.4956C29.62 25.6005 29.3033 25.6754 28.9866 25.7802C30.0876 23.7881 31.5505 22.3502 32.2593 21.7061C32.395 21.5713 32.5157 21.4664 32.6514 21.3616L32.6816 21.3316C32.5459 21.2567 32.4252 21.1819 32.2895 21.092C32.1839 21.0171 32.0482 20.9422 31.9426 20.8523C31.3092 20.4179 30.7964 19.8937 30.3138 19.3545C31.098 19.01 31.8823 18.6505 32.6213 18.2611C32.6967 18.5157 33.1491 18.5456 33.5111 18.6205L32.6213 18.2611L32.9832 18.0214C33.0285 17.9914 33.0888 17.9765 33.134 17.9165L33.0888 17.602C33.0888 17.7069 33.0888 17.8117 33.134 17.9165L32.9832 18.0214C32.8475 18.0963 32.6665 18.1562 32.6213 18.2611L30.2836 19.3245C30.2535 19.2796 30.2082 19.2496 30.1781 19.1897C29.5296 18.3359 29.0771 17.3923 28.8961 16.3588H29.0771L29.1224 16.3139C29.1224 16.2689 29.0168 16.209 28.9112 16.239C28.866 15.9244 28.8358 15.6099 28.8358 15.3103V13.7076C28.9414 13.7076 29.0771 13.7076 29.1978 13.6776C29.4391 13.6327 29.62 13.438 29.5145 13.3331C29.4843 13.3032 29.3637 13.2882 29.2581 13.3032C29.0771 13.3331 28.9414 13.3781 28.8358 13.453V12.5243C28.8358 12.3146 28.8358 12.1049 28.866 11.8952C28.866 11.7604 28.8961 11.6556 28.9112 11.5507C28.9112 11.5058 28.9112 11.4459 28.9414 11.371C32.0632 9.99295 35.2756 8.61493 38.1863 7.14704L30.2836 10.7568C30.2082 10.7568 30.1328 10.7119 30.0725 10.7119C30.0122 10.7119 29.9669 10.7568 29.9368 10.7868C29.9368 10.8317 29.982 10.8617 30.0725 10.8617L28.9715 11.356C28.9715 11.3111 28.9715 11.2511 29.0017 11.2062C29.0017 11.1014 29.047 10.9965 29.0771 10.8917V10.8617C29.1073 10.7568 29.1224 10.652 29.1827 10.5471V10.5022C29.2128 10.3974 29.2581 10.3225 29.2883 10.2176V10.1727C29.3184 10.0978 29.3335 10.0379 29.3637 9.96299C29.3637 9.93303 29.3938 9.91805 29.4089 9.8881V9.84316C29.4541 9.73831 29.5145 9.66342 29.5446 9.55857V9.52861C29.5899 9.42377 29.6502 9.34887 29.6955 9.24402C29.8463 9.00437 30.0122 8.77969 30.1931 8.54004C30.344 8.36029 30.5099 8.18055 30.6607 8.00081C30.8115 7.85103 30.9774 7.68626 31.1282 7.53648C31.2338 7.43163 31.3695 7.32678 31.4902 7.25189C32.6363 6.3382 34.0842 5.66417 35.713 5.33465C35.713 5.19984 35.6677 5.05006 35.6677 4.90027C35.6677 3.34251 37.1608 2.06934 38.9856 2.06934C40.8105 2.06934 42.3036 3.34251 42.3036 4.90027C42.3036 6.45803 42.3036 5.61924 42.3036 5.72409C44.3245 6.42807 45.9835 7.68626 46.9487 9.259C46.9939 9.36385 47.0542 9.43874 47.0995 9.54359V9.57355C47.1447 9.64844 47.2051 9.75329 47.2352 9.82818C48.5926 9.40879 51.4279 8.73476 54.0671 9.22905L53.5695 11.1463C53.5695 11.1463 50.9302 10.6071 48.3362 10.8917C49.1506 11.0714 50.146 11.356 51.1413 11.8053C51.0961 11.9401 50.8246 11.8503 50.7945 11.9851H51.2167C51.2167 11.9102 51.2167 11.8353 51.1715 11.8053C52.0311 12.1648 52.8757 12.6591 53.5845 13.2582L51.8351 14.6363C51.8351 14.6363 50.1309 13.1085 47.8837 12.1948V15.3552C47.8837 16.7033 47.4313 17.9465 46.647 19.0399C46.5113 19.0849 46.2248 19.0849 46.3605 19.2796H46.4661C46.074 19.7739 45.6215 20.2382 45.1087 20.6276L44.973 20.4779L44.7619 20.5528C44.5206 20.8074 44.0832 20.9722 43.4045 20.9871C43.3744 20.9871 43.3593 21.0321 43.299 21.062V21.0171L42.6957 21.1968L41.4138 21.3766L42.0623 21.4515C42.017 21.4964 41.9265 21.5563 41.821 21.5863C41.6852 21.5863 41.7154 21.4814 41.6098 21.4515C41.4288 21.4964 41.5344 21.6012 41.6551 21.6312C41.1574 21.781 40.4486 21.8709 40.0263 22.0656C39.8151 21.9607 39.7397 22.1105 39.3476 22.0656C39.3174 22.2004 39.4984 22.2004 39.5889 22.2453C39.4381 22.2753 39.3024 22.3502 39.242 22.4251L39.423 22.5L37.4926 23.0392C38.2316 22.9643 38.7745 22.6797 39.423 22.5L39.3778 22.6048C40.0112 22.6048 40.4184 22.4251 40.6295 22.1854C41.5193 22.3202 42.198 21.8709 42.9068 21.6462C43.3442 21.5114 43.7966 21.3915 44.1888 21.2268C44.1134 21.2717 44.053 21.3017 43.9776 21.3616C44.2793 21.5863 44.5658 21.8559 44.8674 22.2004C44.8674 22.2004 44.8674 22.2004 44.8373 22.2004C44.8674 22.3502 44.5809 22.2453 44.5809 22.3801C44.792 22.3352 44.6865 22.5599 44.8373 22.5599C44.8373 22.455 44.8373 22.3502 44.973 22.3801V22.3352C45.0032 22.3801 45.0484 22.4251 45.0786 22.47C45.0786 22.5149 45.0786 22.5749 45.1841 22.6198C45.3199 22.7995 45.4405 22.9793 45.5461 23.189C44.3697 23.9379 43.2386 24.7467 42.1678 25.5556L42.3488 25.6305C41.9869 25.7353 41.8813 25.975 41.7154 26.1547L41.5797 26.0499C41.2931 26.0499 41.2177 26.1547 41.0066 26.1847C40.6144 26.9186 39.0158 26.9935 38.7745 27.7874H38.9102C38.9102 27.7874 38.9404 27.7724 38.9555 27.7574L39.0007 27.8622C39.5437 27.5777 40.1771 27.368 40.6446 27.0534C40.7954 27.0534 40.7954 27.1283 40.9915 27.0983C41.0669 26.9935 41.0367 26.8437 41.2328 26.7838C41.263 26.8886 41.4892 26.8287 41.5797 26.7838L41.5344 26.6789L41.821 26.7538C41.7456 26.7239 41.64 26.6789 41.5344 26.6789L41.7154 26.604C41.5797 26.3195 42.0321 26.3644 41.9567 26.1098H41.7456C41.7456 26.1397 42.379 25.6155 42.379 25.6155L42.3337 25.7203C42.5147 25.7203 42.4091 25.9001 42.575 25.9001C43.495 25.0163 44.8825 24.4022 45.7723 23.5185C46.1343 24.2974 46.4057 25.256 46.4057 26.4243V26.5891C50.0102 25.3608 59.7378 21.781 59.9489 21.6162C59.964 22.2753 50.0555 25.6904 46.4057 26.7089V26.8287C43.4799 27.7424 40.5994 28.701 38.0506 29.8694C38.0355 29.7346 37.8395 29.6746 37.7188 29.5698C37.7188 29.7495 37.7188 29.8843 38.0204 29.8843C37.764 30.0042 37.5077 30.124 37.2513 30.2438L42.937 28.2667C42.9672 28.2667 43.0124 28.2667 43.0727 28.2966C43.118 28.2667 43.1783 28.2217 43.1783 28.1918L46.4208 27.0534V28.5812C46.4661 28.6261 46.451 28.6561 46.4208 28.6711V29.6447C44.2943 30.5733 42.2885 31.5919 41.7305 33.3593L42.5147 33.2245L42.6655 33.1796L34.8081 37.8229C34.2651 38.1375 33.677 38.452 33.134 38.7815V38.7965ZM44.6412 29.3301C44.9579 29.1953 44.9579 28.9706 45.0333 28.7909L44.6412 29.3301ZM43.9173 30.7231C44.1284 30.5134 44.1586 30.9029 43.9173 30.7231V30.7231ZM41.1121 33.4192C41.0367 33.4192 41.0066 33.4193 41.1121 33.4642C41.1875 33.4941 41.6852 33.2245 41.1121 33.4192ZM40.9764 31.5769C40.7351 31.6518 40.4486 31.7117 40.3279 31.8315L40.9764 31.5769H41.0066C41.1875 31.6218 41.3987 31.6218 41.64 31.5769C41.8964 31.502 42.0623 31.2624 41.9265 31.1575H41.8964L40.8708 31.3073C40.8256 31.4121 40.7954 31.517 40.9462 31.5619H40.9764V31.5769ZM39.9056 30.798C40.1922 30.9029 40.2525 30.5883 40.0112 30.6183C40.0112 30.6482 40.0112 30.6932 39.9056 30.6632V30.798ZM38.488 32.5954H38.5935C38.5935 32.5954 38.6237 32.5655 38.6388 32.5505L38.6086 32.5205H38.5332C38.5332 32.5505 38.503 32.5655 38.488 32.5954ZM38.2014 32.4906L38.3824 32.4456C38.3371 32.4456 38.2768 32.4756 38.2014 32.4906ZM46.0287 26.3344C45.9533 26.2296 46.3756 26.0798 46.0287 26.0199C45.9533 26.0498 45.7422 26.3045 46.0287 26.3344ZM45.6215 24.1326C45.6517 24.1626 45.6668 24.1775 45.7271 24.2075L45.6215 24.1326ZM45.5913 26.619H45.1992C45.1992 26.619 45.2445 26.619 45.2746 26.664C45.3802 26.664 45.4858 26.664 45.5913 26.619ZM44.9881 25.7203C45.2445 25.7653 45.4556 25.4807 45.2294 25.4657C45.2294 25.6005 44.9127 25.5406 44.9881 25.7203ZM44.2793 26.1098C44.4301 26.0349 44.3245 25.8701 44.1435 25.7952C44.1888 25.8701 44.0078 26.1098 44.2793 26.1098ZM40.9764 27.9671C41.1272 27.9671 41.2177 28.042 41.4439 28.012C41.6249 27.8323 40.9462 27.8323 40.9764 27.9671ZM44.2793 22.9343C44.2038 22.9343 44.1737 22.9343 44.2793 22.9793C44.3547 23.0092 44.8523 22.7396 44.2793 22.9343ZM44.0229 22.47C44.3697 22.2303 44.415 22.6497 44.0229 22.47V22.47ZM42.7409 24.9864C42.9219 24.8815 42.7409 24.7317 42.4996 24.6718C42.3187 24.7467 42.3941 24.9864 42.7409 24.9864ZM40.9764 23.1141H41.4439V22.9793C41.4138 22.9343 41.3384 22.9044 41.2026 22.9343C41.2328 23.0691 41.0518 23.0691 40.9613 23.1141H40.9764ZM40.9312 23.9529C40.9764 23.9529 41.0367 23.9229 41.0669 23.9079L40.9312 23.9529ZM40.6899 25.8252L41.5043 25.4657C41.0367 25.4208 40.9312 25.7053 40.6899 25.8252ZM40.0112 23.893C40.0112 24.0427 40.0112 24.1775 40.1168 24.2524L40.1469 24.2225C40.5089 24.2524 40.5089 24.0877 40.4938 23.9079H40.4184C40.4636 23.833 40.4184 23.6982 40.2827 23.7282C40.2827 23.8031 40.2374 23.833 40.2073 23.878H40.0263L40.0112 23.893ZM38.8348 23.9828H38.865C39.0158 23.9828 39.1214 24.0128 39.2119 24.0278C39.2571 23.893 39.4683 23.878 39.4532 23.7132C39.3024 23.7132 39.2119 23.6383 38.9856 23.6683C38.8801 23.7432 38.8348 23.8181 38.8499 23.9828H38.8348ZM52.1367 13.8574H52.7098C52.8154 13.6028 52.1367 13.6776 52.1367 13.8574ZM52.1518 13.3631L51.9859 13.4679C52.0613 13.438 52.1065 13.423 52.1669 13.3631H52.197V13.408C52.197 13.4829 52.3328 13.453 52.4383 13.453C52.4836 13.1384 52.2875 12.9886 52.5137 12.8538C52.1216 12.8239 51.9859 13.1085 52.0915 13.3481H52.1518V13.3631ZM51.2921 12.764C51.4279 12.734 51.7144 12.8389 51.639 12.6292C51.458 12.6292 51.3525 12.6591 51.2921 12.764ZM39.9358 7.08713V6.77258C39.8001 6.77258 39.5889 6.77258 39.5889 6.81751C39.9056 6.78756 39.6945 7.05717 39.9358 7.07215V7.08713ZM44.234 20.6276C44.053 20.4928 43.7665 20.6276 43.7363 20.8074C43.9927 20.8373 44.1888 20.8074 44.234 20.6276ZM46.4208 10.9815C46.451 10.9815 46.4661 11.0115 46.4962 11.0115V10.9366C46.4962 10.9366 46.451 10.8917 46.451 10.9066C46.451 10.9066 46.451 10.9516 46.4208 10.9815ZM40.6145 17.3623C40.6145 17.3623 43.4649 17.3623 44.7317 17.0478C48.6378 16.0892 46.5113 13.7226 46.5113 13.7226L40.6145 17.3623ZM44.6261 10.6071V10.5322H44.5809V10.6071H44.6261ZM45.4104 7.62635C45.4104 7.65631 45.4556 7.70124 45.4858 7.7312C45.4858 7.70124 45.5159 7.68626 45.4858 7.65631C45.4858 7.62635 45.4405 7.61137 45.4104 7.58142V7.62635ZM44.596 9.00437L44.5658 9.03433C44.5658 9.03433 44.611 9.10922 44.6714 9.10922C44.7468 9.10922 44.8222 8.97441 44.7769 8.85458C44.7769 8.82463 44.7317 8.80965 44.7317 8.77969C44.6261 8.77969 44.5809 8.85458 44.596 9.01935V9.00437ZM44.5658 9.8132H44.5356C44.5356 9.84316 44.5809 9.85814 44.6412 9.91805V9.70836C44.6412 9.70836 44.596 9.66342 44.5658 9.6784C44.5356 9.6784 44.5206 9.75329 44.5658 9.8132ZM43.9625 11.0265V11.0714C44.0078 11.1014 44.0681 11.1463 44.0983 11.1463C44.2038 11.1463 44.2793 11.0714 44.3396 10.9366V10.8018C44.3396 10.7718 44.2943 10.7269 44.2642 10.7269H44.1134C44.0681 10.7568 44.0078 10.8018 43.9776 10.8317C43.9475 10.8617 43.9776 10.9665 43.9776 11.0115L43.9625 11.0265ZM42.9672 7.19197C43.0124 7.19197 43.0727 7.22193 43.1029 7.19197C43.2085 7.08713 43.2839 6.95232 43.3894 6.83249V6.7576L43.3442 6.72764C43.2688 6.83249 43.1632 6.90738 43.0577 6.9673C43.0577 6.9673 43.0275 7.01223 43.0124 7.04219V7.19197H42.9822H42.9672ZM42.6354 11.1762C43.0275 11.2212 43.1029 10.9366 42.7409 10.9216C42.7711 11.0564 42.6052 11.0564 42.6354 11.1762ZM42.2583 10.9516C42.1528 11.1313 42.1829 11.3859 42.2282 11.6556V11.6256C42.2734 11.8802 42.5449 12.06 42.6957 11.9701C42.7409 11.9401 42.7711 11.7904 42.7409 11.6855C42.6655 11.341 42.56 11.1613 42.2433 10.9516H42.2583ZM42.1829 5.67915C42.198 5.67915 42.2282 5.69413 42.2433 5.70911C42.2282 5.66417 42.198 5.61924 42.1829 5.67915ZM42.0321 9.75329L42.0019 9.78325C42.0019 9.82818 42.0472 9.8881 42.1075 9.8881C42.1678 9.8881 42.2131 9.84316 42.1829 9.70836C42.1528 9.70836 42.1075 9.63346 42.0774 9.60351C42.0321 9.60351 42.0019 9.6784 42.0321 9.75329ZM41.3534 10.0379C41.3534 10.1727 41.459 10.2476 41.5344 10.2476C41.6098 10.2476 41.64 10.1128 41.6098 9.93303C41.5797 9.90308 41.5043 9.82818 41.459 9.82818C41.3836 9.82818 41.3233 9.93303 41.3534 10.0379ZM40.7502 11.2362V11.2811C40.2073 11.6256 41.3233 11.1762 40.7502 11.2362ZM40.5692 5.75404V5.72409C40.4335 5.79898 40.3279 5.90383 40.2073 6.03863V6.14348C40.2073 6.18842 40.2525 6.24833 40.2827 6.27829H40.4938C40.5692 6.27829 40.6295 6.24833 40.7049 6.23335C40.7803 6.2034 40.8105 6.05361 40.7803 5.91881C40.7502 5.81396 40.6295 5.70911 40.5692 5.76902V5.75404ZM39.4683 3.29758C39.5437 3.53723 39.8151 3.65706 39.9207 3.53723C40.0715 3.35749 40.2073 3.14779 40.3731 2.93809V2.80329C40.162 2.72839 39.981 2.66848 39.8 2.59359C39.6643 2.56363 39.5588 2.54865 39.4833 2.69844C39.4079 2.87818 39.4079 3.08788 39.4833 3.29758H39.4683ZM34.4914 6.74262H34.5215C34.5668 6.98228 34.7025 7.1021 34.8684 7.08713C35.0041 7.08713 35.0795 6.93734 35.0494 6.77258C35.0041 6.53292 34.8382 6.38314 34.6573 6.4131C34.5215 6.4131 34.4763 6.56288 34.5065 6.7576L34.4914 6.74262ZM31.083 9.36385C31.2639 9.28896 31.4298 9.21407 31.5806 9.1242L31.083 9.33389V9.30394C30.9774 9.19909 30.7361 9.22905 30.6154 9.34887C30.5702 9.39381 30.5099 9.42377 30.4646 9.48368C30.3138 9.51364 30.1781 9.52861 29.9971 9.58853V9.82818C29.9217 9.85814 29.8463 9.90308 29.7859 9.93303L30.0272 9.82818C30.1027 9.93303 30.4495 9.93303 30.5551 9.82818C30.7059 9.69338 30.902 9.58853 31.1282 9.51364V9.40879L31.098 9.36385H31.083ZM35.713 7.3118L35.6074 7.28185L35.5018 7.32678L35.351 7.25189C35.2756 7.25189 35.1097 7.25189 35.1097 7.20695C34.9287 7.28185 34.9287 7.49154 34.7628 7.56644H34.9438V7.59639H34.8986C34.4763 7.7312 34.1596 7.9409 33.8278 8.12064L32.938 8.54004C33.2848 8.43519 33.5412 8.2854 33.8278 8.12064L34.8684 7.62635C34.8382 7.65631 34.793 7.70124 34.7628 7.76116C34.7176 7.86601 34.7628 8.10566 34.8986 8.1506C35.0343 8.22549 35.1399 8.19553 35.2153 8.0757C35.2454 8.03077 35.2153 7.9409 35.2454 7.92592C35.2002 7.74618 35.0645 7.61137 34.9589 7.58142H35.1399C35.4867 7.58142 35.5923 7.44661 35.713 7.32678V7.3118ZM38.8801 10.3225C38.8801 10.4273 38.9857 10.5022 39.0309 10.4723C39.0761 10.4723 39.1063 10.3974 39.1063 10.3674C39.1063 10.2476 39.046 10.1577 38.9706 10.1427C38.9253 10.1427 38.8801 10.2176 38.8801 10.3225ZM38.6539 6.90738H38.684C38.7293 7.01223 38.8198 7.05717 38.8952 7.01223C38.9253 6.98228 38.9404 6.90739 38.9404 6.87743C38.8952 6.69769 38.8047 6.62279 38.7293 6.63777C38.6539 6.66773 38.6237 6.81751 38.6539 6.89241V6.90738ZM29.3033 12.8389C29.2279 12.8389 29.1676 12.8389 29.1224 12.8838C29.0922 12.8838 29.0922 12.9287 29.0771 12.9587C29.1224 13.0336 29.2581 13.0336 29.3637 13.0036C29.3938 13.0036 29.4391 12.9587 29.4391 12.9587C29.4692 12.8838 29.4391 12.8239 29.3184 12.8239L29.3033 12.8389ZM31.5354 20.3431C31.5354 20.3431 31.5052 20.3431 31.4902 20.3131C31.4902 20.3131 31.4449 20.3431 31.4449 20.358C31.4751 20.358 31.4901 20.358 31.5203 20.3281H31.5505L31.5354 20.3431ZM21.1895 27.7125H21.2046C21.2046 27.7125 21.2046 27.7125 21.1895 27.7125ZM21.2046 27.7424C21.1744 27.7424 21.099 27.7125 21.0236 27.6975C20.9934 27.7424 20.9482 27.8023 20.9482 27.8323C20.9482 27.8323 21.0538 27.8622 21.099 27.8323C21.1593 27.8323 21.2046 27.7873 21.2046 27.7574V27.7424ZM22.9389 21.5563C22.9389 21.5563 22.8937 21.5264 22.8635 21.5114C22.8635 21.5114 22.8183 21.5413 22.7881 21.5563C22.7881 21.5563 22.8183 21.5863 22.8334 21.5863C22.8334 21.5863 22.8786 21.5863 22.9088 21.5563H22.9389ZM23.0144 6.74262C23.0144 6.71266 22.9691 6.69769 22.9088 6.74262C22.9088 6.74262 22.8786 6.77258 22.8334 6.78756H22.9389C22.9842 6.78756 23.0144 6.78756 23.0144 6.74262ZM23.4065 12.5093L23.4366 12.4794C23.4366 12.5243 23.5422 12.5543 23.6176 12.5243C23.693 12.5243 23.7533 12.4494 23.7232 12.3895C23.7232 12.3595 23.6478 12.3446 23.5422 12.3895C23.4668 12.3895 23.4065 12.4644 23.4065 12.4943V12.5093ZM23.3612 6.69769H23.2255C23.2255 6.69769 23.1953 6.74262 23.2255 6.74262H23.3009C23.3009 6.74262 23.3311 6.71266 23.3461 6.69769H23.3612ZM23.497 25.5106C23.5724 25.5106 23.6478 25.5406 23.7081 25.5106C23.7835 25.5106 23.8137 25.4657 23.8137 25.4058C23.8137 25.3459 23.7684 25.3608 23.6779 25.3758C23.6327 25.3758 23.6025 25.4208 23.5271 25.4807L23.497 25.5106ZM23.8891 27.5627C23.8438 27.5627 23.7986 27.5627 23.7232 27.5177C23.6779 27.5627 23.6478 27.5926 23.6176 27.6525C23.6176 27.6825 23.693 27.6975 23.7684 27.6525C23.8137 27.6525 23.8438 27.6226 23.874 27.5777L23.8891 27.5627ZM25.0353 28.2667H25.0051C25.0051 28.1918 24.8995 28.1618 24.7638 28.1918C24.613 28.2217 24.5074 28.2966 24.5074 28.3715C24.5074 28.4464 24.6582 28.4764 24.794 28.4464C24.9297 28.4464 25.0353 28.3416 25.0353 28.2667ZM26.2116 29.3002C26.2116 29.2253 26.1061 29.1953 25.9251 29.2253C25.7441 29.2552 25.5782 29.3601 25.6385 29.435C25.6838 29.5398 25.7743 29.6147 25.8497 29.7196H26.1362C26.1362 29.5848 26.1815 29.4649 26.2116 29.3301V29.3002ZM27.1316 29.3301C26.9506 29.1504 27.4936 28.9107 27.026 28.9706C27.026 29.1803 26.8149 29.2253 27.1316 29.3301ZM27.1316 31.9514C27.1014 32.0263 26.9506 32.0562 26.8903 32.1311C27.1316 32.176 27.4181 31.9813 27.1316 31.9514ZM27.7801 27.8922C27.7801 27.8173 27.6444 27.7574 27.4936 27.7574C27.3427 27.7574 27.2372 27.8622 27.2372 27.9371C27.2372 28.012 27.388 28.0719 27.5539 28.042C27.6896 28.042 27.7952 27.9371 27.7952 27.8922H27.7801ZM25.7441 42.4063C25.6084 42.5561 25.9552 42.9755 26.272 42.9455C26.7395 42.9006 26.5283 41.4177 25.7441 42.4063ZM33.1793 34.303C33.1491 34.3779 33.2547 34.5426 33.2848 34.4378C33.315 34.3629 33.2094 34.1981 33.1793 34.303ZM33.3603 32.1311C33.3301 32.1611 33.0737 32.3708 33.3603 32.3857C33.2094 32.2509 33.677 32.1461 33.3603 32.1311ZM33.1793 31.472V31.9663C33.7071 32.0113 33.4357 31.5469 33.1793 31.472ZM35.0343 33.6289C35.351 33.5541 35.6677 33.4792 35.8487 33.2844L35.0343 33.6289C34.793 33.6739 34.5819 33.7638 34.431 33.8386V33.8686L35.0343 33.6289ZM35.4867 29.9442C35.5923 29.9442 35.532 29.5997 35.351 29.8094C35.3208 29.8394 35.3963 29.9442 35.4867 29.9442ZM36.0297 34.4378C35.9241 34.4677 35.6828 34.3629 35.6828 34.4827C35.7884 34.4528 36.0297 34.5576 36.0297 34.4378ZM36.271 33.2095C36.4218 33.1646 36.6933 33.1646 36.7234 33.0298H36.4821C36.4821 33.0747 35.9844 33.1796 36.2408 33.2095H36.271ZM36.9195 34.4827C36.7838 34.5127 36.5274 34.4078 36.4972 34.5277C36.6329 34.4977 36.8893 34.6025 36.9195 34.4827ZM37.191 32.9849C36.9496 32.9849 37.0401 32.8351 36.7385 32.8501C36.6028 32.9999 37.1306 33.1047 37.191 32.9849ZM37.4473 29.6297C37.2664 29.6297 37.0251 29.6297 37.1005 29.7645C37.3116 29.7645 37.387 29.7196 37.4473 29.6297ZM38.9856 29.3301C38.9856 29.2253 39.2722 29.2852 39.227 29.1504C38.9856 29.1055 38.7745 29.3601 38.9856 29.3301ZM38.1863 24.6718C38.4427 24.6718 38.6388 24.6718 38.6539 24.537C38.3975 24.537 38.2014 24.537 38.1863 24.6718ZM37.206 28.8059C36.8139 29.0156 36.452 29.2403 36.0598 29.5099L37.206 28.8059C37.7188 28.5213 38.2014 28.2517 38.7142 27.9371C38.2165 28.2217 37.206 28.8059 37.206 28.8059ZM36.4067 24.0577C36.2559 24.1326 36.2257 24.3723 36.5123 24.3723C36.467 24.2974 36.648 24.0577 36.4067 24.0577ZM36.5274 26.2296C36.271 26.0948 37.2362 26.5441 36.5274 26.2296V26.2296ZM36.3011 28.7759C36.8441 28.8209 36.7687 28.5662 36.648 28.5213C36.6782 28.6711 36.1956 28.5662 36.3011 28.7759ZM36.8139 25.7952C37.0251 25.8252 37.1005 25.7952 37.2814 25.7952H36.8139ZM37.0552 23.3238C37.206 23.2489 37.206 23.0841 36.9496 23.0841C36.7988 23.159 36.7988 23.3238 37.0552 23.3238ZM37.8093 10.8168H38.0506C38.0506 10.7718 38.1562 10.7419 38.1562 10.682C38.0054 10.682 37.8998 10.652 37.8093 10.637V10.8168ZM37.206 7.9409C37.206 7.98583 37.2362 8.01579 37.2513 8.0757C37.2513 8.0757 37.2965 8.04575 37.2965 8.03077C37.2965 7.98583 37.2664 7.92592 37.2513 7.88098C37.2211 7.91094 37.206 7.92592 37.206 7.92592V7.95588V7.9409ZM35.351 15.1306H35.0946L35.3661 15.1605L35.3359 15.1306H35.351ZM34.8232 10.7718C34.8684 10.7269 34.8986 10.6969 34.9287 10.637L34.8232 10.7718ZM31.9426 10.9965C31.9426 10.9516 32.4403 10.8617 32.0482 10.8168C32.0934 10.8917 31.6108 10.9665 31.9426 10.9965ZM31.6862 11.5507C31.6862 11.4159 31.3695 11.5207 31.3393 11.5507C31.2338 11.7304 31.7918 11.7304 31.6862 11.5507ZM29.5748 13.1384C29.605 13.1834 29.6955 13.1983 29.7709 13.1834C29.8161 13.1834 29.8463 13.1384 29.8161 13.1085C29.7709 13.0785 29.6804 13.0635 29.605 13.1085C29.5899 13.1085 29.5748 13.1234 29.5597 13.1384H29.5748ZM29.6653 17.5121H29.5899V17.5571H29.6653V17.5121ZM29.7558 15.2354C29.7709 15.2354 29.7859 15.2354 29.801 15.2055C29.801 15.1605 29.7256 15.1605 29.6653 15.1605C29.605 15.1605 29.62 15.2055 29.62 15.2055C29.62 15.2354 29.6955 15.2504 29.7558 15.2354ZM30.6456 14.112C30.6456 14.0072 30.4043 13.9622 30.1781 14.0072C29.9669 14.0371 29.7558 14.157 29.7558 14.2468C29.7558 14.3816 29.9669 14.4865 30.1479 14.4565C30.359 14.4266 30.6154 14.2468 30.6154 14.112H30.6456ZM31.3695 17.1976H31.3393C31.2036 17.1976 31.2036 17.1526 31.098 17.1526C31.098 17.1976 30.9925 17.2275 30.9925 17.2875C31.098 17.2875 31.1282 17.3324 31.2338 17.3324C31.2338 17.2875 31.3393 17.2575 31.3695 17.1976ZM32.3347 17.7518L32.2895 18.0663C32.2895 18.0663 32.3347 18.0364 32.3649 18.0214C32.395 17.9765 32.395 17.8417 32.3347 17.7668V17.7518ZM32.4704 16.8081C32.2291 16.7033 32.1236 16.913 32.1839 16.9879L32.4704 16.8081ZM33.6468 17.1227C34.9287 17.4372 37.8847 17.4372 37.8847 17.4372L31.8069 13.7975C31.8069 13.7975 29.6351 16.1641 33.6468 17.1227ZM36.5274 22.0506C36.3766 22.0506 36.4218 21.9458 36.2861 21.9158C36.2861 21.9907 36.1352 21.9907 36.1805 22.0955H36.4218C36.4972 22.0955 36.5575 22.0955 36.5274 22.0506ZM35.4566 22.0506C35.3208 22.1554 35.0343 22.3052 35.4566 22.3651C35.3812 22.2603 35.8035 22.1105 35.4566 22.0506ZM34.6723 17.617H34.7025C34.8382 17.572 34.9137 17.572 34.9589 17.5121V17.3623L34.6723 17.617ZM33.6468 17.9765C33.7222 17.9765 33.7976 17.9465 33.8881 17.9315L33.6468 17.9765ZM33.6468 17.7967C33.5412 17.7967 33.4658 17.8417 33.3603 17.8716L33.6468 17.7967ZM33.315 21.751C33.3904 21.7211 33.5714 21.4664 33.315 21.4365C33.2396 21.4664 33.0586 21.7211 33.315 21.751ZM32.757 20.8823C32.8626 20.8823 32.9681 20.8074 32.9983 20.7475L32.757 20.8823ZM32.6514 19.2496C32.3347 19.1448 32.1236 19.3994 32.4101 19.4294C32.38 19.2946 32.5609 19.2946 32.6514 19.2496ZM32.2593 22.7246C32.3046 22.5898 32.4704 22.485 32.1537 22.4101C32.0029 22.485 32.1085 22.6497 32.2593 22.7246ZM30.2233 25.256L30.4043 25.3309L30.359 25.4357C31.7918 25.3608 32.5911 24.8366 33.8881 24.522H33.9183C34.0238 24.3723 34.0992 24.2075 34.235 24.1027L34.054 24.0577L34.416 23.9229L34.3707 24.0278H34.4763C34.6573 24.3723 35.2304 23.9529 35.9694 23.6683C36.3916 23.5185 36.7838 23.4586 36.7536 23.3088C35.7582 23.174 34.974 23.6533 34.235 23.848L34.416 23.9229C34.2802 23.9229 34.1596 23.9978 34.054 24.0577L33.9032 23.9828C33.5412 24.1326 33.1642 24.2674 32.7721 24.4022H32.2744C32.4101 24.4022 32.5157 24.4322 32.6213 24.4472C32.4403 24.4921 32.2593 24.582 32.0783 24.6269C32.0331 24.582 31.9426 24.552 31.8672 24.582C31.7315 24.582 31.6108 24.6868 31.6108 24.7617L31.5806 24.8066C31.1282 24.9564 30.6908 25.0912 30.2384 25.241L30.2233 25.256ZM34.2048 27.5327C34.3556 27.5627 34.4914 27.6076 34.6573 27.6675C34.6573 27.5926 34.7025 27.5327 34.7628 27.4878C34.793 27.4428 34.7628 27.353 34.6573 27.2781C34.5819 27.3829 34.5819 27.4279 34.5819 27.4878C34.4009 27.4878 34.2199 27.4578 34.2199 27.5327H34.2048ZM33.3904 28.6411H33.3603C33.3301 28.716 32.9983 28.6411 33.1039 28.8209C33.2848 28.8209 33.5563 28.8209 33.5714 28.7759C33.2547 28.7759 33.8579 28.5363 33.3603 28.5962C33.3603 28.5962 33.3301 28.5512 33.315 28.5512C33.1793 28.5512 32.9229 28.4764 32.8475 28.5512L33.3904 28.6561V28.6411ZM32.6514 25.0912C32.8324 25.0163 32.7872 24.8366 32.395 24.9864C31.9426 25.1362 32.757 25.0313 32.6514 25.0912ZM32.0482 25.4058C32.3649 25.4507 32.2895 25.271 32.395 25.226C32.0783 25.1811 32.1537 25.3608 32.0482 25.4058ZM32.4252 25.975C32.4252 26.1247 32.6062 26.2146 32.8927 26.2296C32.8173 26.0948 32.8173 25.8851 32.5459 25.8701C32.5459 25.915 32.5459 26.0049 32.4403 26.0049L32.4101 25.975H32.4252ZM29.2581 29.3301C29.0168 29.3301 29.0168 29.2552 28.9112 29.1953C28.9112 29.3002 28.866 29.435 29.0168 29.45C29.0168 29.3751 29.2279 29.405 29.2581 29.3152V29.3301ZM30.4495 27.6076C29.8161 27.6076 29.6955 27.323 29.1978 27.2481C29.1978 27.3979 29.1978 27.5327 29.0922 27.6076C29.4089 27.6076 29.4843 27.6525 29.6653 27.8473C29.8161 27.8473 30.163 27.7125 30.4495 27.6076ZM32.1085 26.9635C32.1537 26.9186 32.1839 26.8886 32.0783 26.8587C32.0783 26.8886 32.0632 26.9136 32.0331 26.9336C31.6711 26.7838 30.2233 26.1247 30.9623 26.4692C31.5656 26.7239 31.8973 26.8886 32.0331 26.9336C31.9275 26.9785 31.641 26.9336 31.6108 27.0384C31.6862 27.1133 32.0029 27.0384 32.1085 26.9635ZM31.7164 29.6297C32.0331 29.6297 31.9577 29.7345 32.1839 29.6297C32.2895 29.39 31.641 29.39 31.7164 29.6297ZM30.5551 35.3215C30.5551 35.1118 30.6908 35.0669 30.4797 34.962C30.4344 35.0968 30.2233 35.3515 30.5551 35.3215ZM31.4751 36.6396C31.6259 37.3736 29.4542 36.8493 29.9066 37.733C32.3649 37.9427 31.9728 36.8493 31.4751 36.6396ZM31.9275 34.7224C31.6108 34.7224 31.641 34.9021 31.4751 34.962C31.7616 34.962 31.9275 34.8871 31.9275 34.7224ZM32.395 34.4078C32.3649 34.4078 32.4252 34.5127 32.395 34.5426C32.3498 34.5726 32.3046 34.5876 32.2895 34.6025C32.576 34.5277 32.6062 34.3629 32.395 34.4228V34.4078ZM31.8219 30.1989C31.7767 30.5134 32.1085 30.6932 32.5308 30.5584C32.6363 30.2139 32.2895 30.0341 31.8219 30.1989ZM32.757 29.2702C32.395 29.2403 32.2895 29.3451 32.1839 29.45C32.576 29.4949 32.7118 29.405 32.757 29.2702ZM32.757 31.2174L33.5714 30.798C34.0691 30.5883 34.5668 30.4385 34.8835 30.124L33.5714 30.798C33.2547 30.9328 32.9681 31.0527 32.757 31.2174ZM40.901 41.8072V40.9534L39.4079 41.8072H40.901ZM52.182 13.3331L52.1367 13.3631C52.1367 13.3631 52.1518 13.3481 52.1669 13.3331H52.182ZM38.0506 29.8993C38.0506 29.8993 38.0506 29.8993 38.0506 29.8843C38.0506 29.8843 38.0204 29.8843 38.0054 29.8993C38.0204 29.8993 38.0355 29.8993 38.0506 29.8993ZM62 45.4619H55.0324L51.3374 43.1253C50.8849 43.2751 50.4174 43.4099 49.9046 43.5597C49.3014 43.2152 48.7283 42.8856 48.1703 42.5711C49.6332 42.1367 51.1564 41.6125 52.2875 40.9384L48.125 42.5261C46.089 41.3578 44.4602 40.4441 43.2085 39.7551C43.5252 39.5754 43.8419 39.3657 44.0983 39.156H43.9173C43.9173 39.156 43.9022 39.171 43.8871 39.186L43.7514 39.1111C43.4045 39.156 43.2085 39.2908 42.9973 39.3957V39.3507C42.8163 39.3058 42.6354 39.3058 42.4544 39.3507C41.9567 39.0661 41.5043 38.8115 41.1121 38.5868V38.4071C40.9764 38.4071 40.7653 38.4071 40.7653 38.452C40.8558 38.452 40.9161 38.482 40.9764 38.5269V40.8935C40.4787 41.1781 39.981 41.4627 39.4833 41.7473V37.6432C38.8348 37.2837 38.5181 37.1039 38.5181 37.1039L37.5529 37.4185V41.7473H37.0854C36.7988 41.5975 36.5123 41.4327 36.2408 41.253C36.2408 41.4327 36.2107 41.5975 36.2107 41.7473H36.0598V37.8529L33.4507 38.6467L34.8081 37.8529C37.4473 36.37 40.0112 34.977 42.6655 33.2095L42.9219 33.6289C44.0681 33.0298 45.335 32.5056 46.5566 31.9663V34.0483L55.2435 39.6802C55.1983 39.6802 55.1379 39.7252 55.1078 39.7551L53.6449 40.5041L53.5996 40.4292C52.8908 40.3842 52.7852 40.7887 53.1472 40.9684C53.298 40.7887 53.675 40.7287 53.8258 40.549H53.6449C54.1425 40.2644 54.6402 40.0247 55.1078 39.7701L55.2435 39.6952L55.9523 40.1596V40.1895C55.8166 40.3992 55.3792 40.9983 54.3235 41.7023C54.0822 41.8521 53.7957 42.0468 53.479 42.1966C53.6599 42.3314 53.8711 42.4812 54.1124 42.631C54.037 42.631 54.0068 42.5261 53.9314 42.5261C53.8862 42.661 53.8862 42.8407 53.7957 42.9455C54.0521 42.9755 53.9465 42.7059 54.1425 42.661C54.3235 42.7958 54.5347 42.9156 54.7458 43.0803C54.7006 43.1253 54.595 43.1852 54.7458 43.2301C54.7458 43.2002 54.791 43.1852 54.8212 43.1253C55.0022 43.2601 55.2133 43.3799 55.4245 43.5447C60.9443 43.5447 62 45.4619 62 45.4619ZM40.162 35.1867C40.0866 35.2316 40.0564 35.2616 40.0263 35.2916L40.162 35.1867ZM40.2676 37.5982C40.4486 37.3136 40.8407 37.5233 40.2676 37.5982V37.5982ZM40.9312 35.6361L40.6899 35.7709C40.7653 35.7709 40.8256 35.696 40.9312 35.6361ZM41.1423 34.7973C41.0066 34.8272 40.7502 34.7224 40.72 34.8422C40.8558 34.8122 41.1121 34.9171 41.1423 34.7973ZM41.459 37.1039C41.0971 37.074 41.0971 37.2388 41.1121 37.4185C41.4741 37.4185 41.3534 37.2088 41.459 37.1039ZM41.7908 36.1303L41.7456 36.2652C41.7908 36.2352 41.7908 36.1903 41.7908 36.1303ZM42.3639 33.7638C42.2885 33.7638 42.2282 33.7338 42.1075 33.7188C42.0623 33.7188 42.0321 33.7488 41.9718 33.7638H42.3639ZM46.9487 36.8793C46.8733 36.9542 46.7979 37.0291 46.7677 37.1339L46.9487 36.8793ZM46.1343 35.4713H46.1041C46.1343 35.5162 46.2097 35.5462 46.2851 35.5761C46.4208 35.6211 46.647 35.5761 46.7375 35.4413C46.8129 35.3365 46.8129 35.2316 46.6923 35.1567H46.5113C46.2549 35.2017 46.0589 35.3664 46.1494 35.4713H46.1343ZM43.2085 38.482C43.2235 38.482 43.2688 38.482 43.2839 38.452C43.2688 38.452 43.2537 38.4221 43.2235 38.4071C43.1934 38.4071 43.1783 38.452 43.1481 38.452C43.1481 38.452 43.1783 38.482 43.1934 38.482H43.2085ZM43.4347 35.1418C43.3894 35.2167 43.3593 35.2916 43.3593 35.4264C43.6157 35.4713 43.6157 35.1418 43.4347 35.1418ZM44.234 34.8272L44.0832 35.007C44.038 35.0519 43.9776 35.0819 43.9776 35.1418L44.0832 35.007C44.1586 34.962 44.234 34.8722 44.2943 34.8272C44.3396 34.7823 44.3697 34.7224 44.3697 34.6475H44.4753C44.7317 34.6475 44.5206 34.4078 44.5809 34.303C44.4301 34.303 44.3245 34.273 44.234 34.258C44.1888 34.3928 43.9927 34.5726 44.234 34.6924H44.3245C44.2943 34.7074 44.2038 34.8272 44.2038 34.8272H43.5855C43.7966 34.8422 44.0229 34.8572 44.234 34.8272ZM44.3396 34.8272L44.596 34.7823H44.3396V34.8272L44.4451 35.0819C44.4451 35.0369 44.4753 34.977 44.4451 34.9021C44.415 34.9021 44.3697 34.8572 44.3396 34.8272ZM43.9324 37.4185C43.9324 37.4185 43.9324 37.4634 43.9022 37.4634H44.0078V37.4185H43.9324ZM44.5356 38.7366L44.1435 38.9912C44.0681 39.0212 43.9927 39.0661 43.9324 39.1111L44.1435 38.9912C44.2793 38.9163 44.4301 38.8414 44.5356 38.7366ZM44.5356 35.9656C44.3999 35.9656 44.3848 35.8907 44.2793 35.9207V36.1004C44.3848 36.1004 44.4602 36.1753 44.4904 36.1004C44.4451 36.1004 44.415 36.1004 44.415 36.0555C44.4602 36.0555 44.5507 36.0555 44.5507 36.0105V35.9806L44.5356 35.9656ZM44.5658 35.0519C44.7769 35.0519 44.9881 35.0968 45.1691 35.0519H44.5658ZM45.531 35.5013C45.531 35.3665 45.3802 35.3215 45.1841 35.3515C44.9278 35.3964 44.7317 35.5612 44.7619 35.696C44.7619 35.8008 44.9127 35.8458 45.1238 35.8308C45.3802 35.7858 45.5159 35.681 45.5159 35.5162L45.531 35.5013ZM46.27 36.9841C46.1644 36.9392 45.9231 37.0291 45.9231 37.0291C45.8176 37.1339 46.3756 37.0291 46.27 36.9841ZM46.4812 38.452C46.7225 38.4071 46.9034 38.3022 46.9034 38.1974C46.9034 38.0925 46.7225 38.0925 46.5415 38.1225C46.3605 38.1524 46.2248 38.2573 46.2248 38.3621C46.2248 38.467 46.3605 38.4969 46.4812 38.4969V38.467V38.452ZM47.5218 40.8186V40.7887H47.1749C46.9185 40.8186 46.7225 40.9235 46.7225 41.0433C46.7225 41.1631 46.8733 41.253 47.1447 41.223H47.19C47.371 41.1931 47.5369 41.1481 47.6123 41.0133C47.6575 40.9384 47.6424 40.8635 47.5067 40.8036L47.5218 40.8186ZM47.5821 39.815C47.5519 39.815 47.5067 39.86 47.4765 39.8899C47.4464 39.9349 47.5519 39.9648 47.6575 39.9349C47.7028 39.9349 47.7631 39.8899 47.7932 39.86C47.8234 39.815 47.7178 39.7851 47.5821 39.815ZM47.8686 36.8942C47.7178 36.8942 47.6123 36.9991 47.5218 37.074L47.1598 37.2537C47.3408 37.2238 47.4464 37.1489 47.5218 37.074L47.8686 36.8942ZM48.7283 36.1753C48.683 36.355 48.3362 36.385 48.2608 36.5348C48.5775 36.5348 49.045 36.2951 48.7283 36.1753ZM50.3571 40.6389C50.3571 40.5939 50.3118 40.564 50.1761 40.5939C50.1761 40.5939 50.1007 40.6389 50.1007 40.6688C50.1007 40.7138 50.146 40.7437 50.2515 40.7138C50.2968 40.7138 50.3571 40.6688 50.3571 40.6389ZM51.639 39.9349C51.5636 39.9349 51.5033 39.9049 51.4882 39.9349C51.443 39.9349 51.4128 39.9798 51.3826 40.0098H51.3525C51.3977 40.0098 51.4279 40.0547 51.4882 40.0397C51.5334 40.0397 51.5636 39.9948 51.639 39.9349ZM52.3479 38.9313V38.9613C52.6646 38.9613 53.0868 38.7815 53.1623 38.6018V38.5269C53.1321 38.3771 52.7249 38.3172 52.4233 38.452C52.2875 38.4969 52.182 38.5868 52.1065 38.6617C51.9557 38.7965 52.1065 38.9463 52.3479 38.9463V38.9313ZM52.6646 41.4177C52.6646 41.5226 52.3026 41.4627 52.3177 41.5975C52.4534 41.6424 52.6344 41.6724 52.8908 41.6424C52.9209 41.5076 52.8606 41.4028 52.6495 41.4028L52.6646 41.4177ZM53.7806 43.8293C53.7353 43.7244 53.5996 43.6795 53.4337 43.6495C53.4337 43.9042 53.5695 43.994 53.5695 44.0689C53.5695 43.9191 53.8258 44.024 53.7806 43.8293ZM58.7575 43.9641C58.7273 44.039 58.6067 44.0989 58.6519 44.2187C58.9686 44.3236 58.9686 43.9641 58.7575 43.9641ZM44.9881 22.2603C44.9278 22.2603 44.9127 22.2303 44.8825 22.2154C44.9127 22.2603 44.9579 22.2903 44.9881 22.3352V22.2603ZM28.9565 50.6744C28.8811 50.7793 28.8811 50.8242 28.8811 50.8841C28.7001 50.8841 28.5191 50.8542 28.5191 50.9291C28.6699 50.959 28.8056 51.004 28.9715 51.0639C28.9715 50.989 29.0168 50.9291 29.0771 50.8841C29.1073 50.8392 29.0771 50.7493 28.9715 50.6744H28.9565ZM33.2547 38.7666L33.4507 38.6617L33.3452 38.6917L33.2698 38.7666H33.2547ZM7.05814 39.5305C7.54074 39.3957 8.67186 39.8001 8.70202 39.2758C8.21941 39.4106 7.0883 39.0062 7.05814 39.5305ZM23.1953 36.7445C23.7835 36.0105 24.9599 36.9991 23.1953 36.7445V36.7445ZM14.2822 29.3451C14.1917 29.8993 13.0907 29.5848 12.9248 30.0641C13.4376 30.0791 13.1209 30.843 13.7543 30.7681C13.2566 29.8544 15.3077 29.9143 14.2822 29.3451ZM14.4481 20.5677H15.549V20.0734H14.4481V20.5677ZM10.3308 20.1483C10.361 19.5492 10.8436 19.3994 10.0443 19.2047C10.0141 19.8038 9.5315 19.9536 10.3308 20.1483ZM11.2508 22.8894V22.4101H10.6928V22.8894H11.2508ZM1.93043 22.2903V22.7696H2.48845V22.2903H1.93043ZM12.6081 22.1704V21.6911H11.7786V22.1704H12.6081ZM10.5118 11.8503C11.0397 11.7454 11.6882 11.7604 11.5977 11.1313C10.7079 10.9366 10.738 11.5058 10.5118 11.8503ZM5.7008 17.0328C4.29822 16.4037 4.69034 17.8716 5.7008 17.0328V17.0328ZM20.4203 11.1762C20.2544 11.1163 19.3646 10.6071 19.3345 11.1762C19.5004 11.2362 20.3902 11.7454 20.4203 11.1762ZM11.2508 5.19984C10.919 4.90027 10.2102 5.10997 9.87838 5.45448C10.738 5.31967 11.0095 5.9937 11.2508 5.19984ZM13.1661 28.1618L13.0304 27.8023C13.2415 27.9821 13.4074 28.1918 13.5884 28.2667L13.0304 27.8023L13.4376 27.9222C13.5432 27.353 12.9248 27.4129 13.1511 26.7389C12.2311 26.8138 11.281 26.8886 10.6928 27.2481C11.2508 27.7873 11.9445 28.2067 12.6383 28.6411C12.6685 28.3565 12.7137 28.0869 13.1812 28.1618H13.1661ZM0.678667 21.9458L0.271467 21.8259C0.271467 22.0656 0.060326 22.1105 0 22.3052C0.4072 22.2603 1.01046 22.3801 1.08587 22.0656L0.693749 21.9607C1.07079 21.9008 1.26685 21.766 1.49307 21.4814L0.678667 21.9607V21.9458ZM0.542935 21.6012L0.678667 21.9607L0.814402 21.6012H0.542935ZM9.13938 11.3859C9.19971 12.045 7.7368 11.0564 8.59645 11.6256C8.56629 12.3446 10.18 11.5058 9.13938 11.3859ZM13.7996 33.8536L15.172 33.8386C14.7648 33.6739 14.2068 33.6589 13.7996 33.8536ZM17.0722 39.2908C17.404 39.2758 17.7811 39.2608 17.9621 39.156C17.947 39.0511 17.9168 38.9613 17.8866 38.8115L17.0722 39.2908ZM20.9784 0.0172956H22.3809C21.9134 0.00231718 21.4459 -0.0126613 20.9784 0.0172956ZM19.3948 50.285C19.2289 50.2251 18.8971 50.1801 18.5804 50.1801L19.3948 50.285ZM19.621 39.156L20.0735 38.5569C19.7266 38.6168 19.7417 38.9313 19.621 39.156ZM19.7417 23.0392L20.5259 22.9493C20.2544 22.9493 19.9981 22.9343 19.7417 23.0392ZM21.3252 22.8594L20.5259 22.9493C20.7974 22.9493 21.0688 22.9793 21.3252 22.8594ZM17.1326 22.7097L15.7602 22.9643C16.2277 23.2039 16.7555 22.9643 17.1326 22.7097ZM20.6918 21.9458C20.8728 22.1704 21.0387 22.4101 21.2498 22.6497L20.6918 21.9458ZM8.09876 22.9942C8.74727 22.8744 9.59183 22.47 9.44101 21.8109C9.44101 21.751 9.44101 21.6761 9.44101 21.6162L7.2542 21.6462C7.52566 21.9757 7.46534 22.47 7.63123 22.7546C7.76697 22.8295 7.93287 22.9193 8.09876 23.0092V22.9942ZM17.4493 37.9128C18.128 38.0326 18.6106 38.2573 19.2892 38.3771C19.4702 37.5982 17.8414 36.9841 17.4493 37.9128ZM21.5665 36.6396C21.4911 36.9242 20.8426 36.9092 20.1941 36.8942C20.0584 37.5383 21.1593 37.5084 22.0341 37.5982C21.9586 37.2388 22.1849 36.6995 21.5514 36.6246L21.5665 36.6396ZM22.9239 34.9321C21.6419 34.5576 21.6721 35.9955 22.4865 35.9057C22.4413 35.4863 22.577 35.1567 22.9239 34.9321ZM10.1197 29.2253C9.48626 30.139 10.0443 28.5063 9.19971 28.746C8.00827 29.39 9.59183 29.7795 10.5872 29.9442V29.45C10.557 29.3002 10.5118 29.1654 10.1197 29.2103V29.2253ZM16.0316 33.2994C14.6592 33.9285 15.3379 35.007 17.4191 34.992C17.2834 34.258 17.4794 33.3294 16.0316 33.2994ZM14.0258 9.69338C14.0409 9.37883 14.614 9.34887 14.4782 8.95943H13.5583C13.2717 8.97441 13.0153 9.00437 13.1058 9.19909C13.7091 9.19909 13.5281 9.61849 14.0258 9.6784V9.69338ZM5.65556 12.2397C5.48966 9.84316 8.35514 11.8952 5.65556 12.2397V12.2397ZM11.1301 36.0405C10.557 36.3101 11.2508 36.34 11.5826 36.0405C12.6534 35.0519 12.216 35.5462 11.1301 36.0405ZM11.5373 32.3708C11.6127 32.7003 9.99903 33.2994 11.1 33.3444C11.1151 33.1946 11.1603 33.0598 11.5524 33.1047C12.8193 34.2131 13.1058 32.6853 11.5524 32.3708H11.5373ZM13.0455 24.3273L14.433 24.4322C14.1615 24.3273 13.6035 24.3423 13.0455 24.3273Z" fill="black"/>
</svg>
