<svg width="19" height="19" viewBox="0 0 19 19" fill="none" xmlns="http://www.w3.org/2000/svg">
<path d="M18.4405 11.0102L17.625 10.3595C17.0664 9.91377 17.0674 9.08534 17.6251 8.64051L18.4405 7.98983C19.0208 7.52675 19.1693 6.73268 18.7935 6.10163L17.1832 3.39837C16.8073 2.76736 16.0234 2.49497 15.3196 2.75051L14.3305 3.10969C13.6529 3.35565 12.9132 2.94081 12.7945 2.2502L12.6209 1.24031C12.4973 0.521646 11.862 0 11.1103 0H7.88978C7.13801 0 6.50268 0.521646 6.37913 1.24034L6.20546 2.2502C6.0865 2.94203 5.34581 3.35524 4.66954 3.10973L3.6804 2.75051C2.97657 2.49497 2.19277 2.76739 1.81683 3.39837L0.206595 6.1016C-0.169267 6.73257 -0.0208671 7.52667 0.559524 7.9898L1.375 8.64047C1.93368 9.08623 1.93257 9.91459 1.375 10.3595L0.559486 11.0101C-0.020867 11.4733 -0.169305 12.2674 0.206557 12.8983L1.81683 15.6016C2.19273 16.2326 2.97638 16.505 3.6804 16.2495L4.66951 15.8903C5.34715 15.6442 6.08669 16.0593 6.20542 16.7498L6.37909 17.7596C6.50268 18.4784 7.13801 19 7.88974 19H11.1102C11.862 19 12.4973 18.4784 12.6208 17.7597L12.7945 16.7498C12.9134 16.0582 13.6541 15.6447 14.3304 15.8903L15.3196 16.2495C16.0236 16.5051 16.8073 16.2326 17.1832 15.6016L18.7935 12.8983C19.1693 12.2674 19.0208 11.4733 18.4405 11.0102ZM15.8569 14.8594L14.8678 14.5003C13.2865 13.9261 11.5609 14.8947 11.2839 16.5058L11.1103 17.5156H7.88978L7.71611 16.5058C7.43857 14.8916 5.71041 13.9273 4.13226 14.5003L3.14312 14.8594L1.53289 12.1562L2.34836 11.5055C3.65199 10.4653 3.64928 8.53252 2.34836 7.4945L1.53289 6.84382L3.14316 4.14055L4.13226 4.49973C5.71351 5.07382 7.4391 4.10526 7.71611 2.49423L7.88974 1.48438H11.1102L11.2839 2.49423C11.5615 4.10856 13.2897 5.07263 14.8677 4.49973L15.8569 4.14055L17.4675 6.84345C17.4675 6.84345 17.4674 6.84356 17.4671 6.84379L16.6516 7.49446C15.348 8.53456 15.3506 10.4674 16.6516 11.5055L17.4671 12.1561L15.8569 14.8594ZM9.50001 5.83853C7.41701 5.83853 5.72236 7.48106 5.72236 9.5C5.72236 11.5189 7.41701 13.1615 9.50001 13.1615C11.583 13.1615 13.2777 11.5189 13.2777 9.5C13.2777 7.48106 11.583 5.83853 9.50001 5.83853ZM9.50001 11.6771C8.26147 11.6771 7.25383 10.7005 7.25383 9.5C7.25383 8.29955 8.26147 7.3229 9.50001 7.3229C10.7386 7.3229 11.7462 8.29955 11.7462 9.5C11.7462 10.7005 10.7386 11.6771 9.50001 11.6771Z" fill="white"/>
</svg>
