<?xml version="1.0" encoding="UTF-8"?>
<svg id="Layer_1" data-name="Layer 1" xmlns="http://www.w3.org/2000/svg" version="1.1" viewBox="0 0 591.2 534.4">
  <defs>
    <style>
      .cls-1 {
        fill: #1d1d1b;
      }

      .cls-1, .cls-2 {
        stroke-width: 0px;
      }

      .cls-2 {
        fill: #000;
      }
    </style>
  </defs>
  <path class="cls-1" d="M191.3,370.8c-3.9,1.4-7.8,2.6-11.8,3.9v-14.1h11.8v10.1h0ZM347.3,365l-.3-.2c-.6,0-.8.2-1.2.3-.4.8-1.7,1.3-2.8,1.8v-6.1h.3c0,.1.1.2.2.2.4,0,.6,0,.7-.2h8.2c-1.4,1-2.8,2-4.1,3l.4.2c-.8.2-1,.7-1.3,1.1h0ZM349,362.6c.4-.2,0-.6-.5-.7-.4.2-.2.7.5.7ZM346.4,363.6c-1-.1-1.2.5-1.7.8l1.7-.8ZM398,375h0ZM227.3,394h1v11.8h-5.3v9.9c0,9.6-7.9,17.6-17.6,17.6h-11.1c-.1-.4-.5-.8-.7-.3v.3h-5.2v-11.8h17.1c3.2,0,5.8-2.6,5.8-5.8v-9.9h-31.7v-28.8c4.5-.7,7.9-2,11.8-3.4v7.9c-.3-.7-.6-1.4-1.8-1.6-.2.3,0,.8-.7.8.1.9.9,1.4,2.6,1.5v11.7h19.9v-20.7l1.7-.8c-.6.2-1.1.4-1.7.6v-6.5h11.8c-1.9.9-3.7,1.8-5.1,2.9l5.1-2.7v5.6c-.4-.3-.8-.5-1.2-.6v4.5h1.2v2c-.7.6-1.8,1.8,0,2v13.6h4.1l-7.4,4.4c-2.4,1.3-4.7,2.7-7.2,4.3l7.2-4.3c2.6-1.4,5.1-2.9,7.7-4.4v.2ZM216.1,379.4c1.3.4,1.9.2,2.9.2l-2.9-.2ZM214.3,382.3c4.4,1.9-1.7-.7,0,0h0ZM212.8,398.3c3.4.3,2.9-1.3,2.2-1.5.2,1-2.8.3-2.2,1.5ZM213.2,401.3c2.7-.8,2.9-2.3,1-1.7-.3.1.3,1,0,1.2-2.9,1.4-1.7.7-1,.6ZM190,375.1l.3.2c.2-.1,0-.1-.3-.2l-1.3-.6c-2,.7.3.6,1.3.6ZM186.6,377.2c2,.3,1.4-.8,2.2-1.2-2-.3-1.4.8-2.2,1.2ZM185.5,385.1c-2.1-1-1,1.3,0,0h0ZM182.1,381.9c-1.9,1.7,2.6,2.2,0,0h0ZM183.6,387.3c.7.8,4.8-.7,2.9-1.2.3,1.1-2.7.4-2.9,1.2ZM184.3,403.7c2,0,1.5.7,2.9,0,.6-1.5-3.5-1.5-2.9,0ZM190.9,401.4c-2.3-.2-3,.5-3.6,1.2,2.5.3,3.2-.4,3.6-1.2ZM196,398.3c-1.9.1,1.8-1.5-1.4-1.2-.1-.2-.2-.3-.4-.4-.9-.1-2.4-.5-2.9.1,0,0,0,.1,0,.2l3.4.6c-.2.6-2.4,0-1.6,1.1,1.1,0,2.7.2,2.9-.4h0ZM206.9,404.9c-.2.2.3.8.7.8.7,0,.4-2.1-.7-.8ZM210.1,426.7l-5.1,2c-1.4.4-2.8.7-3.7,1.4v.2l3.7-1.5c1.9-.5,3.9-1,5.1-2ZM222.8,399.6c.3-.8-.7-2.2-1-1.2-.3.8.7,2.2,1,1.2ZM215.5,425h-1.4c-.1.4-3.1,1-1.4,1.2.9-.4,2.6-.3,2.8-1.2h0ZM218.3,424.6c-1.4,0-.9-1-2.8-.8-.7.9,2.4,1.7,2.8.8ZM220.1,403.7c-1.2,0-2.5,0-2.2.8,1.3,0,1.9-.3,2.2-.8ZM223.8,405.3c0-1-1.3-1.4-2.2-1.9-.2,1.1-.1,2.1,2.2,1.9ZM251.4,378.6h-.8c-6.4,0-12,3.4-15,8.4,3.1-1.4,6.6-2.8,7.9-5.1,1.4-.2,1.8-.8,3.6-.8l.8.6c.9-1.1,1.6-2.4,3.5-3.1h0ZM381.9,421.5h5.8v11.8h-2.6c-.3-.6-.7-1-1.3-1.6-.2.4-.2,1-.2,1.6h-1.7c-3.3,0-6.3-.7-9.1-2,0,0-.1,0-.2-.1-.1,0-.2-.1-.3-.1.5,0,.6-.3.7-.6h-.4c.4-.1.5-.2.5-.3l-.5.4v-.2c-.2,0-.1-.2-.4-.3v.2c-.2-.2-.4-.3-.6-.4h.4c0-.2-.4-.7-.7-.3.7,0-.4.2-.2.4.3,0,.3.2.7.1v-.2c-.1,0,.4.4.4.4h-.4c-.7,0-.8-.2-1-.2-6.5-3.9-10.9-11-10.9-19v-2.4h-4.9v25.1c-.4.5-.4,1.4,0,2.4h0v2.8h-11.7v-5.4h.4c.2-.2-.1-.3-.4-.3v-13.9c.1.1.3.2.2.4.8,0,1.2-.7.7-.9-.2.2-.5.2-.9.3v-2.9c.2-.2.4-.3.6-.5,0,0,.1,0,.2,0,.1,0,.4-.4.1-.5h0c.5,0,.5.2.7.3h.1c0-.1.4,0,.4,0l.4-.2c-.2,0-.3.1-.4.2-.1,0-.3,0-.4-.1,1-.8,1.1-1.7,2.4-2.1-.3-.4-.3-.7.2-.9v-.2h.5c-.1-.5.6.1,1.2,0,0-.2,0-.4-.2-.4,1.3-.4,2-1.4,1.7-1.9.2,0,.3.1.2.3.5-.4.9-.8,1.4-1.2h.2c0,.1,2.8-1.8,2.8-1.8h-.6c.2-.3.6-.5,1.3-.5,0,0,2.2-6.1,5-5.7,1.1.3,1.5-.2,1-.7,1.3-.3,1.9-1.7,2.7-2.4h-.2c0-.3-.3-.2-.2,0-.3,0-.3-.3-.5-.4-.4.2-.7.5-1,.8,0-.1-.1-.3-.2-.3-.3.3,0,.3-.5.7,0,0,.2,0,.2.1-.2.2-.4.4-.6.6v-.3h-.4c0,.2.2.3.4.4-.4.4-.9.7-1.6.9v.3-.2c-.1,0-2.7,2.1-2.7,2.1h0c.3-.2.6-.4.9-.3-.3.2-.6.4-.8.7h-.4c0-.1,0-.1,0-.1l-.4.4h0c0,.1-.1.1-.2.1l-1.2,1-5.5,3.7,1.2.4c-.9.8-2,1.5-3.1,2.2-.2.4-.7.9-1.3,1.4,0,0-.1-.1-.3-.2-.3,0-1.7,0-1.7.7.4.1.8.1,1.2,0-.8.6-1.8,1.1-2.4,1.5-.2.1-.3.2-.3.3v-21.2c.2,0,.2.3.3.4.4,0,.7,0,.9-.3-.3-.2-.8-.6-1.2-.2v-25.4c.7-.3,1.4-.7,2-1,.3,0,.3.2.7.1.2-.2.1-.6.5-.7,0,.2.6.1.7,0v-.2c-.1,0,.5.2.5.2-.2,0-.4-.2-.6-.2l.4-.2c-.3-.6.7-.5.5-1h-.4c0,0,1.3-1,1.3-1v.2c.3,0,0,.4.4.4,1.4-1.4,3.5-2.5,5.2-3.8h.6v5.3h-.6s.1,0,.2.1h.4v30.9h17.4c.3,1,1.3,1.7,1.7,1.1.5-.8,1-1.7,1.4-2.6,0,0,0-.3,0-.6-.3-.2-.7-.3-1-.5v-7.3l4.1-1.9c.2.2.3.3.4.3.4,0,.6-.7.3-1.5-.1-.3-.2-.7-.4-.8.1,0,.3,0,.4,0,.2-.7-.5-1.1-1.5-.8,0,.4.2.6.5.8-.2.3-.2.9-.1,1.5,0,.2.2.4.3.6-1.5.6-3,1.1-4.1,1.8v-5.5c.2-.2.3-.4.4-.6h-.4v-2.4h11.8v10.3l-1.5.6c-.5.1-.9.3-1.3.4h0c0,0,1.3-.4,1.3-.4.6-.2,1.1-.3,1.5-.6v2.3c-.1,0-.2,0-.2.2h.2v17.3h-8.7c-.2-.4-.6-.7-.7-.6-.2.2-.4.3-.6.6h-4.5v2.4c0,.6,0,1.2.2,1.7h0c-.2.3-.5.4-.8.5,0-.2,0-.3.1-.4-.2-.8-.6-1.2-.8-1-.3.1-.4.8-.2,1.2.1.2.2.4.4.5-.7.2-1.3.4-1.5.9l.3.2.2.2c.3,0,.4-.2.7-.3v-.3c-.1,0,.4.4.4.4-.2-.2-.4-.3-.6-.4h.6c0,0,1-1.3,1-1.3h0c.3,1.6.9,3.1,1.9,4.4h-.1.2c1.9,2.5,4.9,4.2,8.3,4.2h.3ZM385.4,381.7c.2,0,.1-.7-.3-.3,0,0,.1.3.3.3ZM380.6,391c0,.2.2.5.2.3,0-.2-.2-.5-.2-.3ZM380.9,386.4c0,0-.6.5,0,.6-.3-.3.7-.5,0-.6ZM380.6,384.9v1c1.1.1.6-.9,0-1ZM382.6,400.5h-1v.3h1v-.3ZM384.1,382.1l-2.8,1.4c-.7.3-1.3.6-1.7.9l1.7-.9c1-.4,2.1-.8,2.8-1.4ZM379.8,378.7l1.2.2c0,.2-.8,0-.6.4.4,0,.9,0,1-.1-.7,0,.6-.5-.4-.4,0,0,0-.1-.1-.1-.3,0-.8-.2-1,0h0ZM377.5,381.1c.7,0,.5.2,1,0,.2-.5-1.2-.5-1,0ZM379.7,380.3c-.8,0-1,.2-1.2.4.8.1,1.1-.1,1.2-.4ZM378.7,391.6c.6-.2.7-.5.2-.4,0,0,0,.2,0,.3-.7.3-.4.2-.2.1ZM374.9,392.4c-.1.3-.6.8.2.8,0-.4.3-.6-.2-.8ZM377.5,390.9c0,0,.1,0,.2,0h.1c0-.1-.2-.1-.3-.1h0ZM375.9,391.9c.2.9.6,1.3,1,1,.2-.1.3-.3.3-.7.5,0,.7-.2.8-.5-.5,0-.6.2-.8.4v-.4c-.2-.7-.7-1.2-1-1.1-.3.1-.4.6-.2,1.2h-.1ZM372.7,401.4c.3,0,.5.2,1,.1,0-.4-.9-.5-1-.1ZM343.7,397.3c0-.2,0-.3-.5-.3,0,.2,0,.4.2.4,0,0,0-.2.2-.1h0ZM344.1,404.1c0-.1-.2-.2-.2-.3,0,.1-.2.2-.2.3s.1.3.2.4c0-.1.2-.2.2-.3h0ZM345.3,367.3c-.3.8,1,0,0,0h0ZM345.3,368.9c.3,0,.5.2,1,.1.4-.4-1-.4-1-.1ZM347,397.3c-.3.8,1,0,0,0h0ZM348.3,406.9c-.1,0-.2-.1-.3-.1v.4s.1.1.1,0c0-.1,0-.2,0-.3h.1ZM353.7,364.2c.6.1,1-.5.5-.6,0,.3-.7.2-.5.6ZM349.5,369c0,.3,0,.5.5.6.4-.2.3-.6-.5-.6ZM352,364.3c.1.2-.3.7.3.7.3-.2.1-.5-.3-.7ZM353,371.8c.7-.3.7-.8.8-1.2l-.8,1.2ZM354.4,382.3h-.7c.1.3-.4.3-.2.7.7,0,.8-.3,1-.7h0ZM354.6,380.7c-.4-.4-1.3.4-.7.6-.2-.4.8-.2.7-.6ZM358,400.4h-.8c.2,0,.4.1.8,0ZM360.3,399.1c-.1,0-.2,0-.3,0h.3c0-.1,0,0,0,0ZM361.6,397.7s0,.1-.1.2v-.2ZM344.1,438.7c-.3-.1-.6-.2-.7-.3l.7.3ZM351.2,418.4c1,.2.3-.8,0-.3.3,0,.2.2,0,.3ZM351,420.1c.2,0,.3.1.5.1,0-.1.2-.2.2-.3-.2,0-.3-.1-.5-.1,0,.1-.2.2-.2.3ZM350.3,421.5c.3,0,.6,0,.6-.3-.3,0-.6,0-.6.3ZM349.5,416.8c1,.1,1.5-.9.7-.9-.2.3-1,.3-.7.9ZM348.1,419.1h.1v-.2c0,0,0,.2,0,.2h0ZM345.3,419c.1,0,.2-.1.2-.2.7,0,1.3,0,1.2-.4-.3,0-.3-.2-.7-.1.2.3-.3.3-.4.4.1-.3.1-.7,0-1.2,0-.1,0-.2-.1-.3.2,0,.3,0,.6.1-.1-.4-.4-.7-.5-1l-.3-.2c.3.1.5.2.7.3h.6c.2,0,.4-.1.6-.2.3-.2.2-.4.2-.7l.8-.2h-.7c-.1,0-.1.1-.2.2l-2,.6h-.5c-.2.4-1.7.2-1.5.8,1-.2.7.3.7.7h.1c.2,1,.7,1.7,1.1,1.7h.1ZM347.4,421.3c0,0,0,.2-.2.1v.3c.6.2.7-.4.2-.4ZM346,426c-.2-.3-.2-.7-1-.7,0,.2-.4.2-.5.4,1,0-.2.3.7.4,0-.2.4-.2.7-.1h0ZM346.9,423.2c-.8-.1-.3.4-.7.5.6,0,.6-.3.7-.5ZM347,424.4h.5v-.3h-.5v.3ZM348.2,427.7c-.4,0-.6.1-.7.3.4,0,.7-.1.7-.3ZM349.1,429.2c0-.2-.2-.3-.5-.4,0,.2.2.3.5.4ZM350.2,437.6c-.4,0-.8,0-1-.1,0,.3.4.4.7.6,0-.2.1-.3.3-.4h0ZM350.2,425.1c-.7.4-.6,1.3-.6,1.9l.6-1.9ZM351,428.2c-.4,0-.2-.4-.5-.4-.2.3.4.7.5.4ZM351,436.3l-.3.5c0,0-.1.1-.1.2v-.2c.3-.2.5-.3.4-.5ZM351.8,421.5c-.4.2-.8.3-1.3.5,0,0-.1-.2-.3-.2,0,.2-.2.3-.7.3v.4c-.5.2-.9.4-1.4.6l1.4-.6c0,0,0,.1.2.2.1-.2.8-.3.8-.6l1.3-.5h0ZM351.9,419l.6-.3c-.2,0-.4.2-.6.3l-.4.2c.2,0,.3-.2.4-.2ZM352.7,422c.7-.6-.7-.6,0,0h0ZM353.7,434.9l.4-.3c-.2,0-.3.2-.4.3ZM354.4,436.9h-.3c0,.1-.1.2-.2.3.2,0,.3,0,.4.1v-.4ZM354.8,423.3h-.5v.3h.5v-.3ZM360.3,405c0,0,.2.2.2,0-.6-.1-.7-.4-1.2-.6-.1.5-.3.6.5.8,0-.2.3-.2.5-.3h0ZM360.3,406.2c0,0-.6.5,0,.6,0,0,.6-.5,0-.6ZM363.8,403.1c-.8.4.9.4,0,0h0ZM365.4,417.9c0-.2-.1-.4-.2-.7l-.2.2c0,.2.2.4.2.6,0,0,.2-.1.2-.2h0ZM367.5,405.9c-.3,0-.7,0-.7.1.3,0,.4.2.7.3v-.4ZM370,428.7c-.2,0-.4,0-.6,0h.6ZM372.1,419.1h-.8c.3.1.6.1.8,0ZM372.4,428.7c0-.6-.3-1-.6-1.1-.2,0-.4.3-.3.8,0,.4.4.8.6.8.2,0,.2-.3.3-.4ZM373.4,428.8c-1.1-.1-1,.4-1.2.8h1c.2-.4,0-.3.2-.8h0ZM374.9,429.8c-.7,0-1,0-1,.4.4.2,1,0,1-.4ZM381.2,427c-.1-.1-.3-.4-.6-.6-.3-.1-.4.4-.3.9.1.6.4,1,.7.9.3-.1.4-.6.2-1.3h0ZM382.6,426.4c0,.2.2.4.3.5.2.1.3-.2.2-.8-.1-.1-.3-.4-.4-.4s-.3.3-.2.7h0ZM409.4,366.1h-.2c0,.1.2.1.2.1h0ZM334.8,368.4c0,4.2-3.5,7.8-7.8,7.8s-5.5-1.7-6.8-4.2c.1,0,.3,0,.3-.1h-.4c-.5-1-.8-2.1-.8-3.4s.5-3.1,1.3-4.3l1.2-.4c-.4.1-.8.3-1.2.4,1.4-2,3.7-3.3,6.3-3.3s1.3.1,1.9.2c-2,.8-4.2,1.4-6.3,2.1l.4.2v.2c2.9-.2,4.6-1.3,7.3-1.9,0,0,0,0,0-.1,2.6,1.2,4.4,3.9,4.4,6.9h0ZM331.1,368.1c.3,0,.6.2.9.3,0-.2.1-.3.2-.4h0c0-.1,0-.3-.2-.4-.2.2-.2.3-.2.4-.4,0-.8,0-.8.1h0ZM328.2,370.2h0l1.2.2c0,.2-.8,0-.6.4.4,0,.9,0,1-.1-.7,0,.6-.5-.4-.4,0,0,0-.1-.1-.1-.3,0-.8-.2-1,0h0ZM328.2,365.2c-.2-.3-.2-.7-.7-.8,0,.1,0,.3-.2.3,0,.3.4.5,1,.6h0ZM327.8,362.8c.4-.2.3-.6-.6-.2-.9.3.8.1.6.2ZM326.5,363.5c.7.1.5-.3.7-.4-.7-.1-.5.3-.7.4ZM326.2,366.2c-.7-.3-.3.4,0,0h0ZM323.1,368.2c-1.3,0-1.6-.6-2.6-.8,0,.3,0,.6-.2.8.7,0,.8.1,1.2.5.3,0,1-.3,1.7-.5h0ZM325,365.1c-.6.6.9.8,0,0h0ZM325.5,367c.2.3,1.7-.2,1-.4.1.4-.9.1-1,.4ZM325.8,372.5c.7,0,.5.2,1,0,.2-.5-1.2-.5-1,0ZM326,373.7c-.1.7.6,1,1.5.8.2-.7-.5-1.1-1.5-.8ZM328,371.7c-.8,0-1,.2-1.2.4.8.1,1.1-.1,1.2-.4ZM332.5,373.6l-2.8,1.4c-.7.3-1.3.6-1.7.9l1.7-.9c1-.4,2.1-.8,2.8-1.4ZM333.8,423h.6v-.2c-.3,0-.5.1-.6.2ZM392,378.6h17.7v1.5c-.3.3-.4,1-.4,1.7-.9,0-.4.8-.1.4-.5,0-.2-.1.1-.2,0,.6.2,1.2.3,1.6,0,0,0,.1.1.2v32.5h0c-.4,0-.8.2-1,.8-.4,1-.3,1.5.4,2.5.3.3.4.5.6.4v8.7c-.3-.2-.6-.3-.9-.2-.8.2-1.5.2-2.4-.3-.1,0-.3.2-.3.3s0,.5.1.8c0,.2.2.5.3.7.7.8,1.3,1.5,1.9,2.3.4-.3.7-.7,1-.8,0,0,.2,0,.2,0v2h-11.7v-8.3c.2-.2.5-.3.8-.4.5-.2.9-.5,1.3-1.1.2-.3.4-.6.8-.7.4-.2.8-.3,1.1-.5.4-.2.8-.6,1-1.1.1-.2,0-.8-.2-.9-.1-.1-.3-.2-.4-.2-.4,0-.9,0-1.3.1-.1,0-.2.3-.3.4s-.1.4-.2.8c-.2-.4-.2-.6-.3-.7,0-.2-.1-.4-.2-.6-.2-.4-.5-.6-.6-.2,0,.2-.1.5-.2.8,0,1.3-.5,1.9-1.2,2h-.2v-18.1l.3-.2.2.2c1.8-.9,3.5-1.9,5-3h-.4l.6-.3c.3-.2.6-.3.8-.6l-.8.6c-.2.1-.4.2-.6.4l-.3-.2c-1.9.3-2.1,1.5-4,1.6v.9c-.4,0-.6.1-.7.3l.3.2c-.1,0-.2.1-.3.2v-7.5h0v-6.6h-6.1v-5.3c.1.2.2.3.3.3.1,0,.2-.2.4-.5-.3-.3-.4-.6-.5-.5-.1,0-.2.2-.2.3v-6.1h0ZM398.3,406.9c.2,0,.3.1.5.1h-.5ZM399.1,411.4c.2-.5-.7-.5-.7-.1.3,0,.6,0,.7.1ZM399.7,416.2c0-.4-.3-.8-.6-.8s-.4.4-.3.8c0,.4.3.8.6.8.2,0,.4-.3.3-.8ZM400.5,410.8h-.9c.3.1.6.1.9,0ZM401.7,406.2h-.7c-1.1.9.6.9.7,0ZM401.9,410.2c-.1-.3-.9-.2-.9.1.4-.1.9.4.9-.1ZM399.1,432.2c0,0-.2-.2-.2-.2,0,0,0,.2-.1.4.1,0,.2.2.3.2,0,0,0-.2,0-.3h0ZM400.9,429.8c0-.2-.3-.2-.4-.3,0,.3,0,.4,0,.6s.2.4.4.3c.2,0,.2-.3.1-.6h0ZM403.9,431.3c-.2-.5-.5-.8-.8-.7-.2.1-.3.6-.1,1,.2.4.4.7.6.7s.4-.6.3-1h0ZM404.3,419.7c0,0-.1-.2-.1-.2h-.2c0,.1-.1.2,0,.2,0,.1.1.3.2.3,0,0,.2,0,.2-.1v-.2h0ZM409.1,397l.4-.6c-.2.2-.3.3-.4.6ZM402.2,392.7c-.1.2-.2.3-.2.6.6.1.6-.6.2-.6ZM404.5,394.5c-.3,0-.3-.2-.6-.1v.4c.2,0,.4.2.4,0-.1,0-.2,0-.2-.1.1,0,.3,0,.3-.1h0ZM405.8,392.5h-1.3c.4,0,.9.1,1.3,0ZM405.2,419.4h0c.2,0,.4-.1.6-.2,0,0,0,0,0-.1-.2.1-.4.2-.6.3h0ZM405.9,423.8c0-.4-.3-.7-.4-.6-.2,0-.3.3-.2.7.1.4.3.6.5.4.1,0,.2-.3.1-.6h0ZM407.6,417.8s-.1-.1-.2-.1c0,0,0,.2-.1.3,0,0,.2.1.3.2v-.4h0ZM408.2,396.7c-.2-.1-.7.1-.7.1-.2.2.9,0,.7-.1ZM408.2,378.6c-.7.5.9.6,0,0h0ZM407.7,382.2s.1.1.2.1l.6.4c.1-.2-.3-.3-.6-.4h-.2ZM404.7,380.4c.7-.3.7-.8.8-1.2l-.8,1.2ZM404.4,385.7c.3,0,.6,0,.5.3.9-.3.9-.2,2,0,.4-.6,1.3-.9.7-1.6h-.4c.3,0,.4-.1.5-.2l-.5.3v-.2c-.4,0-1.2-.2-1.9-.4-.4.7-.4,1-1,1.9h0ZM404,387.6c.2.8.5,1.2.9,1.2s.5-.6.2-1.5c-.2-.7-.5-1-.8-1-.3,0-.4.6-.3,1.2h0ZM404,390.6c-.9-.2-.3.4,0,0h0ZM403.2,383.4c.5.4.4-.4,0,0h0ZM401.5,392c.8,0,1.6.2,2.4,0l-.3.4c-.1.1-.2.2-.2.3l.2-.3c.2-.1.3-.3.4-.4h.1l.2.6c0-.1,0-.2,0-.4,0,0-.2-.1-.2-.2h.6c-.2-.1-.4-.1-.6-.1h0c0,.1-.1.1-.1.1.1-.1.2-.2.2-.4h.2c.6,0,.1-.5.2-.7-.3,0-.6,0-.7-.1-.1.3-.5.7,0,.9h.2c0,0-.3.3-.3.3h-2.4.1ZM399.1,389.8h.8c-.2,0-.3,0-.6-.1-.1,0-.2,0-.3.1ZM398.6,395.1c.1,0,.1-.2.1-.3v.3ZM397.2,389.1c-.2,0-.2,0,0,.1.2,0,1.2-.5,0-.1ZM395.6,385.7l1.4-.6c.2,0,.4-.1.6-.2l-.6.2c-.5.2-1.1.3-1.4.6ZM394.7,383.5c.6.2.7-.4.2-.4,0,0,0,.2-.2.1v.3ZM392.8,380.4c0-.2.6-.1.5-.4-.5-.1-.9.4-.5.4ZM402,360.8c1.3,0,2.5.3,3.5.9h-.3c-.5.7-1.4,1-2.9,1,0,0-.1.1-.2.2h0c0-.1-1.3.3-1.3.3l-2.7.4,1.4.2c-.1.1-.3.2-.5.3-.3,0-.2-.2-.4-.3-.4.1-.2.3.1.4-1,.3-2.5.5-3.4.9,0,0-.2,0-.2,0,1.3-2.4,3.8-4.1,6.8-4.1h.1ZM402.8,362.3c.6,0,.9,0,1-.4-.4-.3-1,0-1,.4ZM406.2,362.3l-.3-.4c1.3.7,2.3,1.8,3,3.1,0,.3-.5.4.2.5h0c.1.2.2.4.2.6,0,0-.1,0-.1.1h-.4c-3.1,1.9-6.1,4-8.9,6.1l.4.2c-.8.2-1,.7-1.3,1.1l-.3-.2c-.6,0-.8.2-1.2.3-.1.2-.3.4-.5.6-1.6-1.4-2.6-3.5-2.6-5.8s.1-1.7.4-2.4c.9-.1,1.5-.4,1.9-.8,1.9.3,3.3-.7,4.8-1.2,1.8-.6,3.7-1.1,4.8-1.8h0ZM397,367.2h1v-.3c0-.1-.2-.2-.5-.1,0,.3-.3.3-.5.4ZM396.9,369c.1,0,.2,0,.3-.1h-.3ZM395.9,368.9h-.2c.1-.2,0-.4-.3-.4,0,.2-.1.2-.2.3h-.4c0,.3,0,.6.2.8.8,0,.8-.3.7-.7h0ZM398.1,372.1c-1-.1-1.2.5-1.7.8l1.7-.8ZM400.2,370.5c-.4.2-.2.7.5.7.4-.2,0-.6-.5-.7ZM403.4,365.9c.8.4.7-.5,0,0h0ZM403.9,366.8c-.2,0-.2,0,0,.1.2,0,1.2-.5,0-.1ZM405.5,365.5c-.2,0-.2-.1-.3-.1,0,.3-.6.1-.6.4.4-.1.2.4.6.4,0-.2,0-.4.3-.4v-.3ZM406.5,365.1c-.2.3-.8.7-.2,1,1,.2.9-1,.2-1ZM311.5,378.6h2.7v10.6c-.1,0-.2,0-.2-.1h-.4c0,0-.3-.1-.3-.1-.7.4-1.4.9-2.1,1.3h-6.3l7.1-5.3c-2.7,1.7-5.3,3.5-8,5.3h-6.3c.7-.4.9-.7-1.2-.2,2.1-.9,4.3-1.9,6.4-2.9h.9-.8c2.5-1.2,5-2.4,7.4-3.6l-7.7,3.6h-.9c.3,0,.5,0,.7.1l-6.7,3.1h-5.8v2.6l-2.4,1.1v-.3c-.8-.1-.8.2-1.2.3,0,.2.4,0,.5.1h.4c0,0,.3.1.3.1.3,0,.6,0,.5-.3h-.5c.8-.4,1.6-.7,2.4-1.1v14.6l-1.9,1c-1.3.5-2.5,1-3.4,1.8l3.4-1.8c.6-.3,1.3-.5,1.9-.8v3.4c-.8.3-1.6.7-2.4,1.1-.2-.4-.7-.8-1.1-.9v1.5c-.4.2-.8.4-1.2.6h-.7c.2.1.4.1.7,0v.3c0,0,0-.2,0-.3l1.2-.6v.6c1.3.1,1.4-.5,1.2-1l2.4-1.1v12.2c-1.6.5-3.2,1-4.5,1.7l4.5-1.6v9.8h-2.7c-.3-.2-.5-.1-.6,0h-8.5v-19.7l4.2-2c-1.4.5-2.9,1-4.2,1.6v-28.1c3.9-.8,6.8-2.4,11.1-3.4v-2.3c-3.4,1.5-7.3,2.7-11.1,4v-4.8h23.3c0,.3.1.7.3.8.4.1.7.4,1,.6.3.1.7.2.8-.2.2-.3,0-.8,0-1.2h7.4c0,.3.2.4.4.4,0,0,0-.2,0-.3v-.2h0ZM280.9,381.2s-.2,0-.4,0c-.2,0-.2,0,0,0h0c.2,0,.4,0,.4,0ZM287.1,430.6c-.4-.4.8-.9-.2-.8,0,.4-.4.6.2.8ZM289.7,422.5c-.4,0-.8.2-1.2.2l1.2-.2ZM288.9,419.3c0,.2-.2,0-.3,0-.2.6.9.2.3,0ZM288.6,417.4c.2-.1,1.1-.7,0-.7.2.2-.7.6,0,.7ZM287.2,415.1c-.7-.6,1.3-1,0-1-.2.2-1.2,1,0,1ZM287,423.8c.1-.3-.3-1-.5-.5-.1.3.3,1,.5.5ZM283.8,387.4c-.1.2,0,.5-.5.6,0,.7.7,1,2,1-.4-.6-.3-1.4-1.5-1.6h0ZM284.2,384.1h.2c.1,0,0,0-.2,0l-.9-.4c-1.4.5.2.4.9.4ZM281.8,385.6c1.3.2.9-.6,1.5-.8-1.3-.2-.9.6-1.5.8ZM281.1,390.9c-1.4-.7-.7.8,0,0h0ZM278.9,388.7c-1.3,1.2,1.8,1.5,0,0h0ZM279.9,392.4c.5.6,3.3-.4,2-.8.2.7-1.8.3-2,.8ZM280.4,403.5c1.3,0,1,.4,2,0,.4-1-2.4-1-2,0ZM283.8,407.5c.4-1.4-1-2.1-3-1.6-.2,1.3,1.2,2,3,1.6ZM282.4,415.3c-.2-.4.4-.4.2-.8h-.2c.2,0,.4-.2.6-.3l-.6.4h-.2c-.9-.1-1.3,0-1.5.3h.4c0,.1.3.3.3.3.8-.1.5-.1,1,.1h0ZM282.2,419c.7.2.7-.6.2-.6,0,.2-.3.3-.2.6ZM283.2,423.8c-.2,0,.1.4,0,.5-1.3.6-.8.3-.5.3,1.2-.4,1.3-1,.5-.8ZM284.2,417.3c-.3,0-.5-.2-1-.1,0,.4.9.5,1,.1ZM284.4,404.9c-.3-.7.2.3,0,0h0ZM284.8,402c-1.5-.1-2,.3-2.5.8,1.7.2,2.1-.2,2.5-.8ZM289.6,394.2c-.7.6.7.6,0,0h0ZM288.7,396c0,.2,0,.3.2.5l-.2-.5ZM285.1,398.8h0c0,.1,2.3.5,2.3.5-.1.4-1.6,0-1.1.8.7,0,1.8.1,2-.3-1.3,0,1.3-1-.9-.8,0-.1-.2-.2-.3-.3-.6,0-1.7-.3-2,.1h0ZM286.9,385h-.5v.3h.5v-.3ZM289.1,384l-.6.3c.3,0,.4-.2.6-.3ZM289.3,381.9c-.2,0-.6,0-.6.1.3,0,.1.4.4.4.3-.3-.1-.3.2-.5ZM307.9,380.2c0,0,.2.2.2.1,0,0,0-.2,0-.3,0,0-.1-.2-.2-.2-.1,0-.2.2-.1.3ZM306.3,379.6c0,.3.2.5.4.6.2,0,.3-.3.2-.6,0-.3-.3-.6-.4-.5-.2,0-.2.3-.2.6h0ZM306.7,381.3c-.1,0-.1.2,0,.3,0,0,.1.1.2.2,0-.1,0-.2,0-.3,0,0-.2-.2-.2-.2h0ZM306.3,381.9c.1,0,.2.1.2.1.1,0,.2-.1.1-.2,0,0-.1-.2-.2-.2s-.1.1-.2.3h0ZM304,381.1c0,.2.2.2.3.2.1,0,.2-.2.2-.4s-.1-.3-.2-.3h-.2s-.1,0-.1.1c0,.1-.1.2,0,.4h0ZM303.4,382.6c0,.1.2.2.3.2s.2,0,.2-.1c.1-.1.2-.3.1-.5,0-.2-.2-.2-.4-.3-.1.1-.2.2-.2.3v.4h0ZM302.8,383.9c0,.3.2.4.4.4.3,0,.4-.3.3-.7,0-.3-.2-.5-.4-.4-.3,0-.4.3-.3.7h0ZM292.1,386c-.8.4.9.4,0,0h0ZM296.6,387.7l-2,.8c-.7.3-1.3.5-1.9.8l1.9-.8c.7-.3,1.4-.6,2-.8ZM298,381.2c0-.1-.1-.2-.2-.2,0,0,0,.1-.1.2.1,0,.2.1.2.1s.1,0,.1-.2h0ZM308,383.3s0-.1-.1-.1h0c0,.1.1.2.1.2h0c0-.1,0-.1,0-.1ZM309,381.9c-.8.3-1.5.7-2.1,1l-2,1-.3-.2c-.2,0-.5,0-.5-.1-.4.2-.4.6-.7.8h.4c-.9.3-1.7.8-2.5,1.2l-1.9.9c.7-.2,1.3-.6,1.9-.9l2.5-1.2h.4c.7,0,.9-.2,1.2-.4h-.4c.8-.4,1.4-.7,2-1.1l2.1-1h0ZM309.4,383.5c-.1-.2-.2-.2-.3-.1v.2c0,.2.2.2.3.2h.1v-.2h0ZM309.8,381.4c0-.2-.1-.4-.3-.4s-.2.2-.2.4.2.3.3.5c0-.2.1-.3.1-.5h0ZM300.6,389c3,1.3-1.1-.5,0,0h0ZM311.1,382.9c-.1-.3-.2-.4-.3-.3s-.1.3,0,.4c0,.1.2.2.2.2,0,0,.1-.2.1-.3h0ZM313.4,382.8c.7,0,.2.5.7.6v-.7c-.3,0-.7,0-.7.1ZM312.8,383.2s0,.1,0,.2c.1,0,.3,0,.3-.2.2-.1.2-.3,0-.6-.1-.1-.2-.3-.3-.2v.6h0ZM399,373.6l1.3-1.1v.2c.3,0,0,.4.4.4,2.1-2,5.3-3.4,7.2-5.6.4-.1.7-.3,1.2-.4-.1-.3.2-.4.4-.6.2.6.2,1.2.2,1.8,0,1.9-.7,3.7-1.9,5,0,0-.1,0-.2,0-.1,0-.4.4-.3.6-.3.2-.5.4-.8.7h-.7s.1,0,.2.1h.4c-1.3.9-2.8,1.4-4.5,1.4s-2.8-.4-3.9-1.1c.2,0,.4,0,.6-.1v-.2c-.1,0,.5.2.5.2-.2,0-.4-.2-.6-.2l.4-.2c-.3-.6.7-.5.5-1h-.4ZM406.8,369.4c0,0,.1.1.2.2l-.2-.2ZM405.4,372.7c.6.1,1-.5.5-.6,0,.3-.7.2-.5.6ZM403.9,373.5c.3-.2.1-.5-.3-.7.1.2-.3.7.3.7ZM271.1,395.4v20.2c0,9.8-7.9,17.6-17.6,17.6h-2.9c-9.8,0-17.6-7.8-17.6-17.6v-19.4c0-1.8.3-3.5.7-5.1,2.6-1.2,5.3-2.3,7.5-3.7.9,0,1,.5,2.2.4.4-.7.4-1.6,1.5-1.9.2.6,1.6.3,2.2,0l-.4-.7,1.8.5c-.6-.2-1.1-.4-1.8-.5l1.1-.4c-.9-1.8,2-1.5,1.4-3.1l-1.3.2,3.7-3.1h.1l-.3.6c1.2,0,.4,1.1,1.4,1.2l-1-1.8h1.7c6.4,0,12.1,3.5,15.2,8.6-3.8,1.2-7.7,2.4-10.9,4l10.9-3.9c1.1,1.9,1.9,4.1,2.2,6.3-.3-.1-.7-.3-1.2-.3,0,.6,0,1.2-.5,1.5,1,0,1.4.1,1.9.5h-.1ZM261.1,402.2c-.7-.8,1.5-1.8-.5-1.6,0,.9-.9,1.1.5,1.6ZM261.6,407.5c-1.7-.8-1.5,1,0,0h0ZM263.9,386.5l2.3-.4c-.8,0-1.5.3-2.3.4ZM258.9,386c-2.1,0-1.3-1.5-4.2-1.2-1.1,1.4,3.6,2.5,4.2,1.2ZM250.4,388.3c1.4-.6,4-.6,4.2-1.7h-2.1c-.2.6-4.6,1.5-2.1,1.7h0ZM242,388.5c-.8,2.3,3.1.2,0,0h0ZM233.5,394.5l5.7-2.3c2.9-.8,5.9-1.5,7.6-3.1l-7.6,3.1c-2.1.6-4.1,1.1-5.6,2v.2h0ZM242,393.2c1,.1,1.4.6,2.9.4,1.2-1.1-3.1-1.1-2.9-.4ZM236,409.9c0,.2-.1.4-.7.4v.8c1.8.6,2.1-1.3.7-1.2ZM241.9,415.9c.6-.2,1.1-.4,1.5-.6l-1.5.6c-1.5.5-3.3.8-4.1,1.7l4.1-1.7ZM242.7,427.5c-.6.2-.6.1,0,.4.5.2,3.6-1.4,0-.4ZM250.5,429.7c-.4-.1-.9-.3-1.7-.4-.2.1-.5.2-.7.3h2.4ZM259.4,396.2c0-3.2-2.6-6-5.8-6h-2.9c-3.2,0-5.8,2.7-5.8,6v19.4c0,3.2,2.6,5.8,5.8,5.8h2.9c3.2,0,5.8-2.6,5.8-5.8v-19.4ZM261.1,413.3c-.1.4-.8.4-1,.8,1,.2,2.2-.7,1-.8ZM261.1,411.4c2.9.8,3.6-.3,0,0h0ZM267.3,421c0-.7-.3-1.2-.9-1.5-.4.6-.8,1.5.9,1.5ZM269.9,402.2c-1,0-1-.3-1.5-.6.1.4-.2,1,.5,1,0-.3.9-.2,1-.6h0ZM334.5,422.7c0,0,.1,0,.2,0v10.6h-11.7v-3.6c.4-.2.8-.3,1.3-.4,2.4-1.2,4.1-2.8,6.2-4.1.7,0,.5.2,1,0,0-.2-.4-.2-.7-.1,1.4-.4,1.7-1.3,2.7-1.9v-.2c0,.1.2.2.4.2s.3-.1.5-.2c0-.1-.1-.3-.3-.4h.4ZM324.8,429.4l-.8,1.2c.7-.3.7-.8.8-1.2ZM327.1,432.5h-.2c0-.1.1,0,.2,0l.6.4c.1-.2-.3-.3-.6-.4ZM327.5,428.8c-.7.5.9.6,0,0h0ZM328.7,432c-1.1-.2-.7.8-.2.4-.7,0,.4-.2.2-.4ZM314.2,390.3v-.4c-.2.2-.4.3-.7.4h.7ZM322.4,378.6h12.3v2.3c-.4,0-.7.1-.8.3.2.1.6.2.8.1v1.4c-.2,0-.6-.1-.6.1h.6v38s0,0-.1,0v-.4c-.1-1.1-.6-1.8-1-1.8s-.9.6-.7,1.8v.3c.1.4.2.8.4,1.2-.7.5-1.5,1-2.3,1.5-.8.5-2.5,1.1-2,1.7-.4,0-.6.1-.5.4-.3,0-.3-.2-.2-.4-.6.2-.8.7-1,1.2-1,.5-2.5,1-3.7,1.7-.4.2-.2.5-.5.7h-.1v-5h.2c.3-.2.1-.4-.2-.6v-2.1c1.5-1,3.1-2,4.1-3.3.4-.1.7-.3,1.2-.4-.3-.6,1.3-.6.5-1h-.4c0,0,.6-.3.6-.3v.3c.3,0,.6,0,.5-.3h-.5l.3-.2c-.1,0-.2.1-.3.2l-.2-.3c-.2,0-.3,0-.2.1h.5c-.2.2-.4.3-.6.4h-.4c-1.8,1-3.5,2.2-5.1,3.4v-3.6c.3,0,.3-.3,0-.2v-2.4c1-.3,1.9-.7,2.5-1l-.6-.7-.4.2c-.3.3-.8.6-1.5.8v-.4s0,0,0-.1h0v-21.1l.8.2c-.3-.1-.5-.2-.8-.3v-.2h.3c-.2-.6-.1-.8.2-1h0c.1.3.3.4.4.6.3,0,.4-.6.3-.9,0,0,0,0,0-.1.2-.2.3-.4.2-.8h-.9c0,.1,2.6-2.1,2.6-2.1l-.3.5c.8,0,.3.7,1,.8l-.7-1.3c-1.5.4-2,1.4-2.6,2.2l-.6-.4c-1.2,0-1.5.4-2.5.6-.3.6-.8,1.1-1.5,1.5h-1.9v-11.7h5.3c0,0-.1.1-.2.1h.3c0-.1,0-.2,0-.2ZM319.3,381.2c0-.3-.1-.6-.5-.8-.2.3-.4.7.5.8ZM321.6,385.7c-2-.2-2.4,1-3.5,1.6l3.5-1.6ZM324.7,408.3c-.1-.3-.3-.4-.6-.8,0,.4-.1.7-.1,1,0,.4.3.6.4.5s.3-.3.2-.7h0ZM323.2,417c-.2,0-.2,0,0,.1.2,0,1.2-.5,0-.1ZM324.8,415.6c-.2,0-.2-.1-.3-.1,0,.3-.6.1-.6.4.4-.1.2.4.6.4,0-.2,0-.4.3-.4v-.3ZM325.8,415.3c-.2.3-.8.7-.2,1,1,.2.9-1,.2-1ZM326.8,391.5c0-.5-.4-1-.7-.9-.2,0-.3.6-.2,1,.2.4.4.7.7.7,0-.2.2-.4.1-.7h0ZM325.2,421.1c-.3,0-.6-.2-1.1-.3-.2,0-.3.1-.5.2h1.6ZM325.2,422.4c0,.3-.7.2-.5.6.6.1,1-.5.5-.6ZM326.1,424.8h-.9s.1,0,.2.1c.2,0,.4,0,.7-.1h0ZM326.3,419.8l-.2-.2c0,0,.1.1.2.2ZM326.9,423.6c-.2,0-.6.6,0,.7-.2-.2.7-.6,0-.7ZM333.4,417.5h-.1c0,0,0,0,0,0h.1c0,0,0,0,0,0ZM331.6,381.5l1.3-.5c.7-.2,1.3-.3,1.7-.7l-1.7.7c-.5.1-.9.3-1.3.4h0q0,0,0,0ZM328.2,415c.1.4-.6.5.2.7.6-.3.5-.5-.2-.7ZM329.3,383.5v.2h.3l-.3-.2h0ZM328.9,413.1c.7.1.5-.3.7-.4-.7-.1-.5.3-.7.4ZM329.1,382.7c0-.2-.2-.5-.2-.3,0,.2.2.5.2.3ZM327.9,409.2c.9.2,1.2-.6.7-.7,0,.3-1,.2-.7.7ZM327.2,382.9c-.7.3-.4.2-.2.1.6-.2.7-.5.2-.4,0,0,0,.2,0,.3ZM325.3,383.8c.6,0,.9-.2.9-.5-.7,0-.6.4-.9.5ZM323.3,384.6c0-.4.3-.6-.2-.8-.1.3-.6.8.2.8ZM352.7,406.9c.1,0,.2,0,.3,0,.1-.1.3-.2.4-.3-.3,0-.6.2-.7.3ZM357.1,346.8l-3.1,1.8h3.1v-1.8ZM360.8,330.4l-16.5,9.9c-1.2.7-2.4,1.3-3.5,2l-5.7,1.8.6,1.3c-.7.4-1.5.9-2.2,1.4l2.3-1.3,1.4,2.9c-.6.5-1.3,1-2,1.3l4.6,6.9h-16.9s-.6-2.4,7.3-4.1c-.3-.4-.5-.7-.7-1-3.5.6-6.4.3-6.4.3l-2.8-6,7.8-2.9-8.3,1.9c-.9-2.6.4-5.5,3.4-6.9l11.7-5.6v-3.5l4-1.9c-1.4.5-2.9,1-4,1.7v-1.8l-1.4,1.5c-1.9,2.1-5.7,2.4-8.2.8l-3.6-2.5v6.2h-3.5v-3.5c.3,0,.6.1.8.2,0-.8.5-1.3,1-1.7h-.2c.2-.4.1-1.1-1-2-.3.5-.6.9-.6,1.2v-3.3h-.6c-1.4-.2-2.6-1-2.8-2.1l-1-4.5h-2.1v-1.9h6.8v-40.5l3.3-4v2.1h0c-.2,0-.2,0,0,0h0v18.7h0c-.2,0-.4.2-.3.3.1.1.2.2.3.3v23.1h6.8v.6c-.6.2-1.2.5-1.8.8l1.8-.6v1.2h-4.5l2.6,1.3c1.3,0,2.6-.1,3.8-.2.3-.6.6-1.3.9-2,.2-.5.5-1,.8-1.5l1.9-.7c-.6.2-1.3.4-1.9.6,2.3-4.2,5.4-7.3,6.9-8.7.3-.3.6-.5.8-.7h0c-.3-.2-.6-.4-.8-.6-.2-.2-.5-.3-.7-.5-1.3-.9-2.4-2-3.4-3.2,1.7-.7,3.3-1.5,4.8-2.3.2.6,1.1.6,1.9.8l-1.9-.8.8-.5c.1,0,.2-.1.3-.2v-.7c-.1.2-.1.4,0,.7l-.3.2c-.3.2-.7.3-.8.5l-4.9,2.3c0-.1-.2-.2-.2-.3-1.4-1.8-2.3-3.8-2.7-6h.5c0-.2-.2-.3-.4-.3h0c-.1-.7-.2-1.3-.2-2v-3.4c.2,0,.5,0,.8,0,.5-.1.9-.5.7-.7,0,0-.3-.1-.6,0-.4,0-.7.2-.9.3v-2c0-.4,0-.9,0-1.3h0c0-.3,0-.5.1-.7h0c0-.1,0-.2,0-.4,6.6-2.9,13.3-5.8,19.5-9l-16.6,7.7c-.2,0-.3-.1-.4-.1s-.2.1-.3.2c0,.1.1.2.3.2l-2.3,1c0-.1,0-.2,0-.3h0c0-.2.1-.4.2-.7h0c0-.3.1-.5.2-.7h0c0-.3.2-.5.2-.7h0c0-.3.1-.4.2-.6,0,0,0-.1.1-.2h0c.1-.3.2-.5.3-.7h0c.1-.3.2-.4.3-.7h0c.3-.5.7-1,1-1.5.3-.4.7-.8,1-1.2.3-.3.7-.7,1-1,.2-.2.5-.4.8-.6,2.4-1.9,5.5-3.4,8.9-4.1,0-.3-.1-.6-.1-.9,0-3.3,3.1-6,7-6s7,2.7,7,6-.1,1.2-.3,1.7c4.4,1.5,7.9,4.2,10,7.6h0c.1.2.2.4.3.6h0c.1.2.2.4.3.6,2.9-.9,8.8-2.3,14.4-1.3l-1,4.1s-5.6-1.2-11-.6c1.7.4,3.8,1,5.9,1.9-.1.3-.7.1-.7.4h.9c0-.2,0-.3-.1-.4,1.8.8,3.6,1.8,5.1,3.1l-3.7,2.9s-3.6-3.3-8.3-5.2v6.7c0,2.9-.9,5.5-2.6,7.8-.3.1-.9.1-.6.5h.2c-.8,1-1.8,2-2.9,2.9l-.3-.3-.4.2c-.5.6-1.4.9-2.9.9,0,0-.1.1-.2.2h0c0-.1-1.3.3-1.3.3l-2.7.4,1.4.2c-.1.1-.3.2-.5.3-.3,0-.2-.2-.4-.3-.4.1-.2.3.1.4-1,.3-2.5.5-3.4.9-.4-.2-.6.1-1.4,0,0,.3.3.3.5.4-.3,0-.6.2-.7.4l.4.2-4.1,1.2c1.5-.2,2.7-.8,4.1-1.2v.2c1.2,0,2.1-.4,2.5-.9,1.9.3,3.3-.7,4.8-1.2.9-.3,1.9-.6,2.7-.9-.2.1-.3.2-.4.3.8.6,1.5,1.3,2.3,2.3,0,.1,0,.2.2.3h0c.3.4.6.8.8,1.2-2.5,1.6-4.8,3.3-7.1,5l.4.2c-.8.2-1,.7-1.3,1.1l-.3-.2c-.6,0-.8.2-1.2.3-.8,1.5-4.2,1.7-4.7,3.4h.4c0,0-3.7,2.1-3.7,2.1-.8.4-1.6.9-2.4,1.5l2.4-1.5c1.3-.7,2.5-1.4,3.7-2.2v.2c1.3-.6,2.6-1,3.6-1.7.3,0,.3.2.7.1.2-.2.1-.6.5-.7,0,.2.6.1.7,0v-.2c-.1,0,.5.2.5.2-.2,0-.4-.2-.6-.2l.4-.2c-.3-.6.7-.5.5-1h-.4c0,0,1.3-1,1.3-1v.2c.3,0,0,.4.4.4,1.9-1.9,4.8-3.2,6.7-5.1.8,1.7,1.3,3.7,1.3,6.2v.8c-6.8,2.1-13.5,4.4-19.3,7.3l12-4.2c0,0,.2,0,.3,0,.1,0,.2-.2.2-.2l6.8-2.4v5.5c-4.5,2-8.7,4.1-9.9,7.9l1.7-.3h.3ZM368.5,320.4c-.7.5.9.6,0,0h0ZM365,322.1c.7-.3.7-.8.8-1.2l-.8,1.2ZM363.5,325.1c.5.4.4-.4,0,0h0ZM367,316.4h-.9s.1,0,.2.1c.2,0,.4,0,.7-.1h0ZM367.9,315.8c-.2-.2.7-.6,0-.7-.2,0-.6.6,0,.7ZM367,311.1c0,0,.1.1.2.2l-.2-.2ZM365.7,314.5c.6.1,1-.5.5-.6,0,.3-.7.2-.5.6ZM364.2,315.3c.3-.2.1-.5-.3-.7.1.2-.3.7.3.7ZM357.3,319.3c.3,0,.5.2,1,.1.4-.4-1-.4-1-.1ZM357.3,317.7c-.3.8,1,0,0,0h0ZM364.9,307.4c.4-.1.2.4.6.4,0-.2,0-.4.3-.4v-.3c-.2,0-.2-.1-.3-.1,0,.3-.6.1-.6.4ZM364.2,308.6c-.2,0-.2,0,0,.1.2,0,1.2-.5,0-.1ZM363.7,307.6c.8.4.7-.5,0,0h0ZM361,312.9c.4-.2,0-.6-.5-.7-.4.2-.2.7.5.7ZM357.3,309h1v-.3c0-.1-.2-.2-.5-.1,0,.3-.3.3-.5.4ZM357.2,310.7c.1,0,.2,0,.3-.1h-.3ZM356.7,314.7l1.7-.8c-1-.1-1.2.5-1.7.8ZM355.5,311.3c.8,0,.8-.3.7-.7h-.2c.1-.2,0-.4-.3-.4,0,.2-.1.2-.2.3h-.4c0,.3,0,.6.2.8h0ZM352.8,310.8c.3,0,.6,0,.7.1.1-.3.6-.3.5-.7-.3,0-.5-.2-1-.1-.2.2-.3.3-.3.7h0ZM351.4,312.3c.6,0,.9,0,1-.3-.6,0-.9,0-1,.3ZM380.8,289.3h1.2c.2-.6-1.2-.4-1.2,0ZM380.9,288.2l-.4.3c.2,0,.3-.1.4-.3v.2c0,.2.3.1.5.1.1-.7-.3-1,.2-1.3-.8,0-1.1.6-.9,1h.2ZM379,287c.3,0,.9.2.7-.3-.4,0-.6,0-.7.3ZM336.5,279.8c.4-.2.7-.3,1-.5l-1,.4h0c-.2-.3-.7-.2-1,0-.1.1-.2.2-.3.3-.3,0-.6.1-1,.2v.5h0c-.2,0-.3.2-.4.2l.5-.2c.2.2.9.2,1.1,0,.3-.3.7-.5,1.2-.7v-.2h0ZM343.7,274.2c.1.5.4.8.7.7.3,0,.4-.3.4-.7-.1-.5-.4-.8-.8-.8-.3,0-.4.3-.3.7h0ZM350,273.5c-.8.3-1.5.7-2.1,1l-2,1-.3-.2c-.2,0-.5,0-.5-.1-.4.2-.4.6-.7.8h.4c0,0-.1,0-.1,0h0c-.9.3-1.5.7-2.3,1.1l-1.9.9c.7-.2,1.3-.6,1.9-.9l2.2-1c0,0-.2.2-.2.3-.1.2,0,.7.3.8.3.2.5.1.7-.2,0-.1,0-.3,0-.3-.1-.4-.4-.7-.6-.7h.4c.7,0,.9-.3,1.2-.6h-.4c.8-.4,1.4-.7,2-1.1l2.1-1v.2ZM355.1,274.9v-.7c-.3,0-.7,0-.7.1.7,0,.2.5.7.6ZM355.6,284.2c-1.2-.4-.6.4,0,0h0ZM364.1,303.7c-.4-.3-1,0-1,.4.6,0,.9,0,1-.4ZM368.8,283.2c0,0,.1,0,.2,0v-.2s-.1-.1-.1,0c0,0,0,.1,0,.2h0ZM366.6,276.1c0,0,.1.2.2.2,0,0,0-.1,0-.2,0,0-.1-.1-.2-.2,0,0,0,.1,0,.1ZM364.8,279.1s.1.2.2.2c.2,0,.3-.3.2-.6,0,0-.1-.1-.1-.2-.2,0-.3.2-.3.5h0ZM364.8,280.7c0,0,.1.1.2.2v-.4s-.1-.1-.2,0c0,0-.1.2,0,.3h0ZM364.9,282.2h-.1v.2h.1v-.2h0ZM363.6,283.4c.1,0,.2.2.3.2.2,0,.4-.2.5-.4v-.3c0,0-.1-.2-.2-.2h-.3c-.1,0-.2.2-.3.2,0,0,0,.3,0,.4h0ZM361.5,275.1c.1,0,.2,0,.3,0,.2-.2.4-.5.6-.8v-.2h-.1c-.2.2-.4.3-.6.4,0,0,0,.1-.1.2v.3h0ZM360.8,283.6c.8.1,1-.5.2-.6,0,.3-.3.3-.2.6ZM359.9,284.6c.1.6.7.9,1,.7.1,0,.2-.4.1-.6-.2-.7-.4-1.1-1-1.5-.2.4-.2.9,0,1.5h0ZM359.4,280.6c0,.1.1.2.2.2s.2-.1.2-.4c0,0-.2-.2-.2-.2-.1,0-.2.2-.1.3h0ZM356.5,296.7s6,0,8.7-.7c8.2-2,3.7-7.1,3.7-7.1l-12.4,7.7ZM358.1,281.2c0,.3.2.4.4.4s.2-.3.2-.7c0,0-.2-.2-.3-.2-.2,0-.3.2-.2.4ZM356.8,283.7h0c-1.2.8,1.2-.1,0,0ZM356.4,272.1c-.3.2-.5.4-.8.7v.2c0,.1.1.2.2.3h.4c.2,0,.3,0,.4-.1s.2-.4.2-.7c0-.2-.3-.4-.4-.3h0ZM354.1,266.9c.2.5.7.8.9.5.3-.4.6-.8.9-1.3v-.3c-.4-.2-.8-.3-1.2-.4-.3,0-.5-.1-.7.2-.2.4-.2.8,0,1.3ZM353.1,281.4c-.1,0-.2.2-.2.4s.2.4.3.3c.1,0,.2-.2.2-.2,0-.3-.2-.5-.3-.5h0ZM352.4,274.5c.1.2.3.3.4.2,0,0,.1-.2.1-.3-.1-.4-.3-.6-.4-.5s-.2.4-.2.6h0ZM332.8,287.2c-.2,0-.3,0-.4.1,0,0,0,.1-.1.2.1.2.4.2.6.1,0,0,.2-.1.2-.1,0-.2,0-.3-.3-.3h0ZM337.4,303.1s0,0-.1,0c0,0-.1,0-.1.1h0c0,0,.1,0,.2,0h0ZM339.8,300.8c-.7-.2-1.1.3-.5.4,0-.3.3-.3.5-.4ZM315,315.9h0,.1,0ZM315.7,318.8c0,0-.2,0-.4-.1,0,.1-.2.2-.2.3,0,0,.2,0,.3,0,.2,0,.3-.2.2-.2h0ZM319.3,305.7s-.1,0-.2-.1c0,0-.1,0-.2.1,0,0,0,0,.1,0,0,0,.1,0,.2,0h0ZM319.5,274.2c0,0-.1-.1-.2,0,0,0,0,0-.2.1h.2c.1,0,.2,0,.2-.1ZM320.4,286.4c0,.1.2.2.4.1.2,0,.3-.2.2-.3,0,0-.2-.1-.4,0-.2,0-.3.2-.3.2h0ZM320.1,274.1h-.2s0,.1,0,.1h.3c0-.1,0-.1,0-.1ZM320.4,303.9h.2-.2s0,0,0,.1h0ZM320.5,314c.2,0,.3,0,.4,0,.2,0,.2-.1.2-.2s-.1-.1-.3,0c-.1,0-.2.1-.3.2h0ZM321.4,318.4c-.1,0-.2,0-.4-.1-.1.1-.2.2-.2.3,0,0,.2.1.3,0,.1,0,.2-.1.3-.2h0ZM323.7,319.9c0-.2-.2-.2-.5-.2-.3,0-.6.2-.6.4s.3.2.6.2c.3,0,.5-.2.5-.4h0ZM326.2,322.1c0-.2-.2-.2-.6-.2s-.7.3-.6.4c.1.2.3.4.4.6h.6c0-.3.1-.6.2-.8h0ZM328.1,322.1c-.4-.4.8-.9-.2-.8,0,.4-.4.6.2.8ZM328.4,324.8c-.8-.4-.8.5,0,0h0ZM328.1,327.7c0,.2-.4.2-.5.4.5.1,1.1-.3.5-.4ZM328.1,326.8c1.4.4,1.8-.2,0,0h0ZM329.5,319.1c0-.2-.3-.3-.6-.3s-.6.2-.6.4.3.3.7.2c.3,0,.5-.2.5-.3ZM325.2,349.9c-.3.3.4,1.2,1.1,1.2,1-.1.6-3.3-1.1-1.2ZM353.1,322.1c0-.2.6-.1.5-.4-.5-.1-.9.4-.5.4ZM351.1,323.4c0-.3-.4-.4-.7-.7,0,.4,0,.7.7.7ZM349.1,323.1c.4,0,.6-.1.7-.3-.4,0-.9,0-.7.3ZM348.1,320.4c0,.3-.9.1-.7.6,1.2.1,1-.4.7-.6ZM347.6,311c-.3.2-.4.7.2.7-.1-.2.3-.7-.2-.7ZM347.9,315.6c1.5.7-.6-.3,0,0h0ZM349.5,314.7h-1c.4,0,.6,0,1,0ZM349,309.4c.3-.2.3-.5-.2-.5-.3.2-.3.5.2.5ZM350.6,282.9h.5c0-.1.2-.2.2-.3-.3,0-.6,0-.7-.1v.4ZM349.4,276.7c0,.1,0,.2.1.3,0,0,.1,0,.1-.1,0-.1,0-.2-.1-.3,0,0-.1.1-.1.1h0ZM344.3,282.7c.1-.1.2-.2.2-.3l-.2.3ZM344.3,291.9h1.2q0,.1,0,0h-1.1ZM338.3,283.2c0-.1,1-.3.2-.4.1.2-.9.3-.2.4ZM337.7,284.4c0-.3-.7,0-.7,0-.2.4.9.4.7,0ZM333.3,287.8c0,.1.3.2.4.1.1,0,.2-.1.1-.2-.1,0-.3-.1-.4,0,0,0-.1.1-.1.1h0ZM333.5,297.1h-.2c0,.1.1.1.2.1h0ZM333.8,292.2c0-.1-.2-.1-.3-.1s-.1.1-.1.1c0,0,.2.1.3,0,0,0,.1,0,.2-.1h0ZM335.5,289.9c0-.2-.5-.3-1-.2-.4,0-.9.3-.9.5,0,.3.4.5.8.4.4,0,1-.4,1-.7h0ZM337,296.4c-.3,0-.3-.1-.5-.1,0,.1-.2.2-.2.3.2,0,.3.1.5.1,0-.1.2-.2.3-.3h0ZM339.1,297.6v.7c-.1,0,0,0,0-.1,0-.1,0-.4,0-.6h0ZM339.4,295.6c-.5-.2-.7.2-.6.4l.6-.4ZM341.9,296.2c2.7.7,8.9.7,8.9.7l-12.8-7.7s-4.6,5,3.9,7.1ZM347.9,306.7c-.3,0-.2-.2-.5-.3,0,.2-.3.2-.2.4h.5c.2,0,.3,0,.2-.1ZM345.7,306.7c-.3.2-.9.6,0,.7-.2-.2.7-.6,0-.7ZM344.1,297.3c.3-.1.4-.1.6-.2v-.3l-.6.6h0ZM341.9,297.7c-.2,0-.4.1-.6.2l.6-.2ZM341.9,298.1c.2,0,.3,0,.5-.1h-.5ZM341.1,306.1c.2,0,.6-.6,0-.7-.2,0-.6.6,0,.7ZM340,304.2c.2,0,.4-.2.5-.3l-.5.3ZM338.9,308.2c.1-.3.4-.5-.2-.7-.3.2-.1.5.2.7ZM337.4,312.6c-.9.3-1.9.6-2.8.9l.4.2v.2c2.9-.2,4.6-1.3,7.3-1.9h.9-.9c.2-.3.4-.7.7-.9h-.4c0-.1.8-.4.8-.4v.2c-.1,0,.1,0,.1,0,.4.7,1.6-.2,3.1-.8.9-.3,1.7-.4,1.7-.8-2.1-.3-3.7.7-5.3,1.2l.4.2c-.3,0-.6.2-.8.3l-.3-.2c-.8.3-1.5.6-2.4.9h-1c.3,0,.5,0,.7.1-.4.1-.8.3-1.2.4-.1-.1-.3-.2-.4-.1-.3,0-.6.2-.6.4h0ZM345.4,323.2c0,0,.1.3.3.3s.1-.7-.3-.3ZM343.8,318.2c-.4,0-.8,0-.8.1.3,0,.6.2.9.3,0-.2.1-.3.2-.4h0c0-.1,0-.3-.2-.4-.2.2-.2.3-.2.4h0ZM341.3,320.7c0,.2-.8,0-.6.4.4,0,.9,0,1-.1-.7,0,.6-.5-.4-.4,0,0,0-.1-.1-.1-.3,0-.8-.2-1,0h0l1.2.2h0ZM339.8,313.2c.4-.2.3-.6-.6-.2-.9.3.8.1.6.2ZM338.5,313.8c.7.1.5-.3.7-.4-.7-.1-.5.3-.7.4ZM339.3,315c0,.3.4.5,1,.6-.2-.3-.2-.7-.7-.8,0,.1,0,.3-.2.3h0ZM338.2,316.5c-.7-.3-.3.4,0,0h0ZM337,315.4c-.6.6.9.8,0,0h0ZM332.6,322.1c-.5,0-.5-.2-.7-.3,0,.2-.1.5.2.6,0-.2.4-.1.5-.3ZM335.1,318.5c-1.3,0-1.6-.6-2.6-.8,0,.3,0,.6-.2.8.7,0,.8.1,1.2.5.3,0,1-.3,1.7-.5h0ZM338.4,317.1c-.2.1-.8,0-.9.2.2.2.8,0,1-.2h0c.1-.1.2-.2,0-.2q0,.1-.1.2c-.8-.3-3.8-1.7-2.3-1,1.3.6,2,.9,2.3,1h0ZM337.8,322.8c.7,0,.5.2,1,0,.2-.5-1.2-.5-1,0ZM335.4,334.9c0-.4.3-.6-.2-.8-.1.3-.6.8.2.8ZM337.3,337.7c.3,1.5-4.2.4-3.3,2.3,5.2.4,4.4-1.9,3.3-2.3ZM338.2,333.6c-.7,0-.6.4-.9.5.6,0,.9-.2.9-.5ZM339.2,333c0,0,0,.2,0,.3-.7.3-.4.2-.2.1.6-.2.7-.5.2-.4ZM338,324c-.1.7.6,1,1.5.8.2-.7-.5-1.1-1.5-.8ZM340,322c-.8,0-1,.2-1.2.4.8.1,1.1-.1,1.2-.4ZM340.9,332.7c0,.2.2.5.2.3,0-.2-.2-.5-.2-.3ZM341.3,328.1c0,0-.6.5,0,.6-.3-.3.7-.5,0-.6ZM340.9,326.7v1c1.1.1.6-.9,0-1ZM341.7,325.3c1-.4,2.1-.8,2.8-1.4l-2.8,1.4c-.7.3-1.3.6-1.7.9l1.7-.9ZM344.8,331.3c.7-.2,1.3-.3,1.7-.7l-1.7.7c-.5.1-.9.3-1.3.4h0c0,0,1.3-.4,1.3-.4h0ZM346.9,333c-.2,0-.7-.2-.7.1.2,0,.7.2.7-.1ZM347.4,330.4c.3-.1.9-.1.9-.4h-.5c0,.1-1,.3-.5.4h0ZM348.7,333.1c-.3,0-.8-.2-.9.1.3,0,.8.2.9-.1ZM349.3,329.9c-.5,0-.3-.3-.9-.3-.3.3.8.6.9.3ZM351.8,328.8c-.1,0-.2,0-.4.1h.4ZM352.3,328.9h-.2c0,0,0,.1-.1.2h.2s0,0,.1-.1h0ZM355.2,324.9c0,0,0,.2-.2.1v.3c.6.2.7-.4.2-.4ZM357.6,330.9c-.2,0-.2,0,0,.1.2,0,1.2-.5,0-.1ZM359.2,326.1l-2.1.3c-.1.2-.2.4.2.6h0c-.5.2-1.1.3-1.4.6l1.4-.6h0c.4.1.8.1,1.3,0,.6-.2.9-.7.6-.9h0ZM341,342.2l3.3-1.9c5.6-3.1,11-6.1,16.5-9.9l.6.9c2.4-1.3,5.1-2.4,7.7-3.5v3h0v1.4l18.3,12c-.1,0-.2.1-.3.2l-3.1,1.6v-.2c-1.6-.1-1.8.8-1,1.2.3-.4,1.1-.5,1.4-.9h-.4c1-.6,2.1-1.1,3.1-1.7l.3-.2,1.5,1h0c-.3.5-1.2,1.8-3.4,3.3h0c-.5.3-1.1.7-1.8,1,.4.3.8.6,1.3.9-.2,0-.2-.2-.4-.2-.1.3-.1.7-.3.9.6,0,.3-.5.7-.6.4.3.8.6,1.3.9-.1.1-.3.2,0,.3,0,0,.1-.1.2-.2.4.3.8.6,1.3.9,11.6,0,13.8,4.1,13.8,4.1h-14.7l-7.8-5c-.9.3-1.9.6-3,.9-1.3-.7-2.5-1.4-3.6-2.1,3.1-.9,6.3-2,8.7-3.5l-8.8,3.4c-4.3-2.5-7.7-4.4-10.4-5.9.7-.4,1.3-.8,1.9-1.3h-.4l.6-.3c.3-.2.6-.3.8-.6l-.8.6c-.2.1-.4.2-.6.4l-.3-.2c-.7.1-1.2.4-1.6.6h0c-.4-.2-.8-.2-1.2-.1-1.2-.7-2.2-1.3-3.1-1.8v5.1c-1,.6-2.1,1.2-3.1,1.8v-8.7c-1.4-.8-2-1.2-2-1.2l-2,.7v9.2h-1c-.6-.3-1.2-.7-1.8-1,0,.4,0,.7,0,1h-.3v-8.3l-5.7,1.8-.2.2ZM394.5,353.8c.7.2.7-.6.2-.6,0,.2-.3.3-.2.6ZM383.8,353.5c0-.3.6-.1.4-.5-.1-.2-.4-.3-.7-.4,0,.6.3.7.3.9h0ZM381.9,347.8c0,.2-.8.1-.7.4.3.1.7.2,1.2.1,0-.3,0-.5-.5-.5h0ZM381.2,342.6c.7,0,1.5-.4,1.7-.8v-.2c0-.3-.9-.4-1.5-.2-.3.1-.5.3-.7.4-.3.3,0,.6.5.6h0ZM379.1,344.9c.1,0,.2.1.3,0,.1,0,.2-.1.3-.2-.2,0-.3,0-.3,0-.1,0-.2.1-.2.2h0ZM376.5,346.2c0,.1.1.2.3.1.1,0,.2-.1.2-.2,0-.1-.1-.2-.4-.1,0,0-.2.1-.2.2ZM372.6,337.5c.7,0,1.7-.5,1-.8-.1.4-.8.4-1,.8ZM362.2,341.5c0,0-.1,0-.2-.1,0,0-.1.1-.2.1,0,0,0,0,.1,0s.2,0,.2-.1h0ZM362.5,334.5c-.1.2-.2.3-.2.6.6.1.6-.6.2-.6ZM363.7,339.3h-.2s0,.1,0,.1h.2ZM364.8,336.3c-.3,0-.3-.2-.6-.1v.4c.2,0,.4.2.4,0-.1,0-.2,0-.2-.1.1,0,.3,0,.3-.1h0ZM368.9,341.5c.5-.1.9-.3.9-.6s-.4-.2-.8-.2c-.4,0-.7.3-.7.5s.3.3.6.3h0ZM369.8,339.5h-.1.1ZM371.1,346.5h-.7c-.6,0-.9.3-.9.6s.3.4.9.4h.1c.4,0,.7-.2.9-.4.1-.2,0-.3-.2-.4h0ZM371.6,344.5c0-.1-.2-.2-.4-.1,0,0-.2.1-.2.2,0,.1.2.2.4.1.1,0,.2-.1.3-.2h0ZM370.3,339c.4,0,.6-.2.8-.4l.7-.4c-.3,0-.6.2-.7.4l-.8.4ZM369.9,338.2c-.2.2-.3.3-.4.6l.4-.6ZM368.1,335.2c0,.1.2.2.4.2.3.1.8,0,.9-.3.2-.2.2-.4-.1-.6h-.4c-.6.1-.9.4-.8.7h0ZM368.4,338.4c-.2-.1-.7.1-.7.1-.2.2.9,0,.7-.1ZM366.2,334.9c-.6.1-.9.4-.9.7,0,.2.3.3.8.3.6-.1.8-.3.8-.7s-.3-.4-.7-.3ZM366.1,334.3h-1.3c.4,0,.9.1,1.3,0ZM364.3,332.4c-.9-.2-.3.4,0,0h0ZM361.8,333.8c.8,0,1.6.2,2.4,0l-.3.4c-.1.1-.2.2-.2.3l.2-.3c.2-.1.3-.3.4-.4h.1l.2.6c0-.1,0-.2,0-.4,0,0-.2-.1-.2-.2h.6c-.2-.1-.4-.1-.6-.1h0c0,.1-.1.1-.1.1.1-.1.2-.2.2-.4h.2c.6,0,.1-.5.2-.7-.3,0-.6,0-.7-.1-.1.3-.5.7,0,.9h.2c0,0-.3.3-.3.3h-2.4.1ZM357.6,341.4c-.3,0-.7,0-.7.1.3,0,.4.2.7.3v-.4ZM359.4,331.6h.8c-.2,0-.3,0-.6-.1-.1,0-.2,0-.3.1ZM358.9,336.9c.1,0,.1-.2.1-.3v.3ZM357.6,339.3c.8,0,.5-.4.7-.7-.8,0-.8.3-.7.7ZM356.7,333.9c.3,0,.8.2.9-.1-.3,0-.8-.2-.9.1ZM356.7,335.8c.2,0,.3-.2.5-.3l-.5.3ZM355.8,339.7c1.2-.2.4-.6,0,0h0ZM355.3,334.8l.3-.2c-.2.1-.2.2-.3.2ZM354.8,346.8c-.2.8,1.2.1,0,0h0ZM245.2,49.3c-.3,1-.8,3,1.1,3.3.8-1,1.4-2.8,0-3.3M246.8,63.5c-1.7,1.6,2,1.4,0,0h0ZM463.2,65.4c1.8-.4.7,1.6,2.2,1.4,0-.7,0-1.6,1.1-1.4v-1c-.5,0-.6-.4-1.1-.5.2,1.3-2,.5-2.2,1.4ZM237.5,73.5c-.7,0-1.6-1.9-2.2-.5.3.3,1.6,1.9,2.2.5ZM231,77.8c.8-.3,2.8.6,2.7-.5-.8.3-2.8-.6-2.7.5ZM587,84.4c-4.7-.6-2.3,1.5,0,0h0ZM522.6,131.4c-.9,0-1.9,0-1.6,1,.9,0,1.4-.4,1.6-1ZM457.8,132.8c1.7-1.8,1.8,1.4,0,0h0ZM73.4,134.3c-5.4,0,2.6,0,0,0h0ZM88.7,135.2c.7.6,2.7.7,2.7-.5-.8.3-2.8-.6-2.7.5ZM54.9,151.8c-1.1-.3-1.6-1.2-3.3-1l.3.9-.8.6c.7,1.1,3.3,0,3.8-.5h0ZM151.4,138.5c.5.5,2.8.4,2.7-1-1.4,0-2.6,0-2.7,1ZM65.8,139.5c.8.6,4.3,1,4.4-.5-1.3.3-4-.6-4.4.5ZM121.9,145.7c-4-.2,1.3,1.4,1.6,0-.8-.2-.9-.6-1.6,0ZM579.3,147.1v-1.4h-1.1c0,.5-.4.6-.5,1,.8,0,1.2.2,1.6.5ZM82.7,146.1c0,.6-2.2,1.4-.5,1.9,0-.6,2.2-1.4.5-1.9ZM65.8,151.4c-1.9-.4-2.6-1.9-4.4-2.4v1.9l.8.6-.3.9c1.5,0,3.7.4,3.8-1h0ZM543.9,153.7c-1.1.3-3.6-.6-3.8.5,1.9-.4,3.3,1.4,3.8-.5ZM574.4,154.7c-2.2.1-3.6,1-4.9,1.9,2,.7,1.6.8,4.4.5-.5-1.3.8-1.2.5-2.4h0ZM82.1,167.5c1.3-1.4-.7-2.9-1.1-4.3-.6,2.1-4.9-.7-4.4,1.4-.3-1.3-2.7-1.8-1.1-3.3-2.2.3-2.5-2.6-6.5-1.9,0-.3,0-.6-.5-.5l-.3.7-.3.7c1,4.5,4,7.3,11.5,6.2v2.9h4.9l-.3-.9.8-.6c0-1-1.9-.2-2.7-.5h0ZM89.2,166.1c-.8-.6-3.8-.2-3.3,1.9l1-.2.6.7c1-.4,1-1.7,1.6-2.4ZM47.3,158c.7.2,1,.7,2.2.5.9-1.3-2.4-1.3-2.2-.5ZM129,160.4c1.4,0,2.6-.3,3.3-1-1.6-.1-2.8.1-3.3,1ZM461,160.4c-3.5-.5-1.2,1.5,0,0h0ZM49.4,160.8c-.8,0-2-.2-2.2.5.7.6,2,.6,2.2-.5ZM394.5,162.7c-.8.3-2.8-.6-2.7.5.8-.3,2.8.6,2.7-.5ZM401.6,163.2c-1,.3-3.2-.6-3.3.5,1-.3,3.2.6,3.3-.5ZM435.4,165.6c-1,.3-3.2-.6-3.3.5,1-.3,3.2.6,3.3-.5ZM454,168.4c-.5.5-.7,1.3-.5,2.4,2,.5,2.2-2.3.5-2.4ZM89.8,171.8c-.3-.3-2.6-1.1-2.7,0,.3.3,2.6,1.1,2.7,0ZM156.8,179.8c3.8,1.6,4.1,5.4,6.5,7.1.6-1.3.6-5.3.5-8.5l-.8.2-.3-.7c-1.7.9-6-.5-6,1.9h0ZM139.4,193.1c0,.3,0,.6-.5.5v1c1.3.7,1.6-1.6.5-1.4ZM141.6,195.5c-.7,0-.5-.8-1.1-1-1.3.5.6,2.2,1.1,1ZM135,200.2c-.5-.8-1.8-1.5-2.2,0-.5-.3-1.2-.5-2.3-.5.5,1.2.8,2.5,3.7,2.4-.3-.6-.5-1.3-1-1.8.6.3,1.8.8,1.9-.2h0ZM186.8,208.8c-1.4,0-1.7-.9-2.2.5.7.6,1.6.3,2.2-.5ZM358.6,210.2c-1,.3-2.3.2-2.7,1,1.3,0,2.6,0,2.7-1ZM365.6,210.7c-3.5-.5-1.2,1.5,0,0h0ZM102.3,228.7c.3.3,2.6,1.1,2.7,0-1,.3-2.3-1.4-2.7,0ZM539.5,229.7c-.8-.1-.9-.8-1.6-1-.4,1.1-.5,2.4-1.1,3.3,2.1.3,1.3-2.1,2.7-2.4ZM71.2,234.9c2.2-.5.2,2.7,2.2,2.4,1.2-1-.5-1.6,0-3.3-1,0-1.8.3-2.2,1ZM80,234.4c-1.6-.7-1.9.4-3.3-.5-.2.9-1.2,1.2-1.1,2.4,2.3,0,3.1-1.1,4.4-1.9ZM271.9,233.9c-.8.3-2.8-.6-2.7.5.8-.3,2.8.6,2.7-.5ZM112.1,234.9c0,.3,0,.6-.5.5v1c1.3.7,1.6-1.6.5-1.4ZM121.4,234.9v1c.5,0,.6.4,1.1.5,0-.7,0-1.6-1.1-1.4ZM191.2,236.8c-3.5-.5-1.2,1.5,0,0h0ZM316,237.7c.1,1.1,1.6,3.3,2.7,1.9-1.3-.3-.4-2.5-2.7-1.9ZM57.1,238.7c.8,0,2,.2,2.2-.5-.8,0-2-.2-2.2.5ZM138.8,243.9c1.7.3,1.6-.8,3.3-.5.5-.8.8-1.8,1.2-2.6,0,.8,1.5,2.5,1.8,1.3-.4-.6-1-1.1-1.8-1.4.1-.2.2-.4.4-.6-2.3.3-1.1-2.6-3.8-1.9-1.1,1.3-2.6,2.2-3.3,3.8.9.6,3.7.6,2.2,1.9ZM92.5,238.7c0,.5-.4.6-.5,1,.9,0,1.9,0,1.6-1h-1.1ZM506.8,239.2c-.8,0-2-.2-2.2.5.8,0,2,.2,2.2-.5ZM504.1,239.6c-.5-.4-1.6.3-1.6.5-.8,1.8,2.7.3,1.6-.5ZM136.7,243.9s0,.4,0,.5c-2.6,2.6,2.6-.9,0-.5ZM111,245.3c-.4-.1-.6-.4-.5-1h-2.2c0,.8-.1,1.5-.5,1.9,1.5,0,3.2.3,3.3-1h0ZM500.3,244.4c-.2,1.4-1.8,1.6-2.2,2.8.9.8,2.6.9,3.3,1.9.9-1,.4-3.2,1.1-4.3-1,0-1.7-.1-2.2-.5ZM129.6,246.7c.8,0,2,.2,2.2-.5-.7-.6-2-.6-2.2.5ZM176.5,247.7v-1h-1.6v1h1.6ZM449.6,248.2c1.4,0,2.6-.3,3.3-1-1.6,0-2.8.1-3.3,1ZM208.6,250.5c.3-1.2-.2-1.7-1.6-1.4-.4,1.3,1.1.9,1.6,1.4ZM59.2,249.6c-.8,0-2-.2-2.2.5.8,0,2,.2,2.2-.5ZM112.7,250.1c-1,0-1.7-.1-2.2-.5-.9,1.3,2.4,1.3,2.2.5ZM116.5,250.1c-1.8-1.4-1.6,1.8,0,0h0ZM431.1,250.1s1.8.3,1.6.5c1.3-1.1-1.8-1.2-1.6-.5ZM539,250.5c-1,.1-1.2-.5-2.2-.5-.7.6-.7,2.2,0,2.8,1.5,0,2.3-.8,2.2-2.4ZM101.2,251c0-.3,0-.6-.5-.5.4,2.4,5.9-.1.5.5ZM70.7,251.5c-.9-.9-2.1.2-2.2,1.4,1.4.1,2.3-.2,2.2-1.4ZM348.2,251.5c-2.8,1.1,1.9,1.2,0,0h0ZM66.3,252.4c-2-1.6-6.1.8-4.9,1.9.5-.4,5.1.5,4.9-1.9ZM215.7,253.4c.7.7,3.3.5,3.3-1-1,.4-2.7.2-3.3,1ZM570.6,256.2c-1.8-1.4-1.6,1.8,0,0h0ZM294.2,257.2c-1.2.3-4.3-.9-3.8,1,1.7,0,3.3,0,3.8-1ZM455,260l.3.7-.3.7c2.9.1,4.5.8,6.5-.5-.5-1.8-5.2-2.7-6.5-1ZM536.3,262.4h1.6v-1h-1.6v1ZM438.1,269.5c4.7,2.7,10.3.3,16.3.5.6,0,.6-.8.5-1.4l-.8-.2.3-.7c-5.5,2-14.6-2.2-16.3,1.9ZM467.6,270.9v-1.9h-1.1v1.9h1.1ZM61.4,272.4c.7,0,.5.8,1.1,1,0-.6.7-.7.5-1.4-.6,0-1.5,0-1.6.5ZM88.1,275.7c-4.1-.6-1.8,1.5,0,0h0ZM86,280v1h1.1v-1h-1.1ZM50.5,282.3c0,.6,0,1.3.5,1.4,0-.3,0-.6.5-.5,0-.6-.2-1.1-1.1-1ZM117,282.8c-.7,0-.8-.6-1.6-.5-.8,1.2,1.9,1.4,1.6.5ZM47.8,284.2c.7.6,1.6.3,2.2-.5-.7-.6-1.6-.3-2.2.5ZM81,283.3c-3.5-.5-1.2,1.5,0,0h0ZM90.9,284.2c.8.1.9.8,1.6,1-.2-1.3,2.1-.4,1.6-1.9-1.5,0-3.2-.3-3.3,1h0ZM51.6,286.6c-.7-.2-1-.7-2.2-.5-.9,1.3,2.4,1.3,2.2.5ZM121.4,287.1c-.8-.8-2.4-.5-2.2,1,1,0,1.8-.3,2.2-1ZM137.7,294.7c1.9-.4,2.1.7,3.8.5.5-2.7-1.6-2.8-2.7-3.3.2,0-1.8-1.9-2.7,0,.7.1.3.5,0,1,1.8-.4.8,1.6,1.6,1.9h0ZM104,294.2c-1.8-1.4-1.7,1.8,0,0h0ZM216.3,299.4c-.1.3.2,1,.5,1,.5,0,.3-2.6-.5-1ZM208.1,300.4h2.2v-1h-2.2v1ZM163.4,301.3c1.1,0,.7,1.3,2.2,1-.3-1.5,1.3-1.9-.5-2.4.2,1.1-1.6.5-1.6,1.4ZM135.6,306.6c2.6.6,2.5-.7,6,0l-.3-.9.8-.6c.1-.7.9-.8,1.1-1.4l-.8-.6.3-.9c-2.7-.1-3.4,1.5-6,1.4,1.5-.8-.8-1.6-1.1-.5l.4.5-.4.5c.6,1.2,1.5,1.7,0,2.4h0ZM149.7,301.8c1.4,0,1.7.9,2.2-.5-.7-.6-2-.6-2.2.5ZM179.7,301.8c1.3.3,2.5.7,2.7-1-1.4,0-2.3.2-2.7,1ZM121.4,304.7c.3-.7.8-1.2,1.1-1.9h-.5v-.5c-.5-.6-.9.2-1.6-1-.1.4,0,.9-.5,1l.3.7-.8.2c.5.7.8,1.5,2.2,1.4ZM126.3,303.7c.3.3,2.6,1.1,2.7,0-1.6.1-2-1.9-2.7,0ZM181.4,304.2v-1c-.5,0-.6-.4-1.1-.5-.1.7-.9.8-1.1,1.4h2.2ZM421.2,303.7c-1.4.2-2.2.9-3.3,1.4,1.1,0,.7,1.3,2.2,1-.4-1.5,1.5-.9,1.1-2.4ZM475.8,306.6c-.1.3.2,1,.5,1,.5,0,.3-2.6-.5-1ZM501.9,307c-.9,0-1.4.4-1.6,1,.9,0,1.4-.4,1.6-1ZM277.3,309.9c0-.8-.4-1.2-1.1-1.4,0,.8.4,1.2,1.1,1.4ZM395.6,308.9c-2.4,1.7-2.1-1.3,0,0h0ZM164.5,311.3h-1.1v1h1.1v-1ZM400,311.8c-.4,2.9,2.5.3,0,0h0ZM98.5,313.2c-.8-.7-2.1-1-3.8-1-.6.6-.5,1.8-1.1,2.4,1.4-.8,4.5,1,4.9-1.4ZM90.9,312.7c-.3,1-1.3,1.4-1.1,2.9,1.4,0,1.7-.7,2.7-1,0-1.2-.8-1.5-1.6-1.9ZM129.6,314.1c1.5,0,3.2.3,3.3-1-1.5,0-3.2-.3-3.3,1ZM418,313.2h-2.2v1.9c1.4,0,2.1-.7,2.2-1.9ZM244.6,313.7h-2.7c0,.8.4,1.2,1.1,1.4-.8-1.7,1.9-.3,1.6-1.4ZM362.9,314.6c-3.5-.5-1.2,1.5,0,0h0ZM383.1,317.5h1.1c0-1.3-.9-1,0-1.9-1.5,0-1.8,1.3-1.1,1.9ZM390.2,317.5c1.1-.3.4-3.1-.5-1.4,1.7-.2-1.4,1.4.5,1.4ZM456.1,317c1.4-.4,4.7.9,4.4-1-1.6.2-4.2-.5-4.4,1ZM237.5,316.5c0,.9-1.8.3-1.6,1.4,1.6.6,3.3-.8,1.6-1.4ZM264.2,317v1.4h1.6c0-1-.5-1.5-1.6-1.4ZM279.5,318.9c.7-.6.3-1.4-.5-1.9-.7.6-.7,1.8.5,1.9ZM218.4,319.8c.8-.3,2.8.6,2.7-.5-.8.3-2.8-.6-2.7.5ZM492.1,322.7v-1.9c-2.3-.4-3,.6-3.8,1.4,1.3,1.1,1.8.7,3.8.5ZM473.6,327.4c2.1.4,2.1-1,2.7-1.9-1.3.3-2.5.6-2.7,1.9ZM377.6,328.9c-1.6-1.5,3.7-.9,0,0h0ZM48.9,333.6c-1.8-1.4-1.6,1.8,0,0h0ZM52.7,338.4c.8-1.5-3.3-1.2-3.3-.5,1.7-.3,2,.5,3.3.5ZM253.9,340.7h-1.6v1h1.6v-1ZM235.3,342.1c.9,0,1.4-.4,1.6-1-.9,0-1.9,0-1.6,1ZM310,345.9c1,0,1.7.1,2.2.5.9-1.3-2.4-1.3-2.2-.5ZM94.7,354s1.8.3,1.6.5c1.3-1.1-1.8-1.2-1.6-.5ZM480.7,354c-1.6,1.6,2,1.4,0,0h0ZM124.1,355.4c-3.5-.5-1.2,1.5,0,0h0ZM308.4,356.9c-2.8-1.3-2,1.7,0,0h0ZM228.8,93.4c3.5,4.5,11.4-.3,10.9-3.3-.2.6-3.1-.4-4.9,0-.4-2-2.1-2.9-3.8-3.8-1.4.3-1.1,2.2-2.7,2.4-1.3-1.3-3.8-1.4-3.8-3.8-2.9.4-4.8-1.2-5.5,1,.9,1,3,.8,3.8,1.9-.6.2-1.2.5-1.6,1,2.7,2.3,7.6,3.5,10.9,2.8-.8.9-3.7,0-3.3,1.9h0ZM56.5,137.1l-.3.7-.3-.7c-2.6-.7-6-1-9.3.5,2.5.3,2.1,2,1.6,3.8,3.5.5,8.5,1.5,11.5,1l.3-.7.8.2c.8-1.8-1.5-.9-1.1-2.4h1.1l-.3-.7.8-.2c-.7-.8-1.1-1.9-2.7-1.9-.7.6-1.1,1.4-2.2.5h0ZM63.6,148.5h1.6l-.3-.7.8-.2h1.6c0,.5-.4.6-.5.9l-1.9-.7c.9.7,2,1.1,2.7,1l-.3.7c2.3,1.3-1.6,1.1-1.1,2.4,3.7.2,9.1,2.6,12,.5l-.3-.5.3-.5v-.5c2.7-.3,2.5-3.8,1.1-5.2,0,1.9-.8-.2-1.6,1,0-2.3-2.5-2.3-2.7-4.3.9,0,1.9,0,1.6-1-4.7-.4-10.5,0-14.7,1l.5.5-.5.5c1.7,1.6,1.4,2.2,1.6,5.2h0ZM110,148.5l-.8-.2.3-.7c-.6-.9-1.1-1.9-1.6-2.8.9-.2,1.4.7,1.6,0-.3,0-.6-.4,0-.5l-.3-.9.8-.6v-1l-.8-.2.3-.7c-1.3-.6-3.1-.8-4.4-1.4.1.9-.6,1-.5,1.9l.8-.2.3.7c1.5.2,0,1.5-1.1,1l-.3-.2-.3-.2c-.4.6-1.2.9-2.2,1l.3.9-.8.6c.3,1.8,3.1,1.7,1.6,3.8,2.2.4,2.5-1,3.3-1.9,1.3,1.1-.8.9-.5,2.4.4.1,1.1,0,1.1.5l.5-.2.5.2c.3-.7,2.1,0,2.2-1h0ZM115.4,144.2c-.5,1,4.3-.9,0,0h0ZM150.3,147.1s-.1,0-.2,0c.1,0,.3-.1.3-.2,0,0-.1,0-.2,0h0ZM149.3,147.5c.2,0,.5-.2.8-.4-.3.1-.6.2-.8.4ZM149.3,147.5c-.2,0-.3.1-.4.2,0,0,.2,0,.4-.2ZM495.9,158c0,.7-3-1.1-1.6.5,0-.5.7-.4.5.5.9.3,2.4-1,1.1-1h0ZM162.3,167c2.1,0,2.9-2.4,1.1-2.4,0,.6.3,1,.5,1.4-.9,0-1.9,0-1.6,1ZM165,172.7c-.9-.3.1-2.3-1.6-1.9.7,1.2-1.2,2.3,0,2.4.1-.5.6-.7,1.1-1-.3,1,2.1,1,.5.5h0ZM462.7,175.1c-1,.1-1.2-.5-2.2-.5v1.4c.9-.2,1.4.7,1.6,0-.3,0-.6,0-.5-.5.4-.1,1.1,0,1.1-.5h0ZM536.8,238.7c-.4-.9-1.5-1.3-2.7-1.4-.2,2.1,1,2.6,1.1,3.3-.2-1.3,2.1-.4,1.6-1.9ZM458.3,247.7c4.7.5-4.3-1.5-1.1-.5.4.1.3.4,1.1.5ZM182.5,250.1c-.5-1-2.4.2-1.1.5.1-.6.6-.3,1.1,0,.2-.5.6-1.1,0-.5ZM53.2,280c1.8-.4.8,1.6,2.2,1.4-.2-1.1-1.6-3.3-2.2-1.4ZM91.1,298l.8.5c1.2-.6-.6-2.6-.5-3.8-1.6.4-1.7.4-3.3,0-.4,2.3,1.4,2.6,2.2,3.8l.8-.5ZM55.7,277.4l.8.2c1.1-1-.2-.9-.5-1.9,1,0,1.7-.1,2.2-.5-.4-1.5.6-1.7.5-2.8-.7-.2-1-.7-2.2-.5l-.8.2c.2-1-.4-2.1-1.6-2.1-.2.1-.3.3-.6.6l-.3-.7h-.5c-.5-.6-.7-1.3-.5-2.4-1.8-.6-2.3.3-3.3-.5.3,0,.6-.4,0-.5-.3,1-1.1,1.5-1.6,2.4,1.8.4,0,5.2-2.7,4.7.6,2.7-.7,4.6,3.3,4.7,1-3.3,4-5.4,6.6-7.3l.5.3c-1.3.6.4,1.1.5,2.2-.7,0-.8-.6-1.6-.5,1.3,1.9-1.2,1.3-1.6,2.8.6,0,.6.8.5,1.4,1.5-.4,1.4.7,2.7.5l.3-.7h0ZM96.9,280.4l.3.5-.3.5c-.5,1.7,1.8.8,2.2.5,0,.6.3,1,.5,1.4,1.6-.5,4.4,0,4.9-1.4-1.8-1.3-2.7-3.3-2.7-6.2-2.6.5-3.1,1-4.4,1.9,2,.3.8,2.7-.5,2.8ZM149.2,297.5c-.1-2.4-3.4-2.5-4.4-1.9.5.4-.2,1.7,1.1,2.4,1.7.3,1.6-.8,3.3-.5ZM243.5,297.5c-.7.6-.7,1.8,0,2.4-4.6,2,4.2-.8,0-2.4ZM372.2,306.1c-.3,1.7,1.9,1.2,1.6,2.9-2.2.2-3.1,1.4-3.8,2.8h.5v.5c1,.5,1.9,1.2,3.3,1.4-.2-1.1,0-1.8.5-2.4l-.3-.7.8.2v-1h2.7c.7-2,2.6-2.7,3.8-5.2-4.2-1-7-1-9.3,1.4h0ZM165,304.2c-.8,1.2-1.9,2.2-3.8,2.4,0,.6.3,1,.5,1.4l.8-.2-.3.7c0,.3,0,.6.5.5l.8-.2.3.7c.8-1.2,3.5-4.2,1.1-5.2h0ZM157.9,309.9c0-.3,0-.6.5-.5,0,.3.4.5.5,0-.5-1-2.8-.1-1.1.5ZM456.1,325.5c.7-2.5,5.5-3.4,9.2-3.7l-2.4,4.9c1.2-1.3,2.5-2.8,4-3.8,0-.3-.5-1.1-1.3-1.9l.8.2c.4-.1.6-.4.5-1l-.8-.6.3-.9c-7.1,2.1-17.2,1.5-22.9,4.7,1.2,0,.2,1.7.5,2.4,2.4,0,3.4-1.5,5.5-.5.1.9-.6,1-.5,1.9,3.2,0,3.6-2.3,7.1-1.9h0ZM467,320.3c4.1-.4,5.8-2.9,8.2-4.7,0-2.4-3.3-4.6-1.1-6.2-4.2-.8-4.5,1.8-8.2,1.4-.8,2.1.3,2.5,1.6,3.8-1.1.1-1.1,1.3-2.2,1.4-.3,1.5,1.7,1.1,1.1,2.8l.8.6-.3.9h0ZM456.1,326.5c.6,1.6,1.1,3.4,2.2,4.7,2.8.3,4.2-.8,4.9-1l-.3-.9.8-.6v-2.4l-.8.2-.3-.7c-2,.3-4,.7-6.5.5ZM469.2,330.8c1.1-2.8-2.9-2.8-4.4-1.9l.3.9-.8.6c.6,1.1,3.4.2,4.9.5ZM59.8,315.6c0-.5,2.4-1,.5-1.4.3.7-2.1,1.2-.5,1.4ZM492.7,323.2c-.6.6-.6,1.7-.5,2.9,2.2,0,1.7-2.5.5-2.9ZM266.1,56.7l1.4-1.2c-.6.5-1.1.8-1.4,1.2ZM258,60.9l3-2c-1.1.6-2.4,1-3,2ZM262.6,57.8l-1.6,1.1c.6-.3,1.2-.6,1.6-1.1ZM472.2,80.2l-.8-.7c.2.3.5.5.8.7ZM495.9,79.7l.3,4.5c0-1.6.5-3-.3-4.5ZM231.8,84.2l3.8,1.1c-1.2-.5-2.4-1.2-3.8-1.1ZM235.6,85.3c.7.3,1.4.6,2.2.6l-2.2-.6ZM504.3,87.8l1.2.7c-.5-.4-.9-.5-1.2-.7ZM563.5,100.6c-2.8,1.6-2.1,4.9-2.2,7.4l2.2-7.4ZM62.2,151.4l-3.8.2c1.3.3,2.6.2,3.8-.2ZM87,167.7l-2.9.8c1,.3,2.5.3,2.9-.8ZM53,158.2l1.1-.5c-.4.1-.8.2-1.1.5ZM126,161.7c0,0,0,.2,0,.3l.2-.5c0,0-.2.1-.3.2h0ZM126.8,160.1l-.6,1.4c.4-.3.6-.8.6-1.4ZM163.6,175.3l-.5,3.3c1.3-.9.4-2.1.5-3.3ZM87.6,239.6l-1.9.2c.9,0,1.5-.2,1.9-.2ZM210,248.9l3-1.2c-1.2-.1-2.1.7-3,1.2ZM51.9,251.7l-2.2,2.1c1.1-.3,1.7-1.3,2.2-2.1ZM442.8,258.8h1.6c-.3-.3-1-.3-1.6,0ZM455.3,260.7h-10.9c3.5.7,7.3.2,10.9,0ZM454.2,268.3l1.6-.2c-.5,0-1.1,0-1.6.2ZM98.2,273.1l.8,1c-.1-.3-.3-.7-.8-1ZM57.7,281.5l.7-.6c-.3,0-.5.3-.7.6ZM57.3,281.9c.2,0,.3-.2.4-.4l-.4.4ZM56,295.6c.5.3.8.3,1.1.4.2-.3.3-.6.5-.8,0-.3,0-.8,0-1.2l-1.6,1.7ZM145.5,305l-4.2.7c1.6.6,2.8-.3,4.2-.7ZM136,303.7c-.3,0-.8-.2-1.2-.2l1.2.2ZM142.4,303.2l3.5-1.3c-1.3.1-2.4.8-3.5,1.3ZM122.8,302l-.8.7c.3-.2.6-.4.8-.7ZM120,303c-.7-.3-1.4-.5-2.2-.7l2.2.7ZM239.4,309.2l5.6.3c-1.9-.3-3.7-1-5.6-.3ZM247.1,309.6h-2.1c.7,0,1.4,0,2.1,0ZM429.7,328.4l8.2-.7c-2.8,0-5.6-.2-8.2.7ZM437.9,327.7c1.9,0,3.7,0,5.4-.5l-5.4.5ZM77,338.1c1.5,0,3,0,4.4-.5l-4.4.5ZM108.4,354.6h-3.6c1.2.2,2.4,0,3.6,0ZM108.4,354.6h2.4c-.8,0-1.6,0-2.4,0ZM63.1,139l-2.4-.2c.9.3,1.8.3,2.4.2ZM78.5,151.8c-.2,0-.3,0-.4,0l2.2,2.6c.2-1.1-.7-2-1.8-2.6h0ZM62.5,142.8l-2.4-1.2c.6.6,1.4,1.1,2.4,1.2ZM551.3,169.6c.8.2,1.4.2,1.9.2l-1.9-.2ZM486.9,162.3l2.4,1.7c.1-1.1-1.3-1.9-2.4-1.7ZM499.5,160.1c-.4-.1-.7-.2-1.1-.2l1.1.2ZM535.5,154.9l2.4-.7c-.9,0-1.9,0-2.4.7ZM585.6,137.8l-2.2.5c.7,0,1.5-.2,2.2-.5ZM574.7,148.7l2.2-.2c-.7,0-1.5.1-2.2.2ZM552.9,161.5l.5,2.4c0-.6,0-1.6-.5-2.4ZM136.4,139.7l1.6-.2c-.6,0-1.1.1-1.6.2ZM102,144.1c-.4,0-.7-.1-1.1-.2l1.1.2ZM104.5,141.8c-.6-.3-1.2-.5-1.9-.5l1.9.5ZM105.3,141.1l-.8.7c.2,0,.5-.3.8-.7ZM109.1,141.6l1.4-.2c-.4,0-.8,0-1.4.2ZM109.1,143.4c.4,0,.7.1,1.1.2l-1.1-.2ZM126.8,144.7l-1.4-1c.3.2.7.6,1.4,1ZM126.8,144.7l2.5-.5c-.8-.3-1.9-.3-2.5.5ZM109.1,148.3l4.4.5c-1.1-1.2-2.9-1-4.4-.5ZM104.2,142.6l.3-.7c-.2.2-.2.5-.3.7ZM128.7,145.9l-1.9-1.2c-.2.9,1.3.8,1.9,1.2ZM127.4,153.5l-.8,1c.5-.2.6-.6.8-1ZM462.2,166.4c-.3-.2-.5-.3-.9-.6l.8,2c0-.5.3-.9.1-1.5h0ZM463,167.8c1.7,0,3.4.3,4.9-.1h-4.9ZM461.2,168l-1,.2c.4,0,.7-.1,1-.2ZM462.1,167.8c-.3,0-.6.1-1,.2l1-.2ZM451.3,165.6c-.6,0-1.3,0-2,0h2ZM461.3,165.8l-10-.2c3.4.2,6.7.7,10,.2ZM461.5,165.5c0,.1-.1.2-.2.3l2.2-.5c-.7,0-1.4,0-2,.1ZM98.2,228.9l-.8.8c.4-.1.8-.3.8-.8ZM95.7,230.9c.1.2.2.3.3.5l1.4-1.6c-.8.2-1.8.2-1.8,1.1ZM586.2,257.4l1.1-.5c-.4.1-.7.2-1.1.5ZM46.4,286.9l-1.1,4.3c.5-.5,1.4-.6,1.8-.8.2-1.1.5-2.8-.7-3.5ZM51.9,296.8c.7.2,1.4.3,1.8.3l-1.8-.3ZM91.1,298l-.2,1.7c.1-.5.1-1.1.2-1.7ZM69.3,307.3c-.6-.2-1-.2-1.6,0h1.6ZM56.5,307.9c.5,0,1,0,1.4-.4l-1.4.4ZM53.7,308.2c0,.2-.1.3-.2.5l2.9-.7c-1,0-2-.3-2.8.3h0ZM96.7,280.9l-2.8-.2c.8.8,1.8.2,2.8.2ZM109.9,283.8l-2.4-.8c.7.4,1.5.8,2.4.8ZM368,312.1c-.5-.1-1-.3-1.6-.4l1.6.4ZM368,312.1c0-.2,0-.6,0-1.1v1.1ZM368.2,312.4c.8,0,1.6-.3,2.3-.6l-2.5.4s.2.2.2.2ZM361.4,317.9c-.3.6.3,1.6.7,2.2l.8-3.1c-.4.3-.6.8-1.5.9ZM376.2,313.4c.5-1.3-1.2-2.1-2.1-2.8l1.6,3.3c.2-.2.3-.3.4-.5h0ZM162.6,307.7l-1.6,1c.5-.3,1.1-.6,1.6-1ZM163.6,308.7l-2.2,1.4c1,0,1.9-.5,2.2-1.4ZM462.9,329.4l2.2.3c-.7-.2-1.5-.2-2.2-.3ZM282.1,317.6v.6c.2-.2.1-.4,0-.6ZM281.1,316.1c-.2.3-.2.7,0,1,.3.2.8.3,1,.5l.4-1.8c-.6.1-1,.2-1.4.3h0ZM569.8,169.1l-1.7.3c.6,0,1.1-.1,1.7-.3ZM568.1,169.4c-.4,0-.7,0-1.1.2l1.1-.2ZM585.6,155.9c-1,.3-1.9,1-2.2,1.9l2.2-1.9ZM281.3,49.2c-2.8,1.3-5.7,2.6-8.3,4.1-.6-1.4,2.5-.9,1.8-2.4M274.9,50.9c-2.3.1-5.3,1.9-1.9,2.4-.3.2-.5.3-.8.5l.9-.4,8.3-4.1M542.5,54.8c-2.8,1.6,3.4,1.5,0,0h0ZM362.6,57.8c-.1-.9-.6-1.6-1.8-1.9.2.9-.9,2.4,1.8,1.9ZM254.8,59.2c3.3-.3,6-1,6.4-2.9-3.6.2-5.3,1.4-6.4,2.9ZM372.6,60.2c.5-.3,2.1-2.3,0-2.4-.5.3-2.1,2.3,0,2.4ZM357.1,60.2c-.3.7-1.3.9-.9,1.9h2.7c-.2-.9.9-2.4-1.8-1.9ZM168.9,60.7c-2.8,1.6,3.4,1.5,0,0h0ZM480.4,64.6c2-1,1.9-1.8-.9-2.4.5,1.5-2.2,2,.9,2.4ZM241.1,65.1c2.4.2,3-.7,2.7-1.9-2.4-.2-2.4,1-2.7,1.9ZM470.4,63.1c-.7,1.1-2.9,2.8-.9,3.9,3.9.6,3.7-3.9.9-3.9ZM538.9,65.6c.6-.4,2.3-2.4-.9-1.9.2.7-.3,1.8.9,1.9ZM364.4,68c.5-1,1.6-1.8-.9-2.4-1.2.6-.4,1.8.9,2.4ZM458.5,66.1c2.8-1.8,3.1,1.5,0,0h0ZM263.9,69.5c.6,1.8-3.9.8-4.6,1.9,1.5,0,.5,1.4,1.8,1.5,1-1,3.1-1.3,4.6-1.9-1.9-.2,1.4-1.3-1.8-1.5ZM267.6,70.4c.5.5.9,1.9,3.7,2.4.4-1.4-1.9-3.8-3.7-2.4ZM254.8,70.4v1c.9,0,1.1.4,1.8.5,0-.8.1-1.7-1.8-1.5ZM402.8,72.9c1.2-.6,1.2-1.8-.9-1.9-1.2.6-1.2,1.8.9,1.9ZM570,73.4c1.9.4,4.1-1.3,1.8-1.5,0,.8-2.3.4-1.8,1.5ZM277.6,72.4c-.4,1.5,1.1,2,2.7,2.4,1.8-.9,1-3-2.7-2.4ZM232.6,74.3c-.5.2-1.1.5-1.1.7,1.3-.5,2.2,1.1,2.2,0,1.1.4,2.5.5,2.8-.5-1.9-.2-1.8-1.3-3.7-1.5-.9.3-.8.9-.2,1.4h0ZM267.6,74.3v1c.9,0,1.1.4,1.8.5,0-.8.1-1.7-1.8-1.5ZM271.2,75.8c-.2.7.6,1.9.9,1,.2-.7-.6-1.9-.9-1ZM430.2,77.8c-1.7.1-2-.5-3.7-.5-.1,1.2-.1,2.4.9,2.9,2.9.2,2.9-1,2.7-2.4h0ZM272.1,81.7c-.5-.9-.5-2-1.8-2.4-1.9,1,0,2.1,1.8,2.4ZM566.3,81.7c.9,0,1.1.4,1.8.5,0-.5.7-.6.9-1-.9,0-1.1-.4-1.8-.5,0,.5-.7.6-.9,1h0ZM284.9,81.7c-3.1-1.5-2.8,1.8,0,0h0ZM552.6,86.1c0,.3-.1.6-.9.5v1c2.3.8,2.7-1.7.9-1.5h0ZM582.7,88.5c0-.7.4-1.1.9-1.5-2.1-.1-3.4.1-3.7,1,.6,0,1.1,0,.9.5h1.8ZM275.8,88.5c-3,3.2,2.6,2,0,0h0ZM269.4,92.4c.3-1.1-.2-1.8-1.8-1.9-.3,1.1.2,1.8,1.8,1.9ZM527,91.9v-1h-1.8v1h1.8ZM517.9,91.9c-1.4-.8-4.1-.5-3.7,1,1.7,0,3.1-.3,3.7-1ZM548,95.3c2.4.2,2.4-1,2.7-1.9-2.9-.4-1.3,1.6-2.7,1.9ZM261.2,93.9c-.4.8-2.9.4-1.8,1.9,2.3.5,4-1.6,1.8-1.9ZM579.1,94.8h1.8v-1h-1.8v1ZM522.4,99.7c.2.4,0,1,.9,1,.6-2.8-.2-4.1-4.6-5.8-3.1,2.2.4,2.8,0,5.8,3,.6.7-1.6,3.7-1h0ZM249.3,104.1l1.1-.7,1.7.2c.6-1.8-.6-2.6-1.8-3.4l-1.7.2-1.1-.7h-3.7l-.7,1-1.1.9c.4,1.2-1.7,1.1-.9,2.4l1.7-.2,1.1.7c2-1.7,2.1-1.2,5.5-.5h0ZM208.2,100.7c0-.3.1-.6.9-.5.1.6.3,1.1,1.8,1v-1.5c-1.9-.4-5.7.4-2.7,1h0ZM384.5,106.5c-1.3.3-4.7-.6-4.6.5,1.3.3,2.3.7,3.7,1,0-.7.4-1.1.9-1.5ZM254.8,109.5c-1.7.1-2-.5-3.7-.5-1.5,1.4,3.9,1.3,3.7.5ZM582.7,109.5c-1.1.3-6.5.2-6.4,2.4,4.8,1.1,10.3-.7,6.4-2.4ZM262.1,111.4v-1c-1.7-1.6-4.5,1.5,0,1ZM152.4,110.4c-1.2.6-.6,1.5.9,1.9,1.2-.6.6-1.5-.9-1.9ZM252.9,111.9c-1,2.8,4,.2,0,0h0ZM476.8,114.8c-2.5,1.9,3.4,2.1,0,0h0ZM557.2,114.8c0,.8.7,1.3,1.8,1.5,0-.8-.7-1.3-1.8-1.5ZM502.3,133.9c-.1-1.5,5.1-.2,3.7-2.4h-2.7c.7,1.1-4.2,1.6-.9,2.4h0ZM426.5,131.9c0,.3-.1.6-.9.5v1c2.3.8,2.7-1.7.9-1.5ZM371.7,138.7v3.9c4.2.4,2-3.4,0-3.9ZM49.2,142.6c-2.4-.5-2.5-2.3-4.6-2.9M284,143.1c-1.2.6-.6,1.5.9,1.9,1.2-.6,1.2-1.8-.9-1.9ZM296.8,147.5c-.3.3-2.3,1.9,0,1.9-.9-.9,2.7-1.6,0-1.9ZM497.8,147.5c-.3.7-1.3.9-.9,1.9,2.5.8,2.5-2.1.9-1.9ZM271.2,152.4c3.6.6,4.8-2.3,1.8-2.4-1.8,1.2.9,1.7-1.8,2.4ZM403.7,150.9c-1.8,0-1.2-1.3-3.7-1-1,1.2,3.1,2.2,3.7,1ZM286.7,153.4c-.7,3,4.2.3,0,0h0ZM335.2,157.3c0-1.3-.5-2.3-1.8-2.9-.7,1.2-1.6,2.8,1.8,2.9ZM280.3,156.8c-.3,1.1.2,1.8,1.8,1.9,1.4-.7,1-2.2-1.8-1.9ZM67.5,159.2c.1-.5,1.5-1,.3-1.4-.9-1.7-3.8-2.3-4.1.2,1.1.6,2.3,1.2,3.3,1.9l.3-.7s.2,0,.2,0c.2.2.5.3.8.5l-.8-.4h0ZM268.5,158.2c-.3,1.1.2,1.8,1.8,1.9-.2-.9.9-2.4-1.8-1.9ZM372.6,162.6c.3-.7-.6-1.9-.9-1-.3.7.6,1.9.9,1ZM361.6,165.1c-2.6,0-2.3,1.4-3.7,1.9,2.3,0,3.6-.7,3.7-1.9ZM350.7,172.9c.1.9.6,1.6,1.8,1.9.1-1.6,2.1-2.1,1.8-3.9-1.8,0-1.2-1.3-3.7-1-5.4,2-12.1,3.3-12.8,7.8,4.4-.9,5.2-.9,8.2.5-1-3.1,3.5-3.3,4.6-5.4h0ZM62.9,186c2.5.8,2.5-2.1.9-1.9.2.9-1,1.1-.9,1.9ZM584.6,188.5c.5-.7,1.3-1.2,1.8-1.9-2.6,0-5,1.6-1.8,1.9ZM359.8,191.4c0-.8,2.4-2.2-.9-2.4.5.7-1.1,2.5.9,2.4ZM163.4,200.2v1.9c1.4,0,3.4.2,3.7-.5-2.9.4-1.9-1.3-3.7-1.5ZM306.8,200.2c-.3.7-1.3.9-.9,1.9,2.5.8,2.5-2.1.9-1.9ZM172.5,200.7c-2.3,1.5-1.2,2.2-.9,4.4,2.6-.4,2.4.7,4.6.5.6-1.1-2.6-1.6.9-1.5-1-1.5-2.9-2.4-4.6-3.4h0ZM47.4,204.1v-1.9h-2.7c-.3,1.3-.3,2.4,2.7,1.9ZM284.9,204.6c-2.1.2-1-1.4-2.7-1.5.5.7-1.1,2.5.9,2.4,0-.6,1.6-.5,1.8-1h0ZM273.9,208c-1.8,0-1.2-1.3-3.7-1,0,.7-.4,1.1-.9,1.5,2.3-.8,3.2.6,4.6-.5h0ZM328.8,209c0,.8-.2,1.5-.9,1.9,3.1.4,3.6-1.9.9-1.9ZM117.7,209.9c-.8.9-2.6,1.2-1.8,2.9,2.6.3,3.9-2.4,1.8-2.9ZM130.5,213.4h2.7v-1.5h-1.8c0,.6-1.2.7-.9,1.5ZM78.5,217.3c-1.2,0-1.3-.6-2.7-.5-.1,1.2-.2,2.4,1.8,2.4-.2-.9,1-1.1.9-1.9ZM157.9,218.7c-.5,1.2-1.2,1.7.9,2.4.7-.3,2.4-2.9-.9-2.4ZM149.7,222.6c1,.1,1.4.5,1.8,1,1.7.1,2-.5,3.7-.5,1.4-1.5-.5-2.1-.9-3.9h-2.7c.9,1.9-2.7,1.5-1.8,3.4h0ZM525.2,220.7c1.1.4,2.4.6,4.6.5.3-1.1-.2-1.8-1.8-1.9-.1.9-3,.3-2.7,1.5ZM177.1,221.2c-1.6-.9-3.6.6-5.5,1,2.6.1,4.6-.1,5.5-1ZM544.4,232.9c-.1.6-1.6,1.1,0,1.5.1-.6,1.6-1.1,0-1.5ZM94.9,237.3c-1.3,1.9,4.5.3,2.7-.5-.8-.4-2.6.3-2.7.5ZM399.1,243.1c-2.8,2.9,3.4,2.4,0,0h0ZM221,247c-1,2.8,4,.2,0,0h0ZM406.4,256.3c.7.1,1.1.4.9,1,2.4,0,7-1.4,4.6-2.4-.3,1.3-4.7.4-5.5,1.5h0ZM402.8,257.3v1.5c2.7.7,2.7-2.2,0-1.5ZM54.7,258.2c-.5.7-1.3,1.2-1.8,1.9,2.3.5,4-1.6,1.8-1.9ZM205.4,261.6c.6-.4,2.3-2.4-.9-1.9.2.7-.3,1.8.9,1.9ZM379.9,266.5c-.7,1.1-3.5,1.1-3.7,2.4,2.9-.6,2.4.1,4.6-.5-.2-.7.3-1.8-.9-1.9ZM375.4,269.4c-3.1-1.5-2.8,1.8,0,0h0ZM356.2,278.7c-2.3,0-2.9.8-3.7,1.5,2.3,0,2.9-.8,3.7-1.5ZM130.5,302.1c2.3-.6,3-2,5.5-2.4-2-.4-4.9.2-8.2-.5.7,1.3-1.8,1-1.8,1.9,1.7.2,2.3,1,4.6,1h0ZM61.1,316.3v1.5c2.1.1,3.4-.1,3.7-1-1.2-.2-1.7-.7-3.7-.5ZM59.3,322.6c2.9.2,3.7-.6,4.6-1.5-3.2,0-1.5-2.5-4.6-2.4-2.5,1-1.7,2.7,0,3.9ZM66.6,321.6c-2.1-.1-3.4.1-3.7,1,3-.6.7,1.6,3.7,1v-1.9ZM135.1,333.3c-.8,1,.8,3,1.8,1.5-1.5,0-.5-1.4-1.8-1.5ZM103.1,343.1c0,1.3-3.9.5-2.7,2.4,3.6.5,6.3-2,2.7-2.4ZM50.1,345c1.6,0,2.3-.4,2.7-1-1.4,0-3.2,0-2.7,1ZM90.3,349.9c.1-.6,1.6-1.1,0-1.5-.1.6-1.6,1.1,0,1.5ZM466.7,49c-1.6,2.9-5.3,4.6-11.9,4.9-2.2,1.4-4,3.1-8.2,3.4-.2-.6.2-1.4-.9-1.5-1.6,4.5-12.4,4.1-17.4,6.8-1.6-.9-2.3.4-5.5,0-.3,1,1.2,1,1.8,1.5-1.3.3-2.2.8-2.7,1.5l1.4.6-.5.9c5.1-.2,8.3-1.4,10-3.4,7.2,1.1,12.5-2.6,18.3-4.4,6.9-2.1,14.1-4.2,18.3-6.8M263.9,122.1c1.5-2.4,7.6-4.6,11.9-3.9,2.3-2.9,9-3.3,11.9-5.8l-1.4-.2-.5-.7c-3.2.9-3.9,0-6.4-.5,1,3.7-13,1.2-6.4,3.4-1.3.3-4.7-.6-4.6.5,1.1.2,2.1.5,2.7,1-3.4.5-6.1-1.2-7.3,1.9-4.1.4-8.6.6-9.1,2.9l1.4.6-.5.9c4.2.3,5.5-.7,8.2,0h0ZM318.7,102.1v-1.9l-1.7.2-1.1-.7c-1,.1-1.4.5-1.8,1l.5.7-.5.7c2.9.3,2.8-.9,4.6,0h0ZM379.9,79.2l-1.6-.3-1.2-.6c-9,3.8-19.5,6.8-29.2,10.2l1.4.6-.5.9c11.6-.7,17.8-4.9,28.3-7.3,1-1.1,1.5-2.4,2.7-3.4ZM381.8,78.7c1.5,2.7,6.1-.6,11.9-2.9,3.3-1.3,6.6-1.6,6.4-2.9-7.9-1.1-14.3,2.7-20.1,4.4l1.4.6-.5.9c0,0,.9,0,.9,0h0ZM213.7,129.5l-1.4-.6.5-.9c-21.1,2.4-35.9,8.1-53.9,12.2-4.2-1.7-4.9.4-11,0-6.7,2.2-13.9,5.3-21.9,6.8-1.3.3-3.2-.2-4.6,0-6.4.8-6.8,1.9-11,3.9-.2,0-.3.2-.5.2l-2.7-1.9c0,.4,0,.6,0,.9.6.4,1.2,1.1,2,1.3-3.1,1.2-6.1,1.5-8.9,2.9l1.4.2-.5.7c10.8-.4,19.4-5.5,27.4-4.4,1.6-.5,1.8-1.6,3.7-1.9,18.5-1.5,30.2-9.2,47.5-9.8,5.8-4,18.6-5.4,24.7-7.8,3.4.8,6.1-1.1,9.1-1.9h0ZM515.1,77.3c.1-1.2.1-2.4-.9-2.9-1,0-2.3.2-.9.5,2.5-.2-.7,2.7,1.8,2.4ZM535.2,101.2c-1.8-.8-1.2,0-3.7,0l.5.7-1.4-.2c-.1,1.7-3-1-2.7.5,1.1,0,1,.8.9,1.5l1.7-.2,1.1.7c2.5-.3,3.6-1.3,3.7-2.9h0ZM517,108.5l1.6.3,1.2.6c3.8-1,7-2.5,9.1-4.4l-1.4-.6.5-.9c-4.4-.4-9.5,2.1-11,4.9h0ZM474,121.7c1.7,5.3-8.1,4.4-11,7.3l1.4.6-.5.9c8.5-.8,13-3.8,18.3-6.3l-1.6-.3-1.2-.6c-2.8,0-3.6-1-5.5-1.5h0ZM500.5,108c-2.3-1.8,3.9-2.7,0,0h0ZM510.6,130.4c-1.8.4-.2,2.5.9,1-.6,0-1.1,0-.9-.5.5,0,1-.4,0-.5ZM255.7,135.8c-3,.6-.7-1.6-3.7-1-.7,1.1,3.4,2,3.7,1ZM400,151.4h-1.8c-.2.5-4,1.3-1.8,1.5,1.2-.5,3.4-.5,3.7-1.5ZM365.3,162.6c-.3,0,.3.9,0,1-2.5,1.2-1.4.6-.9.5,2.3-.7,2.5-2,.9-1.5ZM102.2,166c.1.5-3.9,1-.9,1.5-.5-.7,3.6-1.2.9-1.5ZM50.1,176.3c.3-.7,1.3-.9.9-1.9-3.1-.4-3.6,1.9-.9,1.9ZM295,193.4c-9,1.7-14.8,5.1-21.9,7.8l1.4.2-.5.7c5.4.9,10.1-2.7,16.5-2.9,2.2-.2-.5,2.2,2.7,1.5.7-1.7.1-1.8.9-3.9,11.8-3.1,22.1-7,30.1-12.2l-1.2-.6.3-.9c-10.3,3-19.5,6.5-28.3,10.2h0ZM333.3,176.3c-.2,1.5-3.6,1.3-2.7,3.4l1.7-.2,1.1.7c3.7-.3,2.6-3.3,0-3.9h0ZM531.6,215.8c1.3-1.4,4.2-2,5.5-3.4l-1.4-.2-.5-.7c-5.6-.5-6.6,3-3.7,4.4h0ZM567.2,204.6c0,.5-.7.6-.9,1,2.1-.7,3.4,1.3,3.7,0-.7-.1-1.1-.4-.9-1h-1.8ZM147.9,211.9c2.5-.2-.7,2.7,1.8,2.4.5-.7,1.3-1.2,1.8-1.9-1.2,0-3.4-1.6-3.7-.5ZM194.5,272.4c0,.3-.1.6-.9.5-.2-.4,0-1-.9-1,0,.3-.1.6-.9.5v1c1.9.4,5-.8,2.7-1h0ZM517.9,364.1c1.2-.4,4.8-2.4,3.7-1.9-2.9,1-4.5,2.3-3.7,1.9ZM338.8,107.5c2.6.1,3.1.4,4.6,1.9,1.3-.2,3.9-1.1,6.4-1.9-5.1,0-6-2.3-10-2.9.1,1.2.1,2.4-.9,2.9ZM263.9,54.8c1.5,0,2.1-.6,3.2-1l-3.2,1ZM569.3,86.8c-4.8,1.8-9.5,3.7-14.1,5.5l14.1-5.5ZM332.9,90.7c-1.5,0-2.9.5-4.3.9l4.3-.9ZM328.6,91.6l-1.6.3c.6,0,1.1-.2,1.6-.3ZM251.6,104.3l-1.2-1c.4.4.8.8,1.2,1ZM242.9,106.8l-.2-2.9c-.6,1-.2,2,.2,2.9ZM243.1,100.7l-2.5.2c.8.1,1.7,0,2.5-.2ZM243.1,100.7l-.7-1.8c0,.6.2,1.2.7,1.8ZM248.5,100.4c.3-.8.3-1.6.3-2.4l-.3,2.4ZM255.3,101.6c.5-.5.8-1.1,1.6-1.5l-4.4.3c.4.6,1.6,1.2,2.8,1.1h0ZM256.9,100.1l2-.2c-.9-.1-1.5,0-2,.2ZM372.7,114.9c-1.1-.1-3.2-.6-3.8.2,0,0,0,.1,0,.2l4.7.8c-.2-.4-.4-.9-.9-1.2h0ZM466.7,117l-3.2,4.4c2.4-1,2.5-2.9,3.2-4.4ZM413.4,146.5c.3,0,.5-.2.8-.3l-.8.3ZM411.9,147l1.5-.5c-.4.1-.9.2-1.5.5ZM283,151.2c-.3-.3-1.4-.3-3.1-.5l3.2.7s0-.1,0-.2h0ZM293.6,157.5l-.9,3.9c.7-1.2.9-2.6.9-3.9ZM572.7,193.6c.3-.3.7-.7,1.1-1.1l-1.1,1.1ZM485.4,230.9c13.7-4.1,28.5-8.7,39-15l-39,15ZM145.3,230.4l13.1-4.1c-4.9.8-8.9,2.5-13.1,4.1ZM145.3,230.4l-7.9,2.5c2.9-.6,5.4-1.5,7.9-2.5ZM65.9,256.1l-1.6.6c.7-.1,1.2-.4,1.6-.6ZM65.9,256.1l3.8-1.5c-2.1,0-2.8.8-3.8,1.5ZM542.2,270.5l.8-.8c-.4.3-.5.5-.8.8ZM167.5,281.9l1.8-.2c-.6,0-1.2.1-1.8.2ZM423.3,66.1l-15.5,4.3c5.8-.7,10.3-2.9,15.5-4.3ZM295.6,108.6l19-7.2c-6.6,2.1-12.7,4.7-19,7.2ZM286.3,112.1c3.2-1.1,6.3-2.3,9.3-3.5l-9.3,3.5ZM317,100.4l28.2-10c-9.6,3.2-20,5.9-28.2,10ZM378.4,78.9l2.9-1c-1.1.2-2.2.6-2.9,1ZM101.7,154.6l-8.2,2.9c2.8-.9,5.5-1.9,8.2-2.9ZM212.3,128.9c14.6-2.6,30.2-3.7,43.9-7.6l-43.9,7.6ZM539.3,97.5l2.7-1c-1.4,0-2.6.2-2.7,1ZM532,101.9l-.9-1c.2.3.4.6.9,1ZM464.4,129.6l-9.1,3.3c3.1-.8,6-2.2,9.1-3.3ZM492.1,119.3l-11.4,4.5c4-1.4,7.7-2.9,11.4-4.5ZM527.5,104.5c1.3,0,2.3-.6,3-1.1l-3,1.1ZM428.8,141.9l5.3-2.1c-2,.6-4.2,1.1-5.3,2.1ZM434.1,139.8c.7-.2,1.4-.5,2-.8l-2,.8ZM381.8,158.2l4.9-2c-1.8.5-3.6,1-4.8,1.8,0,0,0,.1,0,.2h0ZM393.2,153.6l-6.5,2.7c2.5-.6,5.1-1.3,6.5-2.7ZM277.2,158.5c0-1-1-2-1.8-2.9l1.8,2.9ZM323,184l1.8-.9c-.6.3-1.3.6-1.8.9ZM324.8,183.1c2.6-1.1,5.6-2.1,7.5-3.6l-7.5,3.6ZM274.4,201.4l-45.7,9.3c15.1-3.1,31.5-5,45.7-9.3ZM547.5,206l20.2-10.5c-6.8,3.1-13.4,6.8-20.2,10.5ZM547.5,206l-11.8,6.1c4-2,8-4,11.8-6.1ZM130.4,235.1c-1.4.4-3,.7-4,1.4l4-1.4ZM130.4,235.1c.5-.2,1-.3,1.5-.5l-1.5.5ZM115.5,240.4c-1.2.2-2.6.1-3.7.5l3.7-.5ZM99.9,245.3l-1.8,1c1-.2,1.4-.6,1.8-1ZM209,261.9l-2.7,2.5c1.8-.5,1.9-1.6,2.7-2.5ZM209,261.9l.5-.5c-.2.2-.4.3-.5.5ZM100.8,353.3l-5-3.7c.4,1.1-1,2.2-.2,3.2.4.1.7.3,1.1.4,1.1,0,2.7,0,4.1,0ZM54.2,459.9c.1-1,.3-3.1-1.6-3.1-.7,1.1-1,2.9.5,3.3M50.5,446.1c1.4-1.8-2.2-1.1,0,0h0ZM58.2,434.9c.7-.2,1.9,1.7,2.2.1-.4-.2-1.9-1.7-2.2-.1ZM64.1,429.7c-.7.4-2.9-.1-2.6.9.8-.4,2.9.1,2.6-.9ZM196.4,352c-.8-.5-2.8-.3-2.6.9.8-.4,2.9.1,2.6-.9ZM133.9,357.9c-.6-.4-2.8,0-2.6,1.3,1.4-.1,2.6-.3,2.6-1.3ZM162,346.6c4-.4-1.5-1.2-1.6.2.8,0,1,.4,1.6-.2ZM152.8,333c-1.4.2-2.5.6-3.1,1.4,1.6-.1,2.7-.5,3.1-1.4ZM122.5,317.9c-4-1.1-4.8-4.8-7.5-6.1-.4,1.4.2,5.3.7,8.5l.8-.4.4.7c1.6-1.1,6.1-.4,5.7-2.8h0ZM137.8,302.2c0-.3,0-.6.5-.5v-.9c-1.6-.5-1.5,1.8-.5,1.5ZM135.3,300.1c.7-.1.6.7,1.2.8,1.2-.7-.9-2.1-1.2-.8ZM141.1,294.5c.6.7,2,1.2,2.1-.2.5.2,1.3.3,2.4.1-.7-1.1-1.1-2.4-4-1.9.4.6.6,1.2,1.3,1.6-.7-.2-1.9-.5-1.8.4h0ZM88.6,293.6c1.4-.1,1.8.6,2.1-.8-.8-.5-1.7,0-2.1.8ZM63.9,413.9c-4.1-3.9-11.2,2-10.3,4.9.1-.6,3.2,0,4.9-.7.7,1.9,2.5,2.6,4.3,3.2,1.4-.5.8-2.3,2.3-2.7,1.5,1.1,4,.9,4.3,3.2,2.8-.8,4.9.5,5.3-1.7-1-.9-3.1-.4-4.1-1.3.6-.3,1.2-.7,1.5-1.2-3.1-1.9-8-2.4-11.2-1.2.7-1,3.7-.5,2.9-2.4h0ZM173.4,342h.8c0,.1-.2.9-.2.9.7.8,1.4,1.7,2,2.6-.9.3-1.5-.5-1.6.2.3,0,.7.3,0,.5l.4.8-.7.7v.9c.1,0,1,.1,1,.1l-.2.7c1.3.4,3.2.3,4.5.8-.3-.9.5-1.1.3-2l-.8.4-.4-.7c-1.5,0-.2-1.5.9-1.1l.3.2.3.2c.3-.7,1-1,2-1.3l-.4-.8.7-.7c-.6-1.8-3.3-1.2-2.2-3.5-2.3,0-2.3,1.4-2.9,2.4-1.5-.9.7-1,.2-2.4-.4,0-1.1.2-1.1-.3l-.5.3-.6-.2c-.2.7-2.1.4-2,1.3h0ZM168.7,347c.3-1.1-4.1,1.5,0,0h0ZM133.7,349.3s0,0,.1,0c-.1,0-.2.1-.3.2,0,0,0,0,.2-.1h0ZM134.7,348.7c-.2.1-.4.3-.8.5.2-.1.5-.3.8-.5ZM134.7,348.7c.2,0,.3-.2.3-.2,0,0-.2.1-.3.2ZM118.9,331.3c-2.1.3-2.5,2.8-.7,2.5,0-.6-.4-1-.7-1.3.8-.2,1.9-.2,1.5-1.2ZM115.4,326.1c.9.2.2,2.3,1.9,1.6-.9-1.1.9-2.4-.3-2.3,0,.5-.5.8-.9,1.1.1-1-2.3-.7-.6-.4h0ZM32.4,455.7l-1.2,1.4c.5-.6,1-1,1.2-1.4ZM39.9,450.3l-2.7,2.4c1-.7,2.2-1.3,2.7-2.4ZM35.7,454l1.5-1.3c-.6.4-1.1.8-1.5,1.3ZM62.3,423.5l-3.9-.5c1.3.4,2.5.9,3.9.5ZM58.4,423c-.7-.2-1.4-.4-2.2-.3l2.2.3ZM155.6,331.2c0,0,0-.2,0-.3v.5c0,0,0-.1.1-.2h0ZM155,333l.4-1.5c-.4.4-.5.9-.4,1.5ZM116.4,323.3v-3.4c-1.1,1.1,0,2.2,0,3.4ZM148.6,354.6l-1.6.5c.6-.1,1-.3,1.6-.5ZM181.9,345.1c.4,0,.7,0,1.1,0h-1.1ZM179.8,347.8c.6.2,1.3.3,2,.2l-2-.2ZM179.1,348.6l.7-.8c-.2,0-.5.4-.7.8ZM175.3,348.7l-1.3.4c.4-.1.8-.2,1.3-.4ZM175,347c-.4,0-.7,0-1.1,0h1.1ZM157.3,348.2l1.5.7c-.3-.2-.8-.4-1.5-.7ZM157.3,348.2l-2.4.8c.9.2,1.9,0,2.4-.8ZM174.3,342.1l-4.4.2c1.3,1,3,.5,4.4-.2ZM180,347l-.2.7c.1-.2.1-.5.2-.7ZM155.2,347.3l2.1.9c0-.9-1.4-.6-2.1-.9ZM155.5,339.6l.7-1.1c-.5.3-.5.7-.7,1.1ZM18.4,465.3c2.6-1.7,5.2-3.4,7.6-5.3.8,1.3-2.4,1.3-1.5,2.6M24.6,462.7c2.3-.4,5-2.7,1.5-2.7.2-.2.5-.4.7-.6l-.8.6-7.6,5.3M43.3,451.5c-3.2.8-5.8,1.9-5.9,3.8,3.6-.7,5-2.2,5.9-3.8ZM128,437.5c2.5-2-3.6-1,0,0h0ZM56,443.7c-2.4.2-2.9,1.1-2.4,2.3,2.4-.2,2.2-1.3,2.4-2.3ZM32.7,442.7c-.9-1.7,3.7-1.4,4.2-2.6-1.5.2-.7-1.3-2-1.2-.8,1.1-2.9,1.7-4.2,2.6,1.9-.1-1.2,1.5,2,1.2ZM29,442.3c-.6-.4-1.2-1.8-4-1.9-.2,1.4,2.5,3.5,4,1.9ZM41.6,440.4v-1c-1.1.1-1.3-.2-2-.2.2.7.1,1.7,2,1.2ZM18.7,441.8c.2-1.6-1.4-1.8-3.1-2-1.6,1.2-.5,3.1,3.1,2ZM62.9,433.4c.5-.2,1-.6,1-.8-1.2.7-2.3-.8-2.2.4-1.2-.3-2.5,0-2.7.9,1.9-.1,2,1,3.8.9.8-.5.6-1,0-1.4h0ZM28.4,438.4v-1c-1.1.1-1.3-.2-2-.2.2.7.1,1.7,2,1.2ZM24.6,437.5c.1-.7-.8-1.8-1-.8-.1.7.8,1.8,1,.8ZM22.8,431.9c.6.8.8,1.9,2.2,2.1,1.7-1.2-.3-2.1-2.2-2.1ZM10.2,433.8c3.3,1,2.5-2.2,0,0h0ZM18.2,425.7c2.5-3.6-2.9-1.6,0,0h0ZM23.9,420.8c0,1.1.5,1.8,2.1,1.7,0-1.1-.5-1.8-2.1-1.7ZM31.9,418.2c.3-.8,2.8-.8,1.5-2.2-2.4-.2-3.8,2.2-1.5,2.2ZM42.1,406.3l-1,.9h-1.7c-.3,1.9,1,2.5,2.3,3.1l1.6-.5,1.2.6,3.6-.5.5-1.1,1-1.1c-.5-1.1,1.5-1.3.6-2.5l-1.6.5-1.2-.6c-1.7,2-1.9,1.5-5.4,1.3h0ZM83.3,403.7c0,.3,0,.6-.8.6-.2-.6-.4-1.1-2-.7l.2,1.4c1.9.1,5.6-1.3,2.6-1.4h0ZM35.9,401.8c1.7-.4,2.1.2,3.7,0,1.3-1.6-4.1-.8-3.7,0ZM28.4,401v1c2.1,1.4,4.3-2.1,0-1ZM137,385.9c1.1-.8.3-1.5-1.2-1.8-1.1.8-.3,1.5,1.2,1.8ZM37.4,399.1c.5-2.9-3.9.4,0,0h0ZM13.3,361.8c-3.7,0-4.5,3-1.5,2.7,1.6-1.5-1.1-1.6,1.5-2.7ZM15.2,355.6c0-1.1-.5-1.8-2.1-1.7.3.8-.6,2.6,2.1,1.7ZM113,298.7l-.3-1.9c-1.3.3-3.4.3-3.5,1,2.8-.8,2.1,1,3.8.9ZM103.9,299.5c2-1.8.8-2.3.3-4.5-2.5.8-2.4-.3-4.6.2-.4,1.1,2.8,1.2-.7,1.6,1.2,1.3,3.2,1.9,5,2.7h0ZM2.5,307.2c1.8-.3,1.3,1.1,3.8.4-.1-.7.3-1.1.7-1.6-2.2,1.2-3.3,0-4.4,1.1h0ZM156.7,282.4c.7-1,2.3-1.6,1.4-3.2-2.6,0-3.5,3-1.4,3.2ZM143.6,280.8l-2.7.4.2,1.4,1.8-.3c0-.6,1.1-.8.7-1.6ZM25,390.6c-1.1,2.6-6.8,5.6-11.2,5.6-1.8,3.2-8.4,4.6-10.9,7.5h1.4s.6.7.6.7c3-1.3,3.8-.7,6.4-.5-1.6-3.5,12.7-3.1,5.8-4.3,1.3-.5,4.8-.1,4.4-1.1-1.1,0-2.1-.2-2.8-.6,3.3-1,6.2.3,6.9-3,4-1,8.4-1.9,8.6-4.2l-1.4-.4.3-.9c-4.2.3-5.4,1.5-8.1,1.2h0ZM73.6,376l1.4.4-.3.9c20.5-5.5,34.3-13.3,51.5-20,4.4,1.1,4.8-1.1,10.8-1.6,6.3-3.2,13-7.3,20.7-10,1.3-.5,3.2-.3,4.5-.7,6.2-1.7,6.4-2.8,10.3-5.5.2,0,.3-.2.4-.3l3,1.5c0-.4-.1-.6-.2-.9-.7-.3-1.4-.9-2.1-1,2.9-1.7,5.8-2.4,8.4-4.2h-1.4s.3-.8.3-.8c-10.7,2-18.4,8.3-26.5,8.4-1.5.7-1.6,1.9-3.3,2.5-18.1,4.2-28.5,13.5-45.6,16.6-5.2,4.8-17.6,8-23.3,11.3-3.5-.3-5.9,2-8.8,3.3h0ZM31.1,375.9c2.8-1,.9,1.5,3.8.4.5-1.2-3.6-1.5-3.8-.4ZM178.5,323.5c-.2-.5,3.8-1.5.7-1.6.6.6-3.4,1.7-.7,1.6ZM126.6,284.8c-2.5.6.3-2.7-2.2-2.1-.4.8-1.2,1.4-1.5,2.2,1.2-.3,3.6,1.1,3.7,0ZM34.9,457.2c-1.4.3-2,.9-3,1.4l3-1.4ZM39.8,406.4l1.4.8c-.4-.3-.9-.7-1.4-.8ZM48,402.7l.6,2.9c.5-1-.1-2-.6-2.9ZM48.7,408.7l2.5-.5c-.8,0-1.7.2-2.5.5ZM48.7,408.7l.9,1.6c-.1-.5-.4-1.2-.9-1.6ZM43.4,409.8c-.2.9,0,1.7,0,2.5v-2.5ZM36.5,409.7c-.4.6-.7,1.2-1.3,1.7l4.3-1c-.5-.5-1.7-1-3-.7h0ZM35.2,411.4l-1.9.4c.9,0,1.5-.2,1.9-.4ZM1.8,364.7c.4.2,1.4,0,3.2,0l-3.3-.3s0,.1.1.2h0ZM180.7,334.8l7.7-4.1c-2.6,1.3-5.1,2.7-7.7,4.1ZM75.1,376.4c-14.1,4.7-29.4,8.1-42.3,14l42.3-14ZM6.6,356.6c.2,1,1.3,1.8,2.2,2.6l-2.2-2.6ZM3,313.8l43.8-15.9c-14.5,5.3-30.4,9.6-43.8,15.9ZM382.4,414.6c.8.5-1.5.6,0,0h0ZM477,488.2c-1.8,0-3.4-.3-4.7-1-1.4-.7-2.4-1.9-3.2-3.5-.7-1.6-1.1-3.8-1.1-6.5s.4-5.1,1.2-6.7c.8-1.6,1.9-2.7,3.2-3.4,1.4-.7,2.9-1,4.6-1s3.2.3,4.3,1c1.2.6,2.1,1.7,2.7,3.1.6,1.5.9,3.4.9,5.9v2.6h-14.6l1.9-.7c0,1.3,0,2.3.1,3.1.1.8.3,1.4.5,1.9.2.4.5.8.7,1,.3.3.7.5,1.1.6.4.1,1,.2,1.6.2s1.4,0,2.1-.2c.7-.1,1.4-.3,2.1-.4.7-.2,1.2-.3,1.7-.5.5-.2.9-.3,1.1-.4l1,3.1c-.2,0-.7.3-1.4.6-.7.3-1.6.6-2.6.8s-2.2.4-3.4.4ZM472.3,476.6l-1.9-1,12.2-.3-1.9,1.1c0-1.5,0-2.7-.1-3.7,0-1-.3-1.8-.6-2.3-.2-.2-.4-.4-.8-.6-.4-.2-1-.3-2.1-.3s-1.9.1-2.5.4c-.5.2-.9.5-1.2.9-.8.9-1.1,2.9-1,5.9ZM458.4,488.2c-1.7,0-3.3-.4-4.6-1.1-1.3-.7-2.4-1.9-3.1-3.6-.7-1.6-1.1-3.8-1.1-6.4s.3-4,.8-5.4c.5-1.4,1.2-2.6,2.1-3.4.9-.8,1.9-1.4,3.1-1.7s2.4-.5,3.8-.5,2.2,0,3.2.3c1,.1,1.8.3,2.4.4l-.5,3.3c-.6,0-1.4-.2-2.5-.3-1-.1-2.1-.2-3.1-.2s-1.7,0-2.2.2c-.5.1-.9.4-1.2.7-.5.5-.8,1.3-1.1,2.5-.3,1.2-.4,2.6-.4,4.3s.1,2.8.3,3.8c.2.9.5,1.7.8,2.2.3.5.6.8.9,1,.2.1.4.3.7.4.3.1.8.2,1.3.2s1.3,0,2-.3,1.4-.4,2-.6c.7-.2,1.2-.4,1.6-.6.4-.2.6-.3.6-.3l1.2,3.1s-.3.2-.9.5c-.6.3-1.4.7-2.4,1-1,.3-2.3.5-3.7.5ZM440.5,487.7v-21.2h4.2v21.2h-4.2ZM440.2,463.3v-3.5h4.7v3.5h-4.7ZM433.3,488.2c-1.1,0-2.1-.2-3-.5-.8-.4-1.5-1.1-1.9-2.1-.4-1-.7-2.6-.7-4.6v-10h-2.4v-2.6l2.6-.5.8-5h3.2v4.9h4.3v3.3h-4.3v10.1c0,1.1,0,1.9.1,2.4,0,.5.3.8.5,1,.3.1.7.2,1.2.2s.7,0,1.1,0c.4,0,.7,0,.9,0,.2,0,.4,0,.4,0v3.4s-.3,0-.8.1c-.6,0-1.2.1-2.1.1ZM415.8,488.2c-1,0-1.9,0-2.9-.3s-1.7-.4-2.5-.7c-.7-.3-1.3-.5-1.7-.7-.4-.2-.6-.3-.6-.3l1-3.4.6.3c.4.2,1,.4,1.7.7.7.2,1.5.5,2.3.7.8.2,1.7.3,2.5.3s.9,0,1.2-.1c.3,0,.6-.2.8-.4.2-.2.4-.5.6-.9.2-.4.3-.8.3-1.3,0-.8-.2-1.4-.7-1.9-.4-.5-1-.8-1.7-1-.7-.3-1.5-.5-2.3-.7-.7-.2-1.4-.5-2.2-.7-.7-.3-1.4-.6-2-1-.6-.4-1.1-1-1.4-1.7-.4-.7-.5-1.7-.5-2.8,0-1.8.6-3.3,1.7-4.3,1.2-1.1,3.1-1.7,5.7-1.7s1.8,0,2.7.2c.9.1,1.6.3,2.3.4.7.1,1.2.3,1.5.4l-.6,3.3s-.2,0-.6-.1-.9-.2-1.5-.3c-.6-.1-1.3-.2-2.1-.3-.7,0-1.5-.1-2.2-.1s-1.2,0-1.5.1c-.3,0-.6.2-.8.3-.1.1-.3.3-.4.6-.1.3-.2.6-.2,1,0,.8.2,1.4.7,1.8.5.4,1.1.8,1.9,1,.8.2,1.6.5,2.4.8.7.2,1.4.4,2.1.7.7.3,1.3.6,1.9,1,.6.4,1,1,1.4,1.7.3.7.5,1.6.5,2.7,0,2-.6,3.7-1.9,4.9-1.3,1.3-3.1,1.9-5.4,1.9ZM393.2,488.2c-1.3,0-2.3-.3-3.1-.8-.8-.6-1.4-1.4-1.8-2.6-.4-1.1-.6-2.6-.6-4.3v-13.9h4.2v13.1c0,1.2,0,2.1.1,2.8,0,.7.2,1.1.4,1.4.2.2.4.4.8.5.3,0,.7.1,1.1.1.9,0,1.9-.2,2.8-.5,1-.4,1.8-.8,2.6-1.2v-16.1h4.2v21.2h-2.7l-.5-2.1h-.2c-.5.3-1.1.6-1.8,1-.7.4-1.6.8-2.5,1.1-.9.3-1.8.5-2.8.5ZM375.7,488.2c-.4,0-.9,0-1.3,0-.4,0-.8-.1-1-.2-.3,0-.5,0-.5,0l.4-3.6c.3,0,.7.1,1.2.2.6,0,1.1.1,1.6.1s.8-.1,1.1-.3c.3-.2.5-.7.7-1.4.2-.7.3-1.9.3-3.5v-16.9h4.2v16.6c0,2.3-.3,4.1-.9,5.5-.6,1.3-1.4,2.3-2.4,2.9-1,.6-2.1.9-3.4.9ZM354.3,487.7v-21.2h2.6l.6,2.2h.2s.2-.1.5-.4c.4-.3.8-.6,1.4-.9.6-.3,1.2-.6,1.9-.9.7-.3,1.3-.4,2-.4s1,0,1.4.1c.3,0,.5.1.5.1l-.3,3.8s-.2,0-.5,0-.7,0-1.1,0c-.7,0-1.3,0-2,.3-.6.2-1.2.4-1.7.6-.5.2-.9.5-1.3.7v16.1h-4.2ZM341,488.2c-2.2,0-3.9-.4-5.1-1.3-1.2-.9-2.1-2.2-2.6-3.8-.5-1.7-.8-3.6-.8-5.9s.3-4.2.8-5.9c.5-1.6,1.4-2.9,2.6-3.8,1.3-.9,3-1.4,5.1-1.4s3.8.5,5.1,1.4c1.3.9,2.1,2.2,2.6,3.8.5,1.6.8,3.6.8,5.9s-.3,4.2-.8,5.9c-.5,1.6-1.4,2.9-2.6,3.8-1.2.9-2.9,1.3-5.1,1.3ZM341,484.8c.8,0,1.5,0,2-.3.6-.2,1-.6,1.3-1.1.3-.6.6-1.3.7-2.4.1-1,.2-2.3.2-3.9s0-2.9-.2-3.9c-.1-1-.3-1.8-.7-2.3-.3-.6-.7-.9-1.3-1.1-.6-.2-1.2-.3-2-.3s-1.5.1-2.1.3c-.6.2-1,.6-1.3,1.1-.3.5-.6,1.3-.7,2.3-.1,1-.2,2.3-.2,3.9s0,2.9.2,3.9c.2,1,.4,1.8.7,2.4.3.5.8.9,1.3,1.1.6.2,1.2.3,2.1.3ZM321.9,487.7v-16.9h-2.4v-2.6l2.4-.5c0-2,.4-3.5,1-4.7.6-1.2,1.4-2,2.4-2.5,1-.5,2.2-.8,3.5-.8s.7,0,1.1,0c.4,0,.8,0,1,0h.4l-.3,3.4h-.5c-.3,0-.7,0-1.1,0-.4,0-.8,0-1.2,0-.6,0-1,.1-1.4.3-.3.2-.6.6-.7,1.2-.1.6-.2,1.6-.3,2.9h4.7v3.3h-4.7v16.7h-4.2ZM304.5,493.8l-2.2-1.3c.4-.5.7-1.1.9-1.7.2-.7.3-1.4.3-2.4v-4.6h4.1v2.9c0,1.9-.3,3.4-.9,4.5-.6,1.1-1.3,2-2.1,2.6ZM291,488.2c-1.8,0-3.4-.3-4.7-1-1.4-.7-2.4-1.9-3.2-3.5-.7-1.6-1.1-3.8-1.1-6.5s.4-5.1,1.2-6.7c.8-1.6,1.9-2.7,3.2-3.4,1.4-.7,2.9-1,4.6-1s3.2.3,4.3,1c1.2.6,2.1,1.7,2.7,3.1.6,1.5.9,3.4.9,5.9v2.6h-14.6l1.9-.7c0,1.3,0,2.3.1,3.1.1.8.3,1.4.5,1.9.2.4.5.8.7,1,.3.3.7.5,1.1.6.4.1,1,.2,1.6.2s1.4,0,2.1-.2c.7-.1,1.4-.3,2.1-.4s1.2-.3,1.7-.5c.5-.2.9-.3,1.1-.4l1,3.1c-.2,0-.7.3-1.4.6-.7.3-1.6.6-2.6.8-1,.2-2.2.4-3.4.4ZM286.3,476.6l-1.9-1,12.2-.3-1.9,1.1c0-1.5,0-2.7-.1-3.7,0-1-.3-1.8-.6-2.3-.2-.2-.4-.4-.8-.6-.4-.2-1-.3-2.1-.3s-1.9.1-2.5.4c-.5.2-.9.5-1.2.9-.8.9-1.1,2.9-1,5.9ZM267.9,488.2c-1.3,0-2.5-.4-3.6-1.1-1-.8-1.9-2-2.5-3.5-.6-1.6-.9-3.6-.9-6.1s.2-4.2.7-5.7c.5-1.5,1.1-2.6,1.9-3.4.8-.8,1.7-1.4,2.6-1.7.9-.3,1.9-.5,2.9-.5s1.4,0,2,.1c.6,0,1.2.2,1.6.3.4,0,.7.2.9.3v-6.5h4.2v27.4h-2.7l-.5-2.1h-.2c-.4.3-.9.6-1.5,1-.6.4-1.3.8-2.1,1.1s-1.7.5-2.6.5ZM268.4,484.7c.4,0,.9,0,1.4-.2.5-.1,1-.3,1.5-.5.5-.2.9-.4,1.3-.5.4-.2.6-.3.8-.4v-12.5c-.2,0-.5-.2-.9-.3-.5-.1-1-.3-1.6-.4s-1.3-.2-2-.2c-1.2,0-2,.3-2.4.8-.2.2-.4.6-.6,1.1-.2.5-.3,1.2-.4,2.2-.1,1-.2,2.2-.2,3.8s0,3.1.2,4.1c.2.9.4,1.6.6,1.9.2.4.4.6.5.7.2.2.5.3.8.4.3,0,.7,0,1.1,0ZM251.9,487.7v-21.2h4.2v21.2h-4.2ZM251.7,463.3v-3.5h4.7v3.5h-4.7ZM240.2,488.2c-1,0-1.9,0-2.9-.3s-1.7-.4-2.5-.7c-.7-.3-1.3-.5-1.7-.7-.4-.2-.6-.3-.6-.3l1-3.4s.2,0,.6.3c.4.2,1,.4,1.7.7.7.2,1.5.5,2.3.7.8.2,1.7.3,2.5.3s.9,0,1.2-.1c.3,0,.6-.2.8-.4.2-.2.4-.5.6-.9.2-.4.3-.8.3-1.3,0-.8-.2-1.4-.7-1.9-.4-.5-1-.8-1.7-1-.7-.3-1.5-.5-2.3-.7-.7-.2-1.4-.5-2.2-.7-.7-.3-1.4-.6-2-1-.6-.4-1.1-1-1.4-1.7-.4-.7-.5-1.7-.5-2.8,0-1.8.6-3.3,1.7-4.3,1.2-1.1,3.1-1.7,5.7-1.7s1.8,0,2.7.2c.9.1,1.6.3,2.3.4.7.1,1.2.3,1.5.4l-.6,3.3s-.2,0-.6-.1c-.4,0-.9-.2-1.5-.3-.6-.1-1.3-.2-2.1-.3-.7,0-1.5-.1-2.2-.1s-1.2,0-1.5.1c-.3,0-.6.2-.8.3-.1.1-.3.3-.4.6-.1.3-.2.6-.2,1,0,.8.2,1.4.7,1.8s1.1.8,1.9,1c.8.2,1.6.5,2.4.8.7.2,1.4.4,2.1.7.7.3,1.3.6,1.9,1,.6.4,1,1,1.4,1.7.3.7.5,1.6.5,2.7,0,2-.6,3.7-1.9,4.9-1.3,1.3-3.1,1.9-5.4,1.9ZM211.7,487.7v-21.2h2.6l.6,2.2h.2s.2-.1.5-.4c.4-.3.8-.6,1.4-.9.6-.3,1.2-.6,1.9-.9.7-.3,1.3-.4,2-.4s1,0,1.4.1c.3,0,.5.1.5.1l-.3,3.8s-.2,0-.5,0-.7,0-1.1,0c-.7,0-1.3,0-2,.3-.6.2-1.2.4-1.7.6-.5.2-.9.5-1.3.7v16.1h-4.2ZM195.3,488.2c-1.3,0-2.3-.3-3.1-.8-.8-.6-1.4-1.4-1.8-2.6-.4-1.1-.6-2.6-.6-4.3v-13.9h4.2v13.1c0,1.2,0,2.1.1,2.8,0,.7.2,1.1.4,1.4.2.2.4.4.8.5.3,0,.7.1,1.1.1.9,0,1.9-.2,2.8-.5,1-.4,1.8-.8,2.6-1.2v-16.1h4.2v21.2h-2.7l-.5-2.1h-.2c-.5.3-1.1.6-1.8,1-.7.4-1.6.8-2.5,1.1s-1.8.5-2.8.5ZM176.9,488.2c-2.2,0-3.9-.4-5.1-1.3-1.2-.9-2.1-2.2-2.6-3.8-.5-1.7-.8-3.6-.8-5.9s.3-4.2.8-5.9,1.4-2.9,2.6-3.8c1.3-.9,3-1.4,5.1-1.4s3.8.5,5.1,1.4c1.3.9,2.1,2.2,2.6,3.8.5,1.6.8,3.6.8,5.9s-.3,4.2-.8,5.9c-.5,1.6-1.4,2.9-2.6,3.8-1.2.9-2.9,1.3-5.1,1.3ZM176.9,484.8c.8,0,1.5,0,2-.3.6-.2,1-.6,1.3-1.1.3-.6.6-1.3.7-2.4.1-1,.2-2.3.2-3.9s0-2.9-.2-3.9c-.1-1-.3-1.8-.7-2.3-.3-.6-.7-.9-1.3-1.1-.6-.2-1.2-.3-2-.3s-1.5.1-2.1.3c-.6.2-1,.6-1.3,1.1-.3.5-.6,1.3-.7,2.3-.1,1-.2,2.3-.2,3.9s0,2.9.2,3.9c.2,1,.4,1.8.7,2.4.3.5.8.9,1.3,1.1.6.2,1.2.3,2.1.3ZM152.9,493.7l2.9-8-6.9-19.2h4.4l4.4,14.8h.2l4.3-14.8h4.4l-7.2,20-2.1,7.2h-4.4ZM127.1,493.7l2.9-8-6.9-19.2h4.4l4.4,14.8h.2l4.3-14.8h4.4l-7.2,20-2.1,7.2h-4.4ZM112.8,488.2c-.9,0-1.8,0-2.8-.1-1,0-1.9-.2-2.7-.3-.8,0-1.5-.1-2.1-.2-.5,0-.8-.1-.8-.1v-11.6c.1,0,0-13.5,0-13.5,0,0,.3,0,.9,0,.6,0,1.2-.1,2.1-.2.8,0,1.7-.1,2.7-.1,1,0,1.9,0,2.7,0,1.4,0,2.7.2,3.9.7,1.2.4,2.1,1.1,2.8,2.1.7,1,1,2.4,1,4.2s-.2,2.1-.5,2.8c-.3.7-.8,1.3-1.3,1.7-.5.4-1,.7-1.4.9-.4.2-.7.3-.9.3l.6-2.1v3.9l-.9-2.1c.5,0,1,.2,1.6.4.6.2,1.1.5,1.7.9.6.4,1,1,1.3,1.7.4.7.5,1.6.5,2.7,0,1.6-.2,3-.7,4-.5,1-1.1,1.9-1.9,2.5-.8.6-1.6,1-2.6,1.2s-2,.4-3,.4ZM113,484.8c1.4,0,2.4-.4,2.8-1.1.5-.7.7-1.9.7-3.4s-.4-2.6-1.1-3.2c-.7-.6-1.7-.9-3-.9h-5.8l1.9-1.6v11.8c0,0-.2-1.9-.2-1.9,0,0,.3,0,.7.1.5,0,1,0,1.7.1.7,0,1.5,0,2.3,0ZM112.7,472.9c1.3,0,2.2-.3,2.6-.9.5-.6.7-1.6.7-3s-.3-2.5-.8-3c-.5-.6-1.4-.9-2.7-.9s-1.5,0-2.1,0c-.6,0-1.1,0-1.6.1-.5,0-.9,0-1.2.1l.9-2v11l-1.9-1.6h6.1Z"/>
  <g>
    <path class="cls-2" d="M352.4,206c-1.5,0-1.8-1-2.3.5.8.7,1.8.3,2.3-.5Z"/>
    <path class="cls-2" d="M262.3,227.3c.4.3,2.8,1.2,2.9,0-1,.3-2.4-1.5-2.9,0Z"/>
    <path class="cls-2" d="M272.7,233.9c0,.3,0,.6-.6.5v1c1.4.8,1.7-1.7.6-1.5Z"/>
    <path class="cls-2" d="M282.6,233.9v1c.6,0,.7.4,1.2.5,0-.8,0-1.8-1.2-1.5Z"/>
    <path class="cls-2" d="M357.1,235.9c-3.7-.6-1.3,1.5,0,0h0Z"/>
    <path class="cls-2" d="M301.2,243.5c1.8.4,1.7-.9,3.5-.5.5-.9.8-1.9,1.3-2.8,0,.8,1.6,2.6,1.9,1.4-.5-.6-1-1.2-1.9-1.5.1-.2.3-.4.4-.6-2.5.3-1.1-2.7-4.1-2-1.1,1.4-2.8,2.3-3.5,4,1,.6,3.9.6,2.3,2Z"/>
    <path class="cls-2" d="M298.9,243.5s0,.5,0,.5c-2.8,2.7,2.8-.9,0-.5Z"/>
    <path class="cls-2" d="M271.6,245c-.5-.1-.7-.4-.6-1h-2.3c0,.9-.1,1.6-.6,2,1.5,0,3.4.3,3.5-1h0Z"/>
    <path class="cls-2" d="M291.4,246.5c.9,0,2.1.2,2.3-.5-.8-.7-2.2-.7-2.3.5Z"/>
    <path class="cls-2" d="M341.4,247.5v-1h-1.7v1h1.7Z"/>
    <path class="cls-2" d="M375.7,250.6c.4-1.3-.2-1.8-1.7-1.5-.4,1.4,1.2,1,1.7,1.5Z"/>
    <path class="cls-2" d="M273.3,250.1c-1,0-1.8-.1-2.3-.5-.9,1.4,2.5,1.4,2.3.5Z"/>
    <path class="cls-2" d="M277.4,250.1c-2-1.5-1.8,1.9,0,0h0Z"/>
    <path class="cls-2" d="M261.1,251.1c0-.3,0-.6-.6-.5.5,2.5,6.3-.1.6.5Z"/>
    <path class="cls-2" d="M228.5,251.6c-1-.9-2.3.2-2.3,1.5,1.5.1,2.5-.2,2.3-1.5Z"/>
    <path class="cls-2" d="M223.9,252.6c-2.1-1.7-6.6.8-5.2,2,.6-.5,5.4.6,5.2-2Z"/>
    <path class="cls-2" d="M383.2,253.6c.8.7,3.5.5,3.5-1-1,.5-2.9.2-3.5,1Z"/>
    <path class="cls-2" d="M218.7,273.9c.8,0,.5.9,1.2,1,0-.6.7-.7.6-1.5-.7,0-1.6,0-1.7.5Z"/>
    <path class="cls-2" d="M247.2,277.4c-4.4-.6-1.9,1.5,0,0h0Z"/>
    <path class="cls-2" d="M244.8,282v1h1.2v-1h-1.2Z"/>
    <path class="cls-2" d="M207,284.5c0,.6,0,1.4.6,1.5,0-.3,0-.6.6-.5,0-.6-.2-1.2-1.2-1Z"/>
    <path class="cls-2" d="M278,285c-.7,0-.8-.6-1.7-.5-.9,1.2,2,1.5,1.7.5Z"/>
    <path class="cls-2" d="M204.1,286.5c.8.7,1.8.3,2.3-.5-.8-.7-1.8-.3-2.3.5Z"/>
    <path class="cls-2" d="M239.6,285.5c-3.7-.6-1.3,1.5,0,0h0Z"/>
    <path class="cls-2" d="M250.1,286.5c.8.1,1,.8,1.7,1-.2-1.3,2.3-.4,1.7-2-1.5,0-3.4-.3-3.5,1h0Z"/>
    <path class="cls-2" d="M208.2,289.1c-.8-.2-1.1-.7-2.3-.5-.9,1.4,2.5,1.4,2.3.5Z"/>
    <path class="cls-2" d="M282.6,289.6c-.9-.8-2.6-.6-2.3,1,1.1,0,1.9-.3,2.3-1Z"/>
    <path class="cls-2" d="M300.1,297.7c2-.4,2.2.8,4.1.5.5-2.9-1.7-3-2.9-3.5.2,0-1.9-2-2.9,0,.7.1.4.6,0,1,1.9-.5.8,1.7,1.7,2h0Z"/>
    <path class="cls-2" d="M264,297.2c-2-1.5-1.8,1.9,0,0h0Z"/>
    <path class="cls-2" d="M383.8,302.7c-.1.3.2,1.1.6,1,.5,0,.3-2.8-.6-1Z"/>
    <path class="cls-2" d="M375.1,303.7h2.3v-1h-2.3v1Z"/>
    <path class="cls-2" d="M327.4,304.7c1.2,0,.7,1.4,2.3,1-.3-1.6,1.4-2.1-.6-2.5.2,1.2-1.7.6-1.7,1.5Z"/>
    <path class="cls-2" d="M297.8,310.3c2.7.7,2.6-.8,6.4,0l-.3-.9.9-.6c.1-.7,1-.9,1.2-1.5l-.9-.6.3-.9c-2.9-.1-3.7,1.5-6.4,1.5,1.6-.8-.9-1.7-1.2-.5l.4.5-.4.5c.7,1.3,1.6,1.8,0,2.5h0Z"/>
    <path class="cls-2" d="M312.9,305.3c1.5,0,1.8,1,2.3-.5-.8-.7-2.2-.7-2.3.5Z"/>
    <path class="cls-2" d="M344.8,305.3c1.4.3,2.7.8,2.9-1-1.5,0-2.4.3-2.9,1Z"/>
    <path class="cls-2" d="M282.6,308.3c.3-.8.9-1.3,1.2-2h-.6v-.5c-.6-.7-1,.2-1.7-1-.1.4,0,1-.6,1l.3.8-.9.3c.5.7.9,1.6,2.3,1.5Z"/>
    <path class="cls-2" d="M287.9,307.3c.4.3,2.8,1.2,2.9,0-1.7.1-2.2-2-2.9,0Z"/>
    <path class="cls-2" d="M346.6,307.8v-1c-.6,0-.7-.4-1.2-.5-.1.7-1,.9-1.2,1.5h2.3Z"/>
    <path class="cls-2" d="M328.6,315.4h-1.2v1h1.2v-1Z"/>
    <path class="cls-2" d="M258.2,317.4c-.8-.8-2.3-1.1-4.1-1-.6.7-.6,1.9-1.2,2.5,1.5-.8,4.8,1.1,5.2-1.5Z"/>
    <path class="cls-2" d="M250.1,316.9c-.3,1.1-1.4,1.5-1.2,3,1.5,0,1.8-.8,2.9-1,0-1.3-.9-1.6-1.7-2Z"/>
    <path class="cls-2" d="M291.4,318.4c1.5,0,3.4.3,3.5-1-1.5,0-3.4-.3-3.5,1Z"/>
    <path class="cls-2" d="M386.1,324.5c.8-.3,3,.6,2.9-.5-.8.3-3-.6-2.9.5Z"/>
    <path class="cls-2" d="M205.3,339.2c-1.9-1.5-1.8,1.9,0,0h0Z"/>
    <path class="cls-2" d="M254.1,360.9s2,.3,1.7.5c1.4-1.2-1.9-1.3-1.7-.5Z"/>
    <path class="cls-2" d="M285.5,362.5c-3.7-.6-1.3,1.5,0,0h0Z"/>
    <path class="cls-2" d="M347.8,250.1c-.5-1-2.5.2-1.2.5.1-.6.6-.3,1.2,0,.2-.5.7-1.2,0-.5Z"/>
    <path class="cls-2" d="M209.9,282c1.9-.5.8,1.7,2.3,1.5-.2-1.2-1.7-3.6-2.3-1.5Z"/>
    <path class="cls-2" d="M250.4,301.2l.9.5c1.3-.7-.7-2.7-.6-4-1.7.5-1.8.5-3.5,0-.4,2.4,1.5,2.8,2.3,4l.9-.5Z"/>
    <path class="cls-2" d="M212.6,279.2l.9.3c1.2-1-.3-1-.6-2,1,0,1.8-.1,2.3-.5-.4-1.5.6-1.8.6-3-.8-.2-1.1-.7-2.3-.5l-.9.3c.2-1-.4-2.2-1.7-2.2-.2.1-.4.3-.6.7l-.3-.8h-.6c-.5-.6-.8-1.4-.6-2.5-2-.6-2.5.4-3.5-.5.3,0,.7-.4,0-.5-.3,1-1.2,1.6-1.7,2.5,1.9.4,0,5.5-2.9,5.1.6,2.9-.7,4.9,3.5,5.1,1.1-3.5,4.3-5.7,7.1-7.7l.5.3c-1.4.6.5,1.2.6,2.3-.7,0-.8-.6-1.7-.5,1.4,2-1.3,1.4-1.7,3,.7,0,.6.8.6,1.5,1.6-.4,1.5.7,2.9.5l.3-.8h0Z"/>
    <path class="cls-2" d="M256.5,282.5l.3.5-.3.5c-.5,1.8,1.9.9,2.3.5,0,.7.3,1.1.6,1.5,1.7-.5,4.6,0,5.2-1.5-1.9-1.4-2.9-3.5-2.9-6.6-2.7.6-3.3,1.1-4.7,2,2.1.4.9,2.9-.6,3Z"/>
    <path class="cls-2" d="M312.3,300.7c-.1-2.6-3.6-2.7-4.7-2,.6.4-.2,1.8,1.2,2.5,1.8.4,1.7-.9,3.5-.5Z"/>
    <path class="cls-2" d="M329.1,307.8c-.9,1.3-2,2.3-4.1,2.5,0,.7.3,1.1.6,1.5l.9-.3-.3.8c0,.3,0,.6.6.5l.9-.3.3.8c.8-1.3,3.7-4.5,1.2-5.6h0Z"/>
    <path class="cls-2" d="M321.6,313.9c0-.3,0-.6.6-.5,0,.3.5.6.6,0-.5-1-2.9-.1-1.2.5Z"/>
    <path class="cls-2" d="M216.9,319.9c0-.5,2.5-1,.6-1.5.3.7-2.3,1.2-.6,1.5Z"/>
    <path class="cls-2" d="M377.1,248.8l3.2-1.3c-1.2-.1-2.2.7-3.2,1.3Z"/>
    <path class="cls-2" d="M208.5,251.8l-2.3,2.3c1.2-.3,1.8-1.4,2.3-2.3Z"/>
    <path class="cls-2" d="M257.9,274.6l.9,1c-.1-.3-.3-.8-.9-1Z"/>
    <path class="cls-2" d="M214.7,283.6l.7-.6c-.3,0-.5.4-.7.6Z"/>
    <path class="cls-2" d="M214.3,284c.2,0,.3-.2.4-.4l-.4.4Z"/>
    <path class="cls-2" d="M212.9,298.7c.5.4.8.4,1.1.4.2-.3.4-.6.5-.9,0-.3,0-.8,0-1.3l-1.7,1.8Z"/>
    <path class="cls-2" d="M308.4,308.7l-4.5.7c1.7.7,3-.4,4.5-.7Z"/>
    <path class="cls-2" d="M298.2,307.3c-.4,0-.8-.2-1.3-.3l1.3.3Z"/>
    <path class="cls-2" d="M305,306.7l3.8-1.4c-1.4.1-2.6.8-3.8,1.4Z"/>
    <path class="cls-2" d="M284.1,305.5l-.9.8c.3-.3.7-.4.9-.8Z"/>
    <path class="cls-2" d="M281.2,306.5c-.8-.3-1.5-.5-2.3-.8l2.3.8Z"/>
    <path class="cls-2" d="M235.2,344c1.6,0,3.2,0,4.7-.5l-4.7.5Z"/>
    <path class="cls-2" d="M268.8,361.6h-3.9c1.2.2,2.6,0,3.9,0Z"/>
    <path class="cls-2" d="M268.8,361.6h2.5c-.8,0-1.7,0-2.5,0Z"/>
    <path class="cls-2" d="M257.9,227.5l-.8.9c.5-.1.8-.4.8-.9Z"/>
    <path class="cls-2" d="M255.2,229.6c.1.2.2.3.4.5l1.5-1.7c-.8.2-1.9.2-1.9,1.2Z"/>
    <path class="cls-2" d="M195.1,295.5h2.9c-1-.2-1.9-.2-2.9,0Z"/>
    <path class="cls-2" d="M202.7,289.3l-1.2,4.6c.5-.5,1.5-.7,1.9-.9.2-1.1.5-3-.7-3.7Z"/>
    <path class="cls-2" d="M208.5,299.9c.7.2,1.5.3,1.9.3l-1.9-.3Z"/>
    <path class="cls-2" d="M250.4,301.2l-.2,1.8c.1-.5.1-1.1.2-1.8Z"/>
    <path class="cls-2" d="M227.1,311.1c-.6-.2-1.1-.2-1.7,0h1.7Z"/>
    <path class="cls-2" d="M213.4,311.8c.5,0,1,0,1.5-.4l-1.5.4Z"/>
    <path class="cls-2" d="M210.4,312.1c0,.2-.1.3-.2.5l3.1-.8c-1,0-2.1-.3-3,.3h0Z"/>
    <path class="cls-2" d="M256.3,282.9l-3-.2c.8.8,2,.2,3,.2Z"/>
    <path class="cls-2" d="M270.3,286.1l-2.5-.8c.8.4,1.6.8,2.5.8Z"/>
    <path class="cls-2" d="M326.5,311.6l-1.7,1c.6-.3,1.2-.6,1.7-1Z"/>
    <path class="cls-2" d="M327.7,312.6l-2.3,1.5c1.1,0,2.1-.5,2.3-1.5Z"/>
    <path class="cls-2" d="M203.7,201v-2.1h-2.9c-.3,1.4-.3,2.6,2.9,2.1Z"/>
    <path class="cls-2" d="M278.7,207.3c-.9.9-2.7,1.3-1.9,3.1,2.7.4,4.1-2.6,1.9-3.1Z"/>
    <path class="cls-2" d="M292.4,210.9h2.9v-1.6h-1.9c0,.7-1.2.7-1,1.6Z"/>
    <path class="cls-2" d="M236.8,215.1c-1.2,0-1.4-.7-2.9-.5-.1,1.3-.2,2.5,1.9,2.6-.2-1,1.1-1.1,1-2.1Z"/>
    <path class="cls-2" d="M321.6,216.6c-.5,1.3-1.3,1.8,1,2.6.8-.4,2.5-3.1-1-2.6Z"/>
    <path class="cls-2" d="M312.8,220.8c1.1.1,1.5.6,1.9,1,1.8.1,2.1-.6,3.9-.5,1.5-1.6-.5-2.3-1-4.2h-2.9c1,2.1-2.9,1.6-1.9,3.6h0Z"/>
    <path class="cls-2" d="M342.1,219.3c-1.7-.9-3.8.6-5.8,1,2.8.1,4.9-.1,5.8-1Z"/>
    <path class="cls-2" d="M388.8,246.8c-1,3,4.2.2,0,0h0Z"/>
    <path class="cls-2" d="M211.5,258.8c-.5.8-1.4,1.3-1.9,2.1,2.5.5,4.3-1.8,1.9-2.1Z"/>
    <path class="cls-2" d="M372.3,262.4c.7-.4,2.4-2.5-1-2.1.2.8-.4,1.9,1,2.1Z"/>
    <path class="cls-2" d="M194,264.5s3.3.3,2.9.5c2.3-1.3-3.2-1.4-2.9-.5Z"/>
    <path class="cls-2" d="M292.4,305.6c2.4-.6,3.2-2.1,5.8-2.6-2.1-.5-5.2.2-8.8-.5.7,1.4-1.9,1-1.9,2.1,1.9.2,2.4,1.1,4.9,1h0Z"/>
    <path class="cls-2" d="M218.3,320.7v1.6c2.2.1,3.7-.1,3.9-1-1.3-.2-1.9-.7-3.9-.5Z"/>
    <path class="cls-2" d="M216.4,327.5c3.1.2,4-.6,4.9-1.6-3.4,0-1.6-2.6-4.9-2.6-2.7,1.1-1.9,2.9,0,4.2Z"/>
    <path class="cls-2" d="M224.1,326.4c-2.2-.1-3.7.1-3.9,1,3.2-.6.7,1.7,3.9,1v-2.1Z"/>
    <path class="cls-2" d="M297.2,338.9c-.8,1.1.9,3.2,1.9,1.6-1.6,0-.5-1.5-1.9-1.6Z"/>
    <path class="cls-2" d="M263.1,349.3c0,1.3-4.2.5-2.9,2.6,3.8.5,6.8-2.1,2.9-2.6Z"/>
    <path class="cls-2" d="M249.5,356.6c.1-.6,1.7-1.2,0-1.6-.1.6-1.7,1.2,0,1.6Z"/>
    <path class="cls-2" d="M310.9,209.4c2.7-.2-.8,2.8,1.9,2.6.5-.8,1.4-1.3,1.9-2.1-1.3,0-3.6-1.8-3.9-.5Z"/>
    <path class="cls-2" d="M196.9,268.1c0-.3.1-.6,1-.5,0,.3.8.6,1,0-.9-1-4.9-.1-1.9.5h0Z"/>
    <path class="cls-2" d="M360.6,273.9c0,.3-.1.6-1,.5-.2-.4,0-1-1-1,0,.3-.1.6-1,.5v1c2,.5,5.4-.8,2.9-1h0Z"/>
    <path class="cls-2" d="M308.1,229.1l13.9-4.4c-5.2.8-9.5,2.7-13.9,4.4Z"/>
    <path class="cls-2" d="M308.1,229.1l-8.5,2.7c3.1-.7,5.8-1.6,8.5-2.7Z"/>
    <path class="cls-2" d="M223.5,256.5l-1.8.7c.7-.1,1.3-.4,1.8-.7Z"/>
    <path class="cls-2" d="M223.5,256.5l4.1-1.6c-2.3,0-2.9.9-4.1,1.6Z"/>
    <path class="cls-2" d="M331.8,284l1.9-.3c-.6,0-1.3.1-1.9.3Z"/>
    <path class="cls-2" d="M197.5,201.3l-1.2-1.6c-.2.7.6,1.1,1.2,1.6Z"/>
    <path class="cls-2" d="M198,202c0-.2-.2-.5-.5-.6l.5.6Z"/>
    <path class="cls-2" d="M292.3,234.1c-1.5.4-3.2.8-4.3,1.5l4.3-1.5Z"/>
    <path class="cls-2" d="M292.3,234.1c.5-.2,1.1-.3,1.5-.5l-1.5.5Z"/>
    <path class="cls-2" d="M276.3,239.8c-1.3.2-2.8.1-3.9.5l3.9-.5Z"/>
    <path class="cls-2" d="M376.1,262.7l-2.9,2.6c1.9-.6,2-1.7,2.9-2.6Z"/>
    <path class="cls-2" d="M376.1,262.7l.5-.5c-.2.2-.4.3-.5.5Z"/>
    <path class="cls-2" d="M260.7,360.2l-5.4-3.9c.4,1.2-1,2.3-.2,3.4.4.1.8.3,1.1.4,1.1,0,2.8,0,4.4,0Z"/>
  </g>
</svg>